SplineFontDB: 3.2
FontName: MittellinienOldish
FullName: Mittellinien Oldish
FamilyName: Mittellinien Oldish
Weight: Regular
Copyright: (c) 2026, Daniel Stelzer
UComments: "2026-2-17: Created with FontForge (http://fontforge.org)"
Version: 1.2.0
ItalicAngle: 0
UnderlinePosition: -100
UnderlineWidth: 50
Ascent: 800
Descent: 200
InvalidEm: 0
LayerCount: 2
Layer: 0 0 "Back" 1
Layer: 1 0 "Fore" 0
XUID: [1021 7 780499623 14691910]
OS2Version: 0
OS2_WeightWidthSlopeOnly: 0
OS2_UseTypoMetrics: 1
CreationTime: 1771385099
ModificationTime: 1771385235
OS2TypoAscent: 0
OS2TypoAOffset: 1
OS2TypoDescent: 0
OS2TypoDOffset: 1
OS2TypoLinegap: 0
OS2WinAscent: 0
OS2WinAOffset: 1
OS2WinDescent: 0
OS2WinDOffset: 1
HheadAscent: 0
HheadAOffset: 1
HheadDescent: 0
HheadDOffset: 1
OS2Vendor: 'PfEd'
Lookup: 4 0 1 "ligatures" { "ligsubtable"  } ['liga' ('latn' <'dflt' > 'xsux' <'dflt' > ) ]
DEI: 91125
Encoding: ISO8859-1
UnicodeInterp: none
NameList: AGL For New Fonts
DisplaySize: -48
AntiAlias: 1
FitToEm: 0
BeginChars: 694 438

StartChar: U12038
Encoding: 256 73784 0
Width: 1212
VWidth: 100
Flags: W
HStem: 287.5 25<219.097 1112.5>
VStem: 100 25<133.332 193.403 224.17 375.83 406.597 466.668>
LayerCount: 2
Fore
SplineSet
100 466.66796875 m 1
 125 466.66796875 l 1
 125 381.376953125 193.876953125 312.5 279.16796875 312.5 c 2
 1112.5 312.5 l 1
 1112.5 287.5 l 1
 279.16796875 287.5 l 2
 193.876953125 287.5 125 218.623046875 125 133.33203125 c 1
 100 133.33203125 l 1
 100 466.66796875 l 1
125 375.830078125 m 1
 125 224.169921875 l 1
 145.243164062 258.393554688 176.453125 285.291015625 213.857421875 300 c 1
 176.453125 314.708984375 145.243164062 341.606445312 125 375.830078125 c 1
EndSplineSet
EndChar

StartChar: U12224
Encoding: 257 74276 1
Width: 1719
VWidth: 100
Flags: W
HStem: -15.7715 24.6958<1207.43 1304.4> 76.6438 24.7297<1068.74 1165.62> 287.5 25<220.777 266.668 385.762 582.324 617.68 755.903 786.67 938.33 969.097 1082.32 1125 1156.45 1181.71 1433.33 1458.33 1612.5> 572.096 24.6622<214.964 318.7 714.964 818.7> 787.5 25<945.832 1005.9 1036.67 1188.33 1219.1 1339.24 1370 1521.66 1552.43 1612.5>
VStem: 100 25<133.332 193.949 224.17 375.83 406.051 466.668> 266.668 25<133.332 193.403 224.17 286.955 313.045 375.83 406.597 466.668> 315.742 24.6616<593.8 697.535> 815.742 24.6616<593.8 697.535> 850 25<-200 193.403> 1100 25<330.18 693.403> 1134.37 24.6842<141.326 209.713> 1273.05 24.6717<48.4029 117.262> 1433.33 25<312.5 693.403>
LayerCount: 2
Fore
SplineSet
945.83203125 812.5 m 1
 1279.16796875 812.5 l 1
 1612.5 812.5 l 1
 1612.5 787.5 l 1
 1527.20898438 787.5 1458.33203125 718.623046875 1458.33203125 633.33203125 c 2
 1458.33203125 312.5 l 1
 1612.5 312.5 l 1
 1612.5 287.5 l 1
 1181.7109375 287.5 l 1
 1185.02148438 285.29296875 l 1
 1167.46284108 258.955575716 1159.05764402 229.241386876 1159.05764402 199.86584435 c 0
 1159.05764402 154.000672592 1179.54765335 108.961045565 1217.6796875 78.888671875 c 1
 1302.89648438 206.7109375 l 1
 1323.69726562 192.84375 l 1
 1323.69726562 192.841796875 l 1
 1306.13003349 166.493849349 1297.71904607 136.761481085 1297.71904607 107.368529332 c 0
 1297.71904607 57.5963953635 1321.83659136 8.79749945316 1366.453125 -20.947265625 c 2
 1619.43359375 -189.599609375 l 1
 1605.56640625 -210.400390625 l 1
 1352.5859375 -41.748046875 l 2
 1326.23782735 -24.182156658 1296.50498543 -15.7715471866 1267.11151789 -15.7715471866 c 0
 1217.33899914 -15.7715471866 1168.53957853 -39.8875352385 1138.79492188 -84.50390625 c 1
 1117.99414062 -70.63671875 l 1
 1203.20703125 57.181640625 l 1
 1179.6276557 70.317284393 1153.87614758 76.6438412707 1128.3819439 76.6438412707 c 0
 1078.62873372 76.6438412707 1029.8554796 52.5488524226 1000.11914062 7.9453125 c 1
 979.318359375 21.8125 l 1
 1156.44726562 287.5 l 1
 1029.16796875 287.5 l 2
 943.876953125 287.5 875 218.623046875 875 133.33203125 c 2
 875 -200 l 1
 850 -200 l 1
 850 133.33203125 l 2
 850 218.623046875 781.123046875 287.5 695.83203125 287.5 c 2
 445.83203125 287.5 l 2
 360.541015625 287.5 291.66796875 218.623046875 291.66796875 133.33203125 c 1
 266.66796875 133.33203125 l 1
 266.66796875 286.955078125 l 1
 187.252929688 280.608398438 125 214.41015625 125 133.33203125 c 1
 100 133.33203125 l 1
 100 466.66796875 l 1
 125 466.66796875 l 1
 125 385.58984375 187.252929688 319.391601562 266.66796875 313.044921875 c 1
 266.66796875 466.66796875 l 1
 291.66796875 466.66796875 l 1
 291.66796875 381.376953125 360.541015625 312.5 445.83203125 312.5 c 2
 582.32421875 312.5 l 1
 367.95703125 526.865234375 l 2
 337.803100583 557.019165042 298.375469387 572.096069343 258.947237304 572.096069343 c 0
 219.518047539 572.096069343 180.088256857 557.01843262 149.931640625 526.86328125 c 1
 149.931640625 526.865234375 l 1
 132.255859375 544.541015625 l 1
 132.255859375 544.54296875 l 2
 132.26171875 544.548828125 132.26953125 544.5546875 132.275390625 544.560546875 c 2
 367.95703125 780.244140625 l 1
 367.958984375 780.24609375 l 1
 385.63671875 762.568359375 l 1
 355.48156738 732.411743143 340.403930657 692.981952461 340.403930657 653.552762696 c 0
 340.403930657 614.124530613 355.480834958 574.696899417 385.634765625 544.54296875 c 2
 617.6796875 312.5 l 1
 1082.32421875 312.5 l 1
 867.95703125 526.865234375 l 2
 837.803100583 557.019165042 798.375469387 572.096069343 758.947237304 572.096069343 c 0
 719.518047539 572.096069343 680.088256857 557.01843262 649.931640625 526.86328125 c 1
 649.931640625 526.865234375 l 1
 632.255859375 544.541015625 l 1
 632.255859375 544.54296875 l 2
 632.26171875 544.548828125 632.26953125 544.5546875 632.275390625 544.560546875 c 2
 867.95703125 780.244140625 l 1
 867.958984375 780.24609375 l 1
 885.63671875 762.568359375 l 1
 855.48156738 732.411743143 840.403930657 692.981952461 840.403930657 653.552762696 c 0
 840.403930657 614.124530613 855.480834958 574.696899417 885.634765625 544.54296875 c 2
 1100 330.1796875 l 1
 1100 633.33203125 l 2
 1100 718.623046875 1031.12304688 787.5 945.83203125 787.5 c 1
 945.83203125 812.5 l 1
1036.66992188 787.5 m 1
 1070.89355469 767.256835938 1097.79101562 736.046875 1112.5 698.642578125 c 1
 1127.20898438 736.046875 1154.10644531 767.256835938 1188.33007812 787.5 c 1
 1036.66992188 787.5 l 1
1279.16796875 787.5 m 0
 1193.87695312 787.5 1125 718.623046875 1125 633.33203125 c 2
 1125 312.5 l 1
 1433.33203125 312.5 l 1
 1433.33203125 633.33203125 l 2
 1433.33203125 718.623046875 1364.45898438 787.5 1279.16796875 787.5 c 0
1370.00390625 787.5 m 1
 1404.22558594 767.2578125 1431.12304688 736.048828125 1445.83203125 698.646484375 c 1
 1460.54101562 736.048828125 1487.43945312 767.2578125 1521.66210938 787.5 c 1
 1370.00390625 787.5 l 1
321.40625 698.337890625 m 1
 214.16015625 591.09375 l 1
 228.865428383 594.868969462 243.946109299 596.75831856 259.022908125 596.75831856 c 0
 283.433825071 596.75831856 307.834565117 591.805389394 330.615234375 581.884765625 c 1
 320.69507139 604.665159374 315.742372934 629.066043806 315.742372934 653.476994009 c 0
 315.742372934 668.553244483 317.631491453 683.633334366 321.40625 698.337890625 c 1
821.40625 698.337890625 m 1
 714.16015625 591.09375 l 1
 728.865428383 594.868969462 743.946109299 596.75831856 759.022908125 596.75831856 c 0
 783.433825071 596.75831856 807.834565117 591.805389394 830.615234375 581.884765625 c 1
 820.69507139 604.665159374 815.742372934 629.066043806 815.742372934 653.476994009 c 0
 815.742372934 668.553244483 817.631491453 683.633334366 821.40625 698.337890625 c 1
125 375.830078125 m 1
 125 224.169921875 l 1
 145.243164062 258.393554688 176.453125 285.291015625 213.857421875 300 c 1
 176.453125 314.708984375 145.243164062 341.606445312 125 375.830078125 c 1
291.66796875 375.830078125 m 1
 291.66796875 224.169921875 l 1
 311.91015625 258.392578125 343.118164062 285.291015625 380.521484375 300 c 1
 343.118164062 314.708984375 311.91015625 341.607421875 291.66796875 375.830078125 c 1
786.669921875 287.5 m 1
 820.893554688 267.256835938 847.791015625 236.046875 862.5 198.642578125 c 1
 877.208984375 236.046875 904.106445312 267.256835938 938.330078125 287.5 c 1
 786.669921875 287.5 l 1
1134.63476562 209.712890625 m 1
 1050.50585938 83.5234375 l 1
 1074.91865889 95.2759984837 1101.6826237 101.373519462 1128.68639035 101.373519462 c 0
 1141.31108108 101.373519462 1153.98818557 100.040777394 1166.50195312 97.330078125 c 1
 1145.41113732 127.628448236 1134.37345958 163.585313045 1134.37345958 200.010839359 c 0
 1134.37345958 203.242375743 1134.46033244 206.477600761 1134.63476562 209.712890625 c 1
1273.30859375 117.26171875 m 1
 1189.18164062 -8.92578125 l 1
 1213.59444014 2.82677973369 1240.35840495 8.92430071173 1267.3621716 8.92430071173 c 0
 1279.98686233 8.92430071173 1292.66396682 7.59155864355 1305.17773438 4.880859375 c 1
 1284.08666203 35.1787010227 1273.04732449 71.1359989352 1273.04732449 107.561216972 c 0
 1273.04732449 110.792243649 1273.13418449 114.026952027 1273.30859375 117.26171875 c 1
EndSplineSet
EndChar

StartChar: U1202e
Encoding: 258 73774 2
Width: 1212
VWidth: 100
Flags: W
HStem: -45.832 25<220.777 266.668 385.762 933.332> 287.5 25<220.777 266.668 385.762 933.332> 620.832 25<779.168 839.238 870.004 932.787 958.877 1021.66 1052.43 1112.5> 787.5 25<779.168 839.784 870.004 1021.66 1051.88 1112.5>
VStem: 100 25<-200 -139.383 -109.162 42.4961 72.716 193.949 224.17 375.83 406.051 466.668> 266.668 25<-200 -139.929 -109.162 -46.377 -20.2871 42.4941 73.2617 193.403 224.17 286.955 313.045 375.83 406.597 466.668> 933.332 25<-200 -45.832 -20.832 287.5 312.5 526.738 645.832 691.723>
LayerCount: 2
Fore
SplineSet
779.16796875 812.5 m 1
 1112.5 812.5 l 1
 1112.5 787.5 l 1
 1031.421875 787.5 965.223632812 725.247070312 958.876953125 645.83203125 c 1
 1112.5 645.83203125 l 1
 1112.5 620.83203125 l 1
 1027.20898438 620.83203125 958.33203125 551.958984375 958.33203125 466.66796875 c 2
 958.33203125 -200 l 1
 933.33203125 -200 l 1
 933.33203125 -45.83203125 l 1
 445.83203125 -45.83203125 l 2
 360.541015625 -45.83203125 291.66796875 -114.708984375 291.66796875 -200 c 1
 266.66796875 -200 l 1
 266.66796875 -46.376953125 l 1
 187.252929688 -52.7236328125 125 -118.921875 125 -200 c 1
 100 -200 l 1
 100 133.33203125 l 1
 100 466.66796875 l 1
 125 466.66796875 l 1
 125 385.58984375 187.252929688 319.391601562 266.66796875 313.044921875 c 1
 266.66796875 466.66796875 l 1
 291.66796875 466.66796875 l 1
 291.66796875 381.376953125 360.541015625 312.5 445.83203125 312.5 c 2
 933.33203125 312.5 l 1
 933.33203125 466.66796875 l 2
 933.33203125 551.959960938 864.458984375 620.83203125 779.16796875 620.83203125 c 1
 779.16796875 645.83203125 l 1
 932.787109375 645.83203125 l 1
 926.440429688 725.247070312 860.24609375 787.5 779.16796875 787.5 c 1
 779.16796875 812.5 l 1
870.00390625 787.5 m 1
 904.225585938 767.2578125 931.123046875 736.048828125 945.83203125 698.646484375 c 1
 960.541015625 736.048828125 987.440429688 767.2578125 1021.66210938 787.5 c 1
 870.00390625 787.5 l 1
870.00390625 620.83203125 m 1
 904.225585938 600.590820312 931.12109375 569.380859375 945.830078125 531.978515625 c 1
 960.5390625 569.381835938 987.439453125 600.58984375 1021.66210938 620.83203125 c 1
 870.00390625 620.83203125 l 1
125 375.830078125 m 1
 125 224.169921875 l 1
 145.243164062 258.393554688 176.453125 285.291015625 213.857421875 300 c 1
 176.453125 314.708984375 145.243164062 341.606445312 125 375.830078125 c 1
291.66796875 375.830078125 m 1
 291.66796875 224.169921875 l 1
 311.91015625 258.392578125 343.118164062 285.291015625 380.521484375 300 c 1
 343.118164062 314.708984375 311.91015625 341.607421875 291.66796875 375.830078125 c 1
445.83203125 287.5 m 2
 360.541015625 287.5 291.66796875 218.623046875 291.66796875 133.33203125 c 0
 291.66796875 48.041015625 360.541015625 -20.83203125 445.83203125 -20.83203125 c 2
 933.33203125 -20.83203125 l 1
 933.33203125 287.5 l 1
 445.83203125 287.5 l 2
266.66796875 286.955078125 m 1
 187.252929688 280.608398438 125 214.41015625 125 133.33203125 c 0
 125 52.25390625 187.252929688 -13.9404296875 266.66796875 -20.287109375 c 1
 266.66796875 133.33203125 l 1
 266.66796875 286.955078125 l 1
125 42.49609375 m 1
 125 -109.162109375 l 1
 145.2421875 -74.939453125 176.452148438 -48.041015625 213.85546875 -33.33203125 c 1
 176.452148438 -18.623046875 145.2421875 8.2734375 125 42.49609375 c 1
291.66796875 42.494140625 m 1
 291.66796875 -109.162109375 l 1
 311.91015625 -74.939453125 343.118164062 -48.041015625 380.521484375 -33.33203125 c 1
 343.119140625 -18.6240234375 311.909179688 8.2724609375 291.66796875 42.494140625 c 1
EndSplineSet
EndChar

StartChar: U1202f
Encoding: 259 73775 3
Width: 2212
VWidth: 100
Flags: W
HStem: -45.832 25<220.777 266.668 385.762 933.332> 287.5 25<220.777 266.668 385.762 933.332 1220.78 1266.67 1385.76 1933.33> 620.832 25<779.168 839.238 870.004 932.787 958.877 1021.66 1052.43 1112.5> 787.5 25<779.168 839.784 870.004 1021.66 1051.88 1112.5 1779.17 1839.24 1870 2021.66 2052.43 2112.5>
VStem: 100 25<-200 -139.383 -109.162 42.4961 72.716 193.949 224.17 375.83 406.051 466.668> 266.668 25<-200 -139.929 -109.162 -46.377 -20.2871 42.4941 73.2617 193.403 224.17 286.955 313.045 375.83 406.597 466.668> 933.332 25<-200 -45.832 -20.832 287.5 312.5 526.738 645.832 691.723> 1100 25<133.332 193.949 224.17 375.83 406.051 466.668> 1266.67 25<133.332 193.403 224.17 286.955 313.045 375.83 406.597 466.668> 1933.33 25<-200 287.5 312.5 693.403>
LayerCount: 2
Fore
SplineSet
779.16796875 812.5 m 1
 1112.5 812.5 l 1
 1112.5 787.5 l 1
 1031.421875 787.5 965.223632812 725.247070312 958.876953125 645.83203125 c 1
 1112.5 645.83203125 l 1
 1112.5 620.83203125 l 1
 1027.20898438 620.83203125 958.33203125 551.958984375 958.33203125 466.66796875 c 2
 958.33203125 -200 l 1
 933.33203125 -200 l 1
 933.33203125 -45.83203125 l 1
 445.83203125 -45.83203125 l 2
 360.541015625 -45.83203125 291.66796875 -114.708984375 291.66796875 -200 c 1
 266.66796875 -200 l 1
 266.66796875 -46.376953125 l 1
 187.252929688 -52.7236328125 125 -118.921875 125 -200 c 1
 100 -200 l 1
 100 133.33203125 l 1
 100 466.66796875 l 1
 125 466.66796875 l 1
 125 385.58984375 187.252929688 319.391601562 266.66796875 313.044921875 c 1
 266.66796875 466.66796875 l 1
 291.66796875 466.66796875 l 1
 291.66796875 381.376953125 360.541015625 312.5 445.83203125 312.5 c 2
 933.33203125 312.5 l 1
 933.33203125 466.66796875 l 2
 933.33203125 551.959960938 864.458984375 620.83203125 779.16796875 620.83203125 c 1
 779.16796875 645.83203125 l 1
 932.787109375 645.83203125 l 1
 926.440429688 725.247070312 860.24609375 787.5 779.16796875 787.5 c 1
 779.16796875 812.5 l 1
1779.16796875 812.5 m 1
 2112.5 812.5 l 1
 2112.5 787.5 l 1
 2027.20898438 787.5 1958.33203125 718.623046875 1958.33203125 633.33203125 c 2
 1958.33203125 -200 l 1
 1933.33203125 -200 l 1
 1933.33203125 287.5 l 1
 1445.83203125 287.5 l 2
 1360.54101562 287.5 1291.66796875 218.623046875 1291.66796875 133.33203125 c 1
 1266.66796875 133.33203125 l 1
 1266.66796875 286.955078125 l 1
 1187.25292969 280.608398438 1125 214.41015625 1125 133.33203125 c 1
 1100 133.33203125 l 1
 1100 466.66796875 l 1
 1125 466.66796875 l 1
 1125 385.58984375 1187.25292969 319.391601562 1266.66796875 313.044921875 c 1
 1266.66796875 466.66796875 l 1
 1291.66796875 466.66796875 l 1
 1291.66796875 381.376953125 1360.54101562 312.5 1445.83203125 312.5 c 2
 1933.33203125 312.5 l 1
 1933.33203125 633.33203125 l 2
 1933.33203125 718.623046875 1864.45898438 787.5 1779.16796875 787.5 c 1
 1779.16796875 812.5 l 1
870.00390625 787.5 m 1
 904.225585938 767.2578125 931.123046875 736.048828125 945.83203125 698.646484375 c 1
 960.541015625 736.048828125 987.440429688 767.2578125 1021.66210938 787.5 c 1
 870.00390625 787.5 l 1
1870.00390625 787.5 m 1
 1904.22558594 767.2578125 1931.12304688 736.048828125 1945.83203125 698.646484375 c 1
 1960.54101562 736.048828125 1987.43945312 767.2578125 2021.66210938 787.5 c 1
 1870.00390625 787.5 l 1
870.00390625 620.83203125 m 1
 904.225585938 600.590820312 931.12109375 569.380859375 945.830078125 531.978515625 c 1
 960.5390625 569.381835938 987.439453125 600.58984375 1021.66210938 620.83203125 c 1
 870.00390625 620.83203125 l 1
125 375.830078125 m 1
 125 224.169921875 l 1
 145.243164062 258.393554688 176.453125 285.291015625 213.857421875 300 c 1
 176.453125 314.708984375 145.243164062 341.606445312 125 375.830078125 c 1
291.66796875 375.830078125 m 1
 291.66796875 224.169921875 l 1
 311.91015625 258.392578125 343.118164062 285.291015625 380.521484375 300 c 1
 343.118164062 314.708984375 311.91015625 341.607421875 291.66796875 375.830078125 c 1
1125 375.830078125 m 1
 1125 224.169921875 l 1
 1145.24316406 258.393554688 1176.453125 285.291015625 1213.85742188 300 c 1
 1176.453125 314.708984375 1145.24316406 341.606445312 1125 375.830078125 c 1
1291.66796875 375.830078125 m 1
 1291.66796875 224.169921875 l 1
 1311.91015625 258.392578125 1343.11816406 285.291015625 1380.52148438 300 c 1
 1343.11816406 314.708984375 1311.91015625 341.607421875 1291.66796875 375.830078125 c 1
445.83203125 287.5 m 2
 360.541015625 287.5 291.66796875 218.623046875 291.66796875 133.33203125 c 0
 291.66796875 48.041015625 360.541015625 -20.83203125 445.83203125 -20.83203125 c 2
 933.33203125 -20.83203125 l 1
 933.33203125 287.5 l 1
 445.83203125 287.5 l 2
266.66796875 286.955078125 m 1
 187.252929688 280.608398438 125 214.41015625 125 133.33203125 c 0
 125 52.25390625 187.252929688 -13.9404296875 266.66796875 -20.287109375 c 1
 266.66796875 133.33203125 l 1
 266.66796875 286.955078125 l 1
125 42.49609375 m 1
 125 -109.162109375 l 1
 145.2421875 -74.939453125 176.452148438 -48.041015625 213.85546875 -33.33203125 c 1
 176.452148438 -18.623046875 145.2421875 8.2734375 125 42.49609375 c 1
291.66796875 42.494140625 m 1
 291.66796875 -109.162109375 l 1
 311.91015625 -74.939453125 343.118164062 -48.041015625 380.521484375 -33.33203125 c 1
 343.119140625 -18.6240234375 311.909179688 8.2724609375 291.66796875 42.494140625 c 1
EndSplineSet
EndChar

StartChar: U12323
Encoding: 260 74531 4
Width: 1212
VWidth: 100
Flags: W
HStem: 120.832 25<220.777 266.668 385.762 933.332> 454.168 25<220.777 266.668 385.762 933.332> 787.5 25<779.168 839.238 870.004 1021.66 1052.43 1112.5>
VStem: 100 25<-33.332 27.284 57.5039 209.162 239.383 360.617 390.838 542.496 572.716 633.332> 266.668 25<-33.332 26.7383 57.5039 120.287 146.377 209.162 239.929 360.071 390.838 453.623 479.713 542.494 573.262 633.332> 523.984 24.3231<-121.932 -30.3984 628.068 719.602> 933.332 25<-200 120.832 145.832 454.168 479.168 693.403>
LayerCount: 2
Fore
SplineSet
779.16796875 812.5 m 1
 1112.5 812.5 l 1
 1112.5 787.5 l 1
 1027.20898438 787.5 958.33203125 718.623046875 958.33203125 633.33203125 c 2
 958.33203125 -200 l 1
 933.33203125 -200 l 1
 933.33203125 120.83203125 l 1
 445.83203125 120.83203125 l 2
 360.540039062 120.83203125 291.66796875 51.958984375 291.66796875 -33.33203125 c 1
 266.66796875 -33.33203125 l 1
 266.66796875 120.287109375 l 1
 187.252929688 113.940429688 125 47.74609375 125 -33.33203125 c 1
 100 -33.33203125 l 1
 100 300 l 1
 100 633.33203125 l 1
 125 633.33203125 l 1
 125 552.25390625 187.252929688 486.059570312 266.66796875 479.712890625 c 1
 266.66796875 633.33203125 l 1
 291.66796875 633.33203125 l 1
 291.66796875 548.041015625 360.541015625 479.16796875 445.83203125 479.16796875 c 2
 933.33203125 479.16796875 l 1
 933.33203125 633.33203125 l 2
 933.33203125 718.623046875 864.458984375 787.5 779.16796875 787.5 c 1
 779.16796875 812.5 l 1
582.828125 808.837890625 m 1
 600.505859375 791.162109375 l 1
 561.168728301 751.824978301 548.306723089 714.118016556 548.306723089 680.452860087 c 0
 548.306723089 663.151285066 551.703904094 646.917253083 556.650390625 632.078125 c 0
 571.221679688 588.365234375 600.505859375 558.837890625 600.505859375 558.837890625 c 1
 582.828125 541.162109375 l 1
 448.990234375 675 l 1
 582.828125 808.837890625 l 1
870.00390625 787.5 m 1
 904.225585938 767.2578125 931.123046875 736.048828125 945.83203125 698.646484375 c 1
 960.541015625 736.048828125 987.440429688 767.2578125 1021.66210938 787.5 c 1
 870.00390625 787.5 l 1
529.306640625 719.962890625 m 1
 484.345703125 675 l 1
 531.9609375 627.3828125 l 1
 527.083999148 642.959839875 523.983668983 660.278504134 523.983668983 678.693723324 c 0
 523.983668983 691.961332037 525.592978096 705.798136852 529.306640625 719.962890625 c 1
125 542.49609375 m 1
 125 390.837890625 l 1
 145.2421875 425.060546875 176.452148438 451.958984375 213.85546875 466.66796875 c 1
 176.452148438 481.376953125 145.2421875 508.2734375 125 542.49609375 c 1
291.66796875 542.494140625 m 1
 291.66796875 390.837890625 l 1
 311.91015625 425.060546875 343.118164062 451.958984375 380.521484375 466.66796875 c 1
 343.119140625 481.375976562 311.909179688 508.272460938 291.66796875 542.494140625 c 1
445.83203125 454.16796875 m 2
 360.541015625 454.16796875 291.66796875 385.291015625 291.66796875 300 c 0
 291.66796875 214.708984375 360.541015625 145.83203125 445.83203125 145.83203125 c 2
 933.33203125 145.83203125 l 1
 933.33203125 454.16796875 l 1
 445.83203125 454.16796875 l 2
266.66796875 453.623046875 m 1
 187.252929688 447.276367188 125 381.078125 125 300 c 0
 125 218.921875 187.252929688 152.723632812 266.66796875 146.376953125 c 1
 266.66796875 300 l 1
 266.66796875 453.623046875 l 1
125 209.162109375 m 1
 125 57.50390625 l 1
 145.2421875 91.7255859375 176.451171875 118.623046875 213.853515625 133.33203125 c 1
 176.451171875 148.041015625 145.2421875 174.940429688 125 209.162109375 c 1
291.66796875 209.162109375 m 1
 291.66796875 57.50390625 l 1
 311.909179688 91.7255859375 343.119140625 118.62109375 380.521484375 133.330078125 c 1
 343.118164062 148.0390625 311.91015625 174.939453125 291.66796875 209.162109375 c 1
582.828125 58.837890625 m 1
 600.505859375 41.162109375 l 1
 561.168728301 1.82497830145 548.306723089 -35.8819834439 548.306723089 -69.5471399126 c 0
 548.306723089 -86.8487149336 551.703904094 -103.082746917 556.650390625 -117.921875 c 0
 571.221679688 -161.634765625 600.505859375 -191.162109375 600.505859375 -191.162109375 c 1
 582.828125 -208.837890625 l 1
 448.990234375 -75 l 1
 582.828125 58.837890625 l 1
529.306640625 -30.037109375 m 1
 484.345703125 -75 l 1
 531.9609375 -122.6171875 l 1
 527.083999148 -107.040160125 523.983668983 -89.7214958659 523.983668983 -71.3062766762 c 0
 523.983668983 -58.0386679626 525.592978096 -44.2018631476 529.306640625 -30.037109375 c 1
EndSplineSet
EndChar

StartChar: U12253
Encoding: 261 74323 5
Width: 1712
VWidth: 100
Flags: W
HStem: -45.832 25<885.762 1433.33> 120.875 25<219.071 766.668> 287.5 25<1109.66 1155.55 1274.65 1433.33> 454.125 25<219.071 766.668> 620.832 25<885.762 1432.79> 787.5 25<1279.17 1339.78 1370 1521.66 1552.43 1612.5>
VStem: 100 25<-33.25 26.8043 57.5762 209.174 239.946 360.054 390.826 542.424 573.196 633.25> 766.668 25<-200 -139.929 -109.162 42.4941 73.2617 120.875 479.125 526.738 557.504 709.162 739.929 800> 988.891 25<133.332 193.949 224.17 375.83 406.051 466.668> 1155.55 25<133.332 193.403 224.17 286.955 313.045 375.83 406.597 466.668> 1433.33 25<-200 -45.832 -20.832 287.5 312.5 620.832 645.832 691.723>
LayerCount: 2
Fore
SplineSet
1279.16796875 812.5 m 1
 1612.5 812.5 l 1
 1612.5 787.5 l 1
 1527.20898438 787.5 1458.33203125 718.623046875 1458.33203125 633.33203125 c 2
 1458.33203125 -200 l 1
 1433.33203125 -200 l 1
 1433.33203125 -45.83203125 l 1
 945.83203125 -45.83203125 l 2
 860.541015625 -45.83203125 791.66796875 -114.708984375 791.66796875 -200 c 1
 766.66796875 -200 l 1
 766.66796875 120.875 l 1
 279.125 120.875 l 2
 193.857421875 120.875 125 52.017578125 125 -33.25 c 1
 100 -33.25 l 1
 100 300 l 1
 100 633.25 l 1
 125 633.25 l 1
 125 547.982421875 193.857421875 479.125 279.125 479.125 c 2
 766.66796875 479.125 l 1
 766.66796875 800 l 1
 791.66796875 800 l 1
 791.66796875 714.708984375 860.541015625 645.83203125 945.83203125 645.83203125 c 2
 1432.78515625 645.83203125 l 1
 1426.43847656 725.247070312 1360.24609375 787.5 1279.16796875 787.5 c 1
 1279.16796875 812.5 l 1
1370.00390625 787.5 m 1
 1404.22558594 767.2578125 1431.12304688 736.048828125 1445.83203125 698.646484375 c 1
 1460.54101562 736.048828125 1487.43945312 767.2578125 1521.66210938 787.5 c 1
 1370.00390625 787.5 l 1
791.66796875 709.162109375 m 1
 791.66796875 557.50390625 l 1
 811.909179688 591.725585938 843.119140625 618.62109375 880.521484375 633.330078125 c 1
 843.118164062 648.0390625 811.91015625 674.939453125 791.66796875 709.162109375 c 1
945.83203125 620.83203125 m 2
 860.541015625 620.83203125 791.66796875 551.958984375 791.66796875 466.66796875 c 1
 779.16796875 466.66796875 l 1
 779.16796875 454.125 l 1
 279.125 454.125 l 2
 193.857421875 454.125 125 385.267578125 125 300 c 0
 125 214.732421875 193.857421875 145.875 279.125 145.875 c 2
 779.16796875 145.875 l 1
 779.16796875 133.33203125 l 1
 791.66796875 133.33203125 l 1
 791.66796875 48.041015625 860.541015625 -20.83203125 945.83203125 -20.83203125 c 2
 1433.33203125 -20.83203125 l 1
 1433.33203125 287.5 l 1
 1334.72265625 287.5 l 2
 1249.43164062 287.5 1180.5546875 218.623046875 1180.5546875 133.33203125 c 1
 1155.5546875 133.33203125 l 1
 1155.5546875 286.955078125 l 1
 1076.140625 280.608398438 1013.890625 214.41015625 1013.890625 133.33203125 c 1
 988.890625 133.33203125 l 1
 988.890625 466.66796875 l 1
 1013.890625 466.66796875 l 1
 1013.890625 385.58984375 1076.140625 319.391601562 1155.5546875 313.044921875 c 1
 1155.5546875 466.66796875 l 1
 1180.5546875 466.66796875 l 1
 1180.5546875 381.376953125 1249.43164062 312.5 1334.72265625 312.5 c 2
 1433.33203125 312.5 l 1
 1433.33203125 620.83203125 l 1
 945.83203125 620.83203125 l 2
125 542.423828125 m 1
 125 390.826171875 l 1
 145.236328125 425.034179688 176.434570312 451.919921875 213.822265625 466.625 c 1
 176.434570312 481.330078125 145.236328125 508.215820312 125 542.423828125 c 1
1013.890625 375.830078125 m 1
 1013.890625 224.169921875 l 1
 1034.1328125 258.393554688 1065.34277344 285.291015625 1102.74609375 300 c 1
 1065.34277344 314.708984375 1034.1328125 341.606445312 1013.890625 375.830078125 c 1
1180.5546875 375.830078125 m 1
 1180.5546875 224.169921875 l 1
 1200.79785156 258.393554688 1232.0078125 285.291015625 1269.41210938 300 c 1
 1232.0078125 314.708984375 1200.79785156 341.606445312 1180.5546875 375.830078125 c 1
125 209.173828125 m 1
 125 57.576171875 l 1
 145.236328125 91.7841796875 176.434570312 118.669921875 213.822265625 133.375 c 1
 176.435546875 148.080078125 145.236328125 174.966796875 125 209.173828125 c 1
791.66796875 42.494140625 m 1
 791.66796875 -109.162109375 l 1
 811.91015625 -74.939453125 843.118164062 -48.041015625 880.521484375 -33.33203125 c 1
 843.119140625 -18.6240234375 811.909179688 8.2724609375 791.66796875 42.494140625 c 1
EndSplineSet
EndChar

StartChar: U12259
Encoding: 262 74329 6
Width: 1712
VWidth: 100
Flags: W
HStem: -45.832 25<802.429 1433.33> 120.875 25<219.071 683.332> 287.5 25<901.796 1058.33 1083.33 1241.67 1266.67 1345.83> 454.125 25<219.071 683.332> 520.832 25<795.832 838.569 863.314 911.686 936.431 1021.9 1046.65 1095.02 1119.76 1205.24 1229.98 1278.35 1303.1 1345.83> 620.832 25<802.429 1432.79> 787.5 25<1279.17 1339.78 1370 1521.66 1552.43 1612.5>
VStem: 100 25<-33.25 26.8043 57.5762 209.174 239.946 360.054 390.826 542.424 573.196 633.25> 683.332 25<-200 -139.929 -109.162 42.4961 73.2617 120.875 479.125 526.738 557.504 709.162 739.929 800> 783.332 25<133.332 193.684 224.17 375.83 406.316 466.668> 875 25<66.668 260.33 339.67 484.402> 1058.33 25<66.668 287.5 312.5 484.402> 1241.67 25<66.668 287.5 312.5 484.402> 1433.33 25<-200 -45.832 -20.832 620.832 645.832 691.723>
LayerCount: 2
Fore
SplineSet
1279.16796875 812.5 m 1
 1612.5 812.5 l 1
 1612.5 787.5 l 1
 1527.20898438 787.5 1458.33203125 718.623046875 1458.33203125 633.33203125 c 2
 1458.33203125 -200 l 1
 1433.33203125 -200 l 1
 1433.33203125 -45.83203125 l 1
 862.5 -45.83203125 l 2
 777.208984375 -45.83203125 708.33203125 -114.708984375 708.33203125 -200 c 1
 683.33203125 -200 l 1
 683.33203125 120.875 l 1
 279.125 120.875 l 2
 193.857421875 120.875 125 52.017578125 125 -33.25 c 1
 100 -33.25 l 1
 100 300 l 1
 100 633.25 l 1
 125 633.25 l 1
 125 547.982421875 193.857421875 479.125 279.125 479.125 c 2
 683.33203125 479.125 l 1
 683.33203125 800 l 1
 708.33203125 800 l 1
 708.33203125 714.708984375 777.208984375 645.83203125 862.5 645.83203125 c 2
 1432.78515625 645.83203125 l 1
 1426.43847656 725.247070312 1360.24609375 787.5 1279.16796875 787.5 c 1
 1279.16796875 812.5 l 1
1370.00390625 787.5 m 1
 1404.22558594 767.2578125 1431.12304688 736.048828125 1445.83203125 698.646484375 c 1
 1460.54101562 736.048828125 1487.43945312 767.2578125 1521.66210938 787.5 c 1
 1370.00390625 787.5 l 1
708.33203125 709.162109375 m 1
 708.33203125 557.50390625 l 1
 728.57421875 591.725585938 759.783203125 618.623046875 797.185546875 633.33203125 c 1
 759.783203125 648.041015625 728.57421875 674.940429688 708.33203125 709.162109375 c 1
862.5 620.83203125 m 2
 777.208007812 620.83203125 708.33203125 551.958984375 708.33203125 466.66796875 c 1
 695.83203125 466.66796875 l 1
 695.83203125 454.125 l 1
 279.125 454.125 l 2
 193.857421875 454.125 125 385.267578125 125 300 c 0
 125 214.732421875 193.857421875 145.875 279.125 145.875 c 2
 695.83203125 145.875 l 1
 695.83203125 133.33203125 l 1
 708.33203125 133.33203125 l 1
 708.33203125 48.041015625 777.208007812 -20.83203125 862.5 -20.83203125 c 2
 1433.33203125 -20.83203125 l 1
 1433.33203125 620.83203125 l 1
 862.5 620.83203125 l 2
795.83203125 545.83203125 m 1
 979.16796875 545.83203125 l 1
 1162.5 545.83203125 l 1
 1345.83203125 545.83203125 l 1
 1345.83203125 520.83203125 l 1
 1301.96289062 520.83203125 1266.66796875 485.537109375 1266.66796875 441.66796875 c 2
 1266.66796875 312.5 l 1
 1345.83203125 312.5 l 1
 1345.83203125 287.5 l 1
 1266.66796875 287.5 l 1
 1266.66796875 66.66796875 l 1
 1241.66796875 66.66796875 l 1
 1241.66796875 287.5 l 1
 1083.33203125 287.5 l 1
 1083.33203125 66.66796875 l 1
 1058.33203125 66.66796875 l 1
 1058.33203125 287.5 l 1
 962.5 287.5 l 2
 940.229492188 287.5 919.098632812 282.766601562 900 274.30859375 c 1
 900 66.66796875 l 1
 875 66.66796875 l 1
 875 260.330078125 l 1
 834.705078125 232.549804688 808.33203125 186.092773438 808.33203125 133.33203125 c 1
 783.33203125 133.33203125 l 1
 783.33203125 466.66796875 l 1
 808.33203125 466.66796875 l 1
 808.33203125 413.907226562 834.705078125 367.450195312 875 339.669921875 c 1
 875 441.66796875 l 2
 875 485.537109375 839.706054688 520.83203125 795.83203125 520.83203125 c 1
 795.83203125 545.83203125 l 1
125 542.423828125 m 1
 125 390.826171875 l 1
 145.236328125 425.034179688 176.434570312 451.919921875 213.822265625 466.625 c 1
 176.434570312 481.330078125 145.236328125 508.215820312 125 542.423828125 c 1
863.314453125 520.83203125 m 1
 873.084960938 512.48828125 881.338867188 502.420898438 887.5 491.04296875 c 1
 893.661132812 502.420898438 901.915039062 512.48828125 911.685546875 520.83203125 c 1
 863.314453125 520.83203125 l 1
979.16796875 520.83203125 m 0
 935.293945312 520.83203125 900 485.537109375 900 441.66796875 c 2
 900 325.69140625 l 1
 919.098632812 317.233398438 940.229492188 312.5 962.5 312.5 c 2
 1058.33203125 312.5 l 1
 1058.33203125 441.66796875 l 2
 1058.33203125 485.537109375 1023.03808594 520.83203125 979.16796875 520.83203125 c 0
1046.6484375 520.83203125 m 1
 1056.41894531 512.48828125 1064.671875 502.419921875 1070.83203125 491.041015625 c 1
 1076.99316406 502.419921875 1085.24609375 512.48828125 1095.01757812 520.83203125 c 1
 1046.6484375 520.83203125 l 1
1162.5 520.83203125 m 0
 1118.63085938 520.83203125 1083.33203125 485.537109375 1083.33203125 441.66796875 c 2
 1083.33203125 312.5 l 1
 1241.66796875 312.5 l 1
 1241.66796875 441.66796875 l 2
 1241.66796875 485.537109375 1206.36914062 520.83203125 1162.5 520.83203125 c 0
1229.98046875 520.83203125 m 1
 1239.75195312 512.48828125 1248.00683594 502.419921875 1254.16796875 491.041015625 c 1
 1260.328125 502.419921875 1268.58105469 512.48828125 1278.3515625 520.83203125 c 1
 1229.98046875 520.83203125 l 1
808.33203125 375.830078125 m 1
 808.33203125 224.169921875 l 1
 824.419921875 251.369140625 847.453125 273.9140625 875 289.41796875 c 1
 875 310.58203125 l 1
 847.453125 326.0859375 824.419921875 348.630859375 808.33203125 375.830078125 c 1
125 209.173828125 m 1
 125 57.576171875 l 1
 145.236328125 91.7841796875 176.434570312 118.669921875 213.822265625 133.375 c 1
 176.435546875 148.080078125 145.236328125 174.966796875 125 209.173828125 c 1
708.33203125 42.49609375 m 1
 708.33203125 -109.162109375 l 1
 728.57421875 -74.939453125 759.784179688 -48.041015625 797.1875 -33.33203125 c 1
 759.784179688 -18.623046875 728.57421875 8.2734375 708.33203125 42.49609375 c 1
EndSplineSet
EndChar

StartChar: U1201c
Encoding: 263 73756 7
Width: 1712
VWidth: 100
Flags: W
HStem: -87.5 25<852.887 1433.33> 37.5 25<219.097 766.668> 162.5 25<1075.11 1433.33> 412.5 25<1075.11 1433.33> 537.5 25<219.097 766.668> 662.5 25<852.887 1423.56> 787.5 25<1279.17 1337.59 1370 1521.66 1552.43 1612.5>
VStem: 100 25<-116.668 -56.5971 -25.8301 125.83 156.597 216.668 383.332 443.403 474.17 625.83 656.597 716.668> 766.668 25<-200 -148.719 -121.211 -28.7891 -1.28064 37.5 562.5 601.281 628.789 721.211 748.719 800> 988.891 25<50 101.281 128.789 221.211 248.719 351.281 378.789 471.211 498.719 550> 1433.33 25<-200 -87.5 -62.5 162.5 187.5 412.5 437.5 662.057>
LayerCount: 2
Fore
SplineSet
1279.16796875 812.5 m 1
 1612.5 812.5 l 1
 1612.5 787.5 l 1
 1527.20898438 787.5 1458.33203125 718.623046875 1458.33203125 633.33203125 c 2
 1458.33203125 -200 l 1
 1433.33203125 -200 l 1
 1433.33203125 -87.5 l 1
 904.16796875 -87.5 l 2
 841.888671875 -87.5 791.66796875 -137.720703125 791.66796875 -200 c 1
 766.66796875 -200 l 1
 766.66796875 37.5 l 1
 279.16796875 37.5 l 2
 193.876953125 37.5 125 -31.376953125 125 -116.66796875 c 1
 100 -116.66796875 l 1
 100 216.66796875 l 1
 125 216.66796875 l 1
 125 131.376953125 193.876953125 62.5 279.16796875 62.5 c 2
 779.16796875 62.5 l 1
 779.16796875 50 l 1
 791.66796875 50 l 1
 791.66796875 -12.279296875 841.888671875 -62.5 904.16796875 -62.5 c 2
 1433.33203125 -62.5 l 1
 1433.33203125 162.5 l 1
 1126.390625 162.5 l 2
 1064.10644531 162.5 1013.890625 112.280273438 1013.890625 50 c 1
 988.890625 50 l 1
 988.890625 300 l 1
 988.890625 550 l 1
 1013.890625 550 l 1
 1013.890625 487.720703125 1064.10644531 437.5 1126.390625 437.5 c 2
 1433.33203125 437.5 l 1
 1433.33203125 633.33203125 l 2
 1433.33203125 643.311523438 1432.35253906 653.053710938 1430.55078125 662.5 c 1
 904.16796875 662.5 l 2
 841.888671875 662.5 791.66796875 612.279296875 791.66796875 550 c 1
 779.16796875 550 l 1
 779.16796875 537.5 l 1
 279.16796875 537.5 l 2
 193.876953125 537.5 125 468.623046875 125 383.33203125 c 1
 100 383.33203125 l 1
 100 716.66796875 l 1
 125 716.66796875 l 1
 125 631.376953125 193.876953125 562.5 279.16796875 562.5 c 2
 766.66796875 562.5 l 1
 766.66796875 800 l 1
 791.66796875 800 l 1
 791.66796875 737.720703125 841.888671875 687.5 904.16796875 687.5 c 2
 1423.56054688 687.5 l 1
 1401.6796875 745.9765625 1345.3828125 787.5 1279.16796875 787.5 c 1
 1279.16796875 812.5 l 1
1370.00390625 787.5 m 1
 1404.22558594 767.2578125 1431.12304688 736.048828125 1445.83203125 698.646484375 c 1
 1460.54101562 736.048828125 1487.43945312 767.2578125 1521.66210938 787.5 c 1
 1370.00390625 787.5 l 1
791.66796875 721.2109375 m 1
 791.66796875 628.7890625 l 1
 805.6875 648.740234375 824.858398438 664.758789062 847.240234375 675 c 1
 824.858398438 685.241210938 805.6875 701.259765625 791.66796875 721.2109375 c 1
125 625.830078125 m 1
 125 474.169921875 l 1
 145.243164062 508.393554688 176.453125 535.291015625 213.857421875 550 c 1
 176.453125 564.708984375 145.243164062 591.606445312 125 625.830078125 c 1
1013.890625 471.2109375 m 1
 1013.890625 378.7890625 l 1
 1027.90917969 398.740234375 1047.08105469 414.758789062 1069.46289062 425 c 1
 1047.08105469 435.241210938 1027.90917969 451.259765625 1013.890625 471.2109375 c 1
1126.390625 412.5 m 2
 1064.10644531 412.5 1013.890625 362.280273438 1013.890625 300 c 0
 1013.890625 237.720703125 1064.10644531 187.5 1126.390625 187.5 c 2
 1433.33203125 187.5 l 1
 1433.33203125 412.5 l 1
 1126.390625 412.5 l 2
1013.890625 221.2109375 m 1
 1013.890625 128.7890625 l 1
 1027.90917969 148.740234375 1047.08105469 164.758789062 1069.46289062 175 c 1
 1047.08105469 185.241210938 1027.90917969 201.259765625 1013.890625 221.2109375 c 1
125 125.830078125 m 1
 125 -25.830078125 l 1
 145.243164062 8.3935546875 176.453125 35.291015625 213.857421875 50 c 1
 176.453125 64.708984375 145.243164062 91.6064453125 125 125.830078125 c 1
791.66796875 -28.7890625 m 1
 791.66796875 -121.2109375 l 1
 805.6875 -101.259765625 824.858398438 -85.2412109375 847.240234375 -75 c 1
 824.858398438 -64.7587890625 805.6875 -48.740234375 791.66796875 -28.7890625 c 1
EndSplineSet
EndChar

StartChar: U120a1
Encoding: 264 73889 8
Width: 2212
VWidth: 100
Flags: W
HStem: -87.5 25<797.329 1322.22> 120.875 25<219.071 711.109 1441.29 1933.33> 162.5 25<797.329 1322.22> 412.5 25<797.329 1322.22> 454.125 25<219.071 711.109 1441.29 1933.33> 662.5 25<797.329 1312.45> 787.5 25<1168.05 1226.48 1258.89 1410.55 1441.32 1501.39 1779.17 1839.24 1870 2021.66 2052.43 2112.5>
VStem: 100 25<-33.25 26.8043 57.5762 209.174 239.946 360.054 390.826 542.424 573.196 633.25> 711.109 25<-200 -148.719 -121.211 -28.7891 -1.28064 101.281 145.875 221.211 248.719 351.281 378.789 454.125 498.719 601.281 628.789 721.211 748.719 800> 1322.22 25<-200 -87.5 -62.5 26.8026 57.5762 162.5 187.5 209.174 239.946 360.054 390.828 412.5 437.5 542.424 573.196 662.057> 1933.33 25<-200 120.875 145.875 454.125 479.125 693.403>
LayerCount: 2
Fore
SplineSet
1168.0546875 812.5 m 1
 1501.390625 812.5 l 1
 1501.390625 787.5 l 1
 1416.09472656 787.5 1347.22265625 718.623046875 1347.22265625 633.33203125 c 2
 1347.22265625 633.25 l 2
 1347.22265625 547.982421875 1416.08007812 479.125 1501.34765625 479.125 c 2
 1933.33203125 479.125 l 1
 1933.33203125 633.33203125 l 2
 1933.33203125 718.623046875 1864.45898438 787.5 1779.16796875 787.5 c 1
 1779.16796875 812.5 l 1
 2112.5 812.5 l 1
 2112.5 787.5 l 1
 2027.20898438 787.5 1958.33203125 718.623046875 1958.33203125 633.33203125 c 2
 1958.33203125 -200 l 1
 1933.33203125 -200 l 1
 1933.33203125 120.875 l 1
 1501.34765625 120.875 l 2
 1416.08007812 120.875 1347.22265625 52.017578125 1347.22265625 -33.25390625 c 2
 1347.22265625 -200 l 1
 1322.22265625 -200 l 1
 1322.22265625 -87.5 l 1
 848.609375 -87.5 l 2
 786.330078125 -87.5 736.109375 -137.720703125 736.109375 -200 c 1
 711.109375 -200 l 1
 711.109375 50 l 1
 711.109375 120.875 l 1
 279.125 120.875 l 2
 193.857421875 120.875 125 52.017578125 125 -33.25 c 1
 100 -33.25 l 1
 100 300 l 1
 100 633.25 l 1
 125 633.25 l 1
 125 547.982421875 193.857421875 479.125 279.125 479.125 c 2
 711.109375 479.125 l 1
 711.109375 550 l 1
 711.109375 800 l 1
 736.109375 800 l 1
 736.109375 737.720703125 786.330078125 687.5 848.609375 687.5 c 2
 1312.45117188 687.5 l 1
 1290.56933594 745.9765625 1234.26953125 787.5 1168.0546875 787.5 c 1
 1168.0546875 812.5 l 1
1258.89257812 787.5 m 1
 1293.11523438 767.2578125 1320.01367188 736.047851562 1334.72265625 698.64453125 c 1
 1349.43164062 736.046875 1376.328125 767.2578125 1410.55078125 787.5 c 1
 1258.89257812 787.5 l 1
1870.00390625 787.5 m 1
 1904.22558594 767.2578125 1931.12304688 736.048828125 1945.83203125 698.646484375 c 1
 1960.54101562 736.048828125 1987.43945312 767.2578125 2021.66210938 787.5 c 1
 1870.00390625 787.5 l 1
736.109375 721.2109375 m 1
 736.109375 628.7890625 l 1
 750.12890625 648.740234375 769.299804688 664.758789062 791.681640625 675 c 1
 769.299804688 685.241210938 750.12890625 701.259765625 736.109375 721.2109375 c 1
848.609375 662.5 m 2
 786.330078125 662.5 736.109375 612.279296875 736.109375 550 c 0
 736.109375 487.720703125 786.330078125 437.5 848.609375 437.5 c 2
 1322.22265625 437.5 l 1
 1322.22265625 633.33203125 l 2
 1322.22265625 643.311523438 1321.24316406 653.053710938 1319.44140625 662.5 c 1
 848.609375 662.5 l 2
125 542.423828125 m 1
 125 390.826171875 l 1
 145.236328125 425.034179688 176.434570312 451.919921875 213.822265625 466.625 c 1
 176.434570312 481.330078125 145.236328125 508.215820312 125 542.423828125 c 1
1347.22265625 542.423828125 m 1
 1347.22265625 390.828125 l 1
 1367.45898438 425.03515625 1398.65820312 451.920898438 1436.04492188 466.625 c 1
 1398.65722656 481.330078125 1367.45898438 508.215820312 1347.22265625 542.423828125 c 1
736.109375 471.2109375 m 1
 736.109375 378.7890625 l 1
 750.12890625 398.740234375 769.299804688 414.758789062 791.681640625 425 c 1
 769.299804688 435.241210938 750.12890625 451.259765625 736.109375 471.2109375 c 1
279.125 454.125 m 2
 193.857421875 454.125 125 385.267578125 125 300 c 0
 125 214.732421875 193.857421875 145.875 279.125 145.875 c 2
 711.109375 145.875 l 1
 711.109375 300 l 1
 711.109375 454.125 l 1
 279.125 454.125 l 2
1501.34765625 454.125 m 2
 1416.08007812 454.125 1347.22265625 385.267578125 1347.22265625 300 c 0
 1347.22265625 214.732421875 1416.08007812 145.875 1501.34765625 145.875 c 2
 1933.33203125 145.875 l 1
 1933.33203125 454.125 l 1
 1501.34765625 454.125 l 2
848.609375 412.5 m 2
 786.330078125 412.5 736.109375 362.279296875 736.109375 300 c 0
 736.109375 237.720703125 786.330078125 187.5 848.609375 187.5 c 2
 1322.22265625 187.5 l 1
 1322.22265625 412.5 l 1
 848.609375 412.5 l 2
736.109375 221.2109375 m 1
 736.109375 128.7890625 l 1
 750.12890625 148.740234375 769.299804688 164.758789062 791.681640625 175 c 1
 769.299804688 185.241210938 750.12890625 201.259765625 736.109375 221.2109375 c 1
125 209.173828125 m 1
 125 57.576171875 l 1
 145.236328125 91.7841796875 176.434570312 118.669921875 213.822265625 133.375 c 1
 176.435546875 148.080078125 145.236328125 174.966796875 125 209.173828125 c 1
1347.22265625 209.173828125 m 1
 1347.22265625 57.576171875 l 1
 1367.45898438 91.7841796875 1398.65820312 118.669921875 1436.04492188 133.375 c 1
 1398.65820312 148.080078125 1367.45898438 174.966796875 1347.22265625 209.173828125 c 1
848.609375 162.5 m 2
 786.330078125 162.5 736.109375 112.279296875 736.109375 50 c 0
 736.109375 -12.279296875 786.330078125 -62.5 848.609375 -62.5 c 2
 1322.22265625 -62.5 l 1
 1322.22265625 -33.25390625 l 1
 1322.22265625 162.5 l 1
 848.609375 162.5 l 2
736.109375 -28.7890625 m 1
 736.109375 -121.2109375 l 1
 750.12890625 -101.259765625 769.299804688 -85.2412109375 791.681640625 -75 c 1
 769.299804688 -64.7587890625 750.12890625 -48.740234375 736.109375 -28.7890625 c 1
EndSplineSet
EndChar

StartChar: Ue00f
Encoding: 265 57359 9
Width: 2212
VWidth: 100
Flags: W
HStem: -87.5 25<797.329 1322.22> -45.832 25<1441.32 1933.33> 37.5 25<219.097 711.109> 162.5 25<1001.03 1322.22> 412.5 25<1001.03 1322.22> 537.5 25<219.097 711.109> 620.832 25<1441.36 1932.79> 662.5 25<797.329 1312.45> 787.5 25<1168.05 1226.48 1258.89 1322.22 1347.77 1410.55 1441.36 1501.39 1779.17 1839.78 1870 2021.66 2052.43 2112.5>
VStem: 100 25<-116.668 -56.5971 -25.8301 125.83 156.597 216.668 383.332 443.403 474.17 625.83 656.597 716.668> 711.109 25<-200 -148.719 -121.211 -28.7891 -1.28064 37.5 562.5 601.281 628.789 721.211 748.719 800> 914.816 25<50 101.281 128.789 221.211 248.719 351.281 378.789 471.211 498.719 550> 1322.22 25<-200 -139.929 -109.162 -87.5 -62.5 42.4941 73.2617 162.5 187.5 412.5 437.5 526.738 557.504 661.848 742.001 787.5> 1482.32 24.324<128.067 219.602 378.067 469.602> 1787.87 24.3245<128.068 219.602 378.068 469.602> 1933.33 25<-200 -45.832 -20.832 620.832 645.832 691.723>
LayerCount: 2
Fore
SplineSet
1168.0546875 812.5 m 1
 1501.390625 812.5 l 1
 1501.390625 787.5 l 1
 1446.83300781 787.5 1399.03027344 759.295898438 1371.63671875 716.666015625 c 1
 1399.03027344 674.036132812 1446.83398438 645.83203125 1501.390625 645.83203125 c 2
 1932.78515625 645.83203125 l 1
 1926.43847656 725.247070312 1860.24609375 787.5 1779.16796875 787.5 c 1
 1779.16796875 812.5 l 1
 2112.5 812.5 l 1
 2112.5 787.5 l 1
 2027.20898438 787.5 1958.33203125 718.623046875 1958.33203125 633.33203125 c 2
 1958.33203125 -200 l 1
 1933.33203125 -200 l 1
 1933.33203125 -45.83203125 l 1
 1501.390625 -45.83203125 l 2
 1416.09570312 -45.83203125 1347.22265625 -114.708984375 1347.22265625 -200 c 1
 1322.22265625 -200 l 1
 1322.22265625 -87.5 l 1
 848.609375 -87.5 l 2
 786.330078125 -87.5 736.109375 -137.720703125 736.109375 -200 c 1
 711.109375 -200 l 1
 711.109375 37.5 l 1
 279.16796875 37.5 l 2
 193.876953125 37.5 125 -31.376953125 125 -116.66796875 c 1
 100 -116.66796875 l 1
 100 216.66796875 l 1
 125 216.66796875 l 1
 125 131.376953125 193.876953125 62.5 279.16796875 62.5 c 2
 723.609375 62.5 l 1
 723.609375 50 l 1
 736.109375 50 l 1
 736.109375 -12.279296875 786.330078125 -62.5 848.609375 -62.5 c 2
 1322.22265625 -62.5 l 1
 1322.22265625 162.5 l 1
 1052.31640625 162.5 l 2
 990.032226562 162.5 939.81640625 112.280273438 939.81640625 50 c 1
 914.81640625 50 l 1
 914.81640625 300 l 1
 914.81640625 550 l 1
 939.81640625 550 l 1
 939.81640625 487.720703125 990.032226562 437.5 1052.31640625 437.5 c 2
 1322.22265625 437.5 l 1
 1322.22265625 466.66796875 l 1
 1322.22265625 633.33203125 l 2
 1322.22265625 643.311523438 1321.24316406 653.053710938 1319.44140625 662.5 c 1
 848.609375 662.5 l 2
 786.330078125 662.5 736.109375 612.279296875 736.109375 550 c 1
 723.609375 550 l 1
 723.609375 537.5 l 1
 279.16796875 537.5 l 2
 193.876953125 537.5 125 468.623046875 125 383.33203125 c 1
 100 383.33203125 l 1
 100 716.66796875 l 1
 125 716.66796875 l 1
 125 631.376953125 193.876953125 562.5 279.16796875 562.5 c 2
 711.109375 562.5 l 1
 711.109375 800 l 1
 736.109375 800 l 1
 736.109375 737.720703125 786.330078125 687.5 848.609375 687.5 c 2
 1312.45117188 687.5 l 1
 1290.56933594 745.9765625 1234.26953125 787.5 1168.0546875 787.5 c 1
 1168.0546875 812.5 l 1
1258.89257812 787.5 m 1
 1284.98730469 772.065429688 1306.80175781 750.241210938 1322.22265625 724.169921875 c 1
 1322.22265625 787.5 l 1
 1258.89257812 787.5 l 1
1347.76953125 787.5 m 1
 1349.06738281 771.260742188 1352.84667969 755.741210938 1358.76757812 741.32421875 c 1
 1372.84082031 759.857421875 1390.41308594 775.588867188 1410.55078125 787.5 c 1
 1347.76953125 787.5 l 1
1870.00390625 787.5 m 1
 1904.22558594 767.2578125 1931.12304688 736.048828125 1945.83203125 698.646484375 c 1
 1960.54101562 736.048828125 1987.43945312 767.2578125 2021.66210938 787.5 c 1
 1870.00390625 787.5 l 1
736.109375 721.2109375 m 1
 736.109375 628.7890625 l 1
 750.12890625 648.740234375 769.299804688 664.758789062 791.681640625 675 c 1
 769.299804688 685.241210938 750.12890625 701.259765625 736.109375 721.2109375 c 1
1358.77148438 692.017578125 m 1
 1351.34277344 673.93359375 1347.22265625 654.127929688 1347.22265625 633.33203125 c 2
 1347.22265625 557.50390625 l 1
 1367.46484375 591.725585938 1398.67285156 618.624023438 1436.07617188 633.33203125 c 1
 1405.17675781 645.483398438 1378.52539062 665.970703125 1358.77148438 692.017578125 c 1
125 625.830078125 m 1
 125 474.169921875 l 1
 145.243164062 508.393554688 176.453125 535.291015625 213.857421875 550 c 1
 176.453125 564.708984375 145.243164062 591.606445312 125 625.830078125 c 1
1501.390625 620.83203125 m 2
 1416.09570312 620.83203125 1347.22265625 551.958984375 1347.22265625 466.66796875 c 2
 1347.22265625 133.33203125 l 2
 1347.22265625 48.041015625 1416.09570312 -20.83203125 1501.390625 -20.83203125 c 2
 1933.33203125 -20.83203125 l 1
 1933.33203125 620.83203125 l 1
 1501.390625 620.83203125 l 2
1541.16210938 558.837890625 m 1
 1558.83789062 541.162109375 l 1
 1519.50164429 501.825863039 1506.64018503 464.119712704 1506.64018503 430.4551316 c 0
 1506.64018503 413.152705969 1510.037672 396.917902487 1514.984375 382.078125 c 0
 1529.55566406 338.365234375 1558.83789062 308.837890625 1558.83789062 308.837890625 c 1
 1550 300 l 1
 1558.83789062 291.162109375 l 1
 1519.50164429 251.825863039 1506.64018503 214.119712704 1506.64018503 180.4551316 c 0
 1506.64018503 163.152705969 1510.037672 146.917902487 1514.984375 132.078125 c 0
 1529.55566406 88.365234375 1558.83789062 58.837890625 1558.83789062 58.837890625 c 1
 1541.16210938 41.162109375 l 1
 1407.32226562 175 l 1
 1532.32421875 300 l 1
 1407.32226562 425 l 1
 1541.16210938 558.837890625 l 1
1846.71484375 558.837890625 m 1
 1864.39257812 541.162109375 l 1
 1825.05633179 501.825863039 1812.19487253 464.119712704 1812.19487253 430.4551316 c 0
 1812.19487253 413.152705969 1815.5923595 396.917902487 1820.5390625 382.078125 c 0
 1835.109375 338.365234375 1864.39257812 308.837890625 1864.39257812 308.837890625 c 1
 1855.5546875 300 l 1
 1864.39257812 291.162109375 l 1
 1825.05633179 251.825863039 1812.19487253 214.119712704 1812.19487253 180.4551316 c 0
 1812.19487253 163.152705969 1815.5923595 146.917902487 1820.5390625 132.078125 c 0
 1835.109375 88.365234375 1864.39257812 58.837890625 1864.39257812 58.837890625 c 1
 1846.71484375 41.162109375 l 1
 1712.87695312 175 l 1
 1837.87695312 300 l 1
 1712.87695312 425 l 1
 1846.71484375 558.837890625 l 1
939.81640625 471.2109375 m 1
 939.81640625 378.7890625 l 1
 953.834960938 398.740234375 973.006835938 414.758789062 995.388671875 425 c 1
 973.006835938 435.241210938 953.834960938 451.259765625 939.81640625 471.2109375 c 1
1487.63867188 469.962890625 m 1
 1442.67578125 425 l 1
 1490.29492188 377.380859375 l 1
 1485.41712028 392.958830882 1482.31614224 410.278980361 1482.31614224 428.695916759 c 0
 1482.31614224 441.962842293 1483.92532176 455.798919568 1487.63867188 469.962890625 c 1
1793.19335938 469.962890625 m 1
 1748.23242188 425 l 1
 1795.84765625 377.3828125 l 1
 1790.9707179 392.959839875 1787.87038773 410.278504134 1787.87038773 428.693723324 c 0
 1787.87038773 441.961332037 1789.47969685 455.798136852 1793.19335938 469.962890625 c 1
1052.31640625 412.5 m 2
 990.032226562 412.5 939.81640625 362.280273438 939.81640625 300 c 0
 939.81640625 237.720703125 990.032226562 187.5 1052.31640625 187.5 c 2
 1322.22265625 187.5 l 1
 1322.22265625 412.5 l 1
 1052.31640625 412.5 l 2
939.81640625 221.2109375 m 1
 939.81640625 128.7890625 l 1
 953.834960938 148.740234375 973.006835938 164.758789062 995.388671875 175 c 1
 973.006835938 185.241210938 953.834960938 201.259765625 939.81640625 221.2109375 c 1
1487.63867188 219.962890625 m 1
 1442.67578125 175 l 1
 1490.29492188 127.380859375 l 1
 1485.41712028 142.958830882 1482.31614224 160.278980361 1482.31614224 178.695916759 c 0
 1482.31614224 191.962842293 1483.92532176 205.798919568 1487.63867188 219.962890625 c 1
1793.19335938 219.962890625 m 1
 1748.23242188 175 l 1
 1795.84765625 127.3828125 l 1
 1790.9707179 142.959839875 1787.87038773 160.278504134 1787.87038773 178.693723324 c 0
 1787.87038773 191.961332037 1789.47969685 205.798136852 1793.19335938 219.962890625 c 1
125 125.830078125 m 1
 125 -25.830078125 l 1
 145.243164062 8.3935546875 176.453125 35.291015625 213.857421875 50 c 1
 176.453125 64.708984375 145.243164062 91.6064453125 125 125.830078125 c 1
1347.22265625 42.494140625 m 1
 1347.22265625 -109.162109375 l 1
 1367.46484375 -74.939453125 1398.67285156 -48.041015625 1436.07617188 -33.33203125 c 1
 1398.67382812 -18.6240234375 1367.46484375 8.2724609375 1347.22265625 42.494140625 c 1
736.109375 -28.7890625 m 1
 736.109375 -121.2109375 l 1
 750.12890625 -101.259765625 769.299804688 -85.2412109375 791.681640625 -75 c 1
 769.299804688 -64.7587890625 750.12890625 -48.740234375 736.109375 -28.7890625 c 1
EndSplineSet
EndChar

StartChar: U12362
Encoding: 266 74594 10
Width: 1712
VWidth: 100
Flags: W
HStem: -45.832 25<885.762 1433.33> 37.5 25<219.097 766.668> 170.832 25<948.345 1100 1125 1345.83> 404.168 25<948.345 1086.81 1138.19 1345.83> 520.832 25<945.832 1006.78 1036.67 1188.33 1218.22 1279.17> 537.5 25<219.097 766.668> 620.832 25<885.762 1432.79> 787.5 25<1279.17 1339.78 1370 1521.66 1552.43 1612.5>
VStem: 100 25<-116.668 -56.5971 -25.8301 125.83 156.597 216.668 383.332 443.403 474.17 625.83 656.597 716.668> 766.668 25<-200 -139.929 -109.162 37.5 73.2617 133.332 466.668 526.738 562.5 709.162 739.929 800> 866.668 25<66.668 114.155 142.697 223.967 252.512 347.488 376.033 457.303 485.845 533.332> 1100 25<66.668 170.832 195.832 403.605> 1433.33 25<-200 -45.832 -20.832 620.832 645.832 691.723>
LayerCount: 2
Fore
SplineSet
1279.16796875 812.5 m 1xf7f8
 1612.5 812.5 l 1
 1612.5 787.5 l 1
 1527.20898438 787.5 1458.33203125 718.623046875 1458.33203125 633.33203125 c 2
 1458.33203125 -200 l 1
 1433.33203125 -200 l 1
 1433.33203125 -45.83203125 l 1
 945.83203125 -45.83203125 l 2
 860.541015625 -45.83203125 791.66796875 -114.708984375 791.66796875 -200 c 1
 766.66796875 -200 l 1
 766.66796875 37.5 l 1
 279.16796875 37.5 l 2
 193.876953125 37.5 125 -31.376953125 125 -116.66796875 c 1
 100 -116.66796875 l 1
 100 216.66796875 l 1
 125 216.66796875 l 1
 125 131.376953125 193.876953125 62.5 279.16796875 62.5 c 2
 766.66796875 62.5 l 1
 766.66796875 133.33203125 l 1
 791.66796875 133.33203125 l 1
 791.66796875 48.041015625 860.541015625 -20.83203125 945.83203125 -20.83203125 c 2
 1433.33203125 -20.83203125 l 1
 1433.33203125 620.83203125 l 1
 945.83203125 620.83203125 l 2
 860.541015625 620.83203125 791.66796875 551.958984375 791.66796875 466.66796875 c 1
 766.66796875 466.66796875 l 1
 766.66796875 537.5 l 1
 279.16796875 537.5 l 2
 193.876953125 537.5 125 468.623046875 125 383.33203125 c 1
 100 383.33203125 l 1
 100 716.66796875 l 1
 125 716.66796875 l 1
 125 631.376953125 193.876953125 562.5 279.16796875 562.5 c 2
 766.66796875 562.5 l 1
 766.66796875 800 l 1
 791.66796875 800 l 1
 791.66796875 714.708984375 860.541015625 645.83203125 945.83203125 645.83203125 c 2
 1432.78515625 645.83203125 l 1
 1426.43847656 725.247070312 1360.24609375 787.5 1279.16796875 787.5 c 1
 1279.16796875 812.5 l 1xf7f8
1370.00390625 787.5 m 1
 1404.22558594 767.2578125 1431.12304688 736.048828125 1445.83203125 698.646484375 c 1
 1460.54101562 736.048828125 1487.43945312 767.2578125 1521.66210938 787.5 c 1
 1370.00390625 787.5 l 1
791.66796875 709.162109375 m 1
 791.66796875 557.50390625 l 1
 811.909179688 591.725585938 843.119140625 618.62109375 880.521484375 633.330078125 c 1
 843.118164062 648.0390625 811.91015625 674.939453125 791.66796875 709.162109375 c 1
125 625.830078125 m 1
 125 474.169921875 l 1
 145.243164062 508.393554688 176.453125 535.291015625 213.857421875 550 c 1
 176.453125 564.708984375 145.243164062 591.606445312 125 625.830078125 c 1
945.83203125 545.83203125 m 1xfbf8
 1279.16796875 545.83203125 l 1
 1279.16796875 520.83203125 l 1
 1216.14746094 520.83203125 1162.12597656 483.209960938 1138.19140625 429.16796875 c 1
 1345.83203125 429.16796875 l 1
 1345.83203125 404.16796875 l 1
 1129.59570312 404.16796875 l 1
 1126.60742188 392.165039062 1125 379.609375 1125 366.66796875 c 2
 1125 195.83203125 l 1
 1345.83203125 195.83203125 l 1
 1345.83203125 170.83203125 l 1
 1125 170.83203125 l 1
 1125 66.66796875 l 1
 1100 66.66796875 l 1
 1100 170.83203125 l 1
 995.83203125 170.83203125 l 2
 938.154296875 170.83203125 891.66796875 124.346679688 891.66796875 66.66796875 c 1
 866.66796875 66.66796875 l 1
 866.66796875 300 l 1
 866.66796875 533.33203125 l 1
 891.66796875 533.33203125 l 1
 891.66796875 475.653320312 938.154296875 429.16796875 995.83203125 429.16796875 c 2
 1086.80859375 429.16796875 l 1
 1062.87402344 483.209960938 1008.85253906 520.83203125 945.83203125 520.83203125 c 1
 945.83203125 545.83203125 l 1xfbf8
1036.66992188 520.83203125 m 1
 1070.89257812 500.58984375 1097.79101562 469.381835938 1112.5 431.978515625 c 1
 1127.20898438 469.381835938 1154.10742188 500.58984375 1188.33007812 520.83203125 c 1
 1036.66992188 520.83203125 l 1
891.66796875 457.302734375 m 1
 891.66796875 376.033203125 l 1
 904.35546875 393.361328125 921.212890625 407.384765625 940.79296875 416.66796875 c 1
 921.211914062 425.951171875 904.35546875 439.973632812 891.66796875 457.302734375 c 1
995.83203125 404.16796875 m 2
 938.154296875 404.16796875 891.66796875 357.678710938 891.66796875 300 c 0
 891.66796875 242.322265625 938.154296875 195.83203125 995.83203125 195.83203125 c 2
 1100 195.83203125 l 1
 1100 366.66796875 l 2
 1100 379.609375 1098.39257812 392.165039062 1095.40429688 404.16796875 c 1
 995.83203125 404.16796875 l 2
891.66796875 223.966796875 m 1
 891.66796875 142.697265625 l 1
 904.35546875 160.026367188 921.211914062 174.048828125 940.79296875 183.33203125 c 1
 921.212890625 192.615234375 904.35546875 206.638671875 891.66796875 223.966796875 c 1
125 125.830078125 m 1
 125 -25.830078125 l 1
 145.243164062 8.3935546875 176.453125 35.291015625 213.857421875 50 c 1
 176.453125 64.708984375 145.243164062 91.6064453125 125 125.830078125 c 1
791.66796875 42.494140625 m 1
 791.66796875 -109.162109375 l 1
 811.91015625 -74.939453125 843.118164062 -48.041015625 880.521484375 -33.33203125 c 1
 843.119140625 -18.6240234375 811.909179688 8.2724609375 791.66796875 42.494140625 c 1
EndSplineSet
EndChar

StartChar: U1234f
Encoding: 267 74575 11
Width: 1712
VWidth: 100
Flags: W
HStem: -45.832 25<885.762 1433.33> 37.5 25<219.097 766.668> 537.5 25<219.097 766.668> 620.832 25<885.762 1432.79> 787.5 25<1279.17 1339.78 1370 1521.66 1552.43 1612.5>
VStem: 100 25<-116.668 -56.5971 -25.8301 125.83 156.597 216.668 383.332 443.403 474.17 625.83 656.597 716.668> 766.668 25<-200 -139.929 -109.162 37.5 73.2617 133.332 466.668 526.738 562.5 709.162 739.929 800> 1109.63 24.3245<240.565 370.695> 1433.33 25<-200 -45.832 -20.832 620.832 645.832 691.723>
LayerCount: 2
Fore
SplineSet
1279.16796875 812.5 m 1
 1612.5 812.5 l 1
 1612.5 787.5 l 1
 1527.20898438 787.5 1458.33203125 718.623046875 1458.33203125 633.33203125 c 2
 1458.33203125 -200 l 1
 1433.33203125 -200 l 1
 1433.33203125 -45.83203125 l 1
 945.83203125 -45.83203125 l 2
 860.541015625 -45.83203125 791.66796875 -114.708984375 791.66796875 -200 c 1
 766.66796875 -200 l 1
 766.66796875 37.5 l 1
 279.16796875 37.5 l 2
 193.876953125 37.5 125 -31.376953125 125 -116.66796875 c 1
 100 -116.66796875 l 1
 100 216.66796875 l 1
 125 216.66796875 l 1
 125 131.376953125 193.876953125 62.5 279.16796875 62.5 c 2
 766.66796875 62.5 l 1
 766.66796875 133.33203125 l 1
 791.66796875 133.33203125 l 1
 791.66796875 48.041015625 860.541015625 -20.83203125 945.83203125 -20.83203125 c 2
 1433.33203125 -20.83203125 l 1
 1433.33203125 620.83203125 l 1
 945.83203125 620.83203125 l 2
 860.541015625 620.83203125 791.66796875 551.958984375 791.66796875 466.66796875 c 1
 766.66796875 466.66796875 l 1
 766.66796875 537.5 l 1
 279.16796875 537.5 l 2
 193.876953125 537.5 125 468.623046875 125 383.33203125 c 1
 100 383.33203125 l 1
 100 716.66796875 l 1
 125 716.66796875 l 1
 125 631.376953125 193.876953125 562.5 279.16796875 562.5 c 2
 766.66796875 562.5 l 1
 766.66796875 800 l 1
 791.66796875 800 l 1
 791.66796875 714.708984375 860.541015625 645.83203125 945.83203125 645.83203125 c 2
 1432.78515625 645.83203125 l 1
 1426.43847656 725.247070312 1360.24609375 787.5 1279.16796875 787.5 c 1
 1279.16796875 812.5 l 1
1370.00390625 787.5 m 1
 1404.22558594 767.2578125 1431.12304688 736.048828125 1445.83203125 698.646484375 c 1
 1460.54101562 736.048828125 1487.43945312 767.2578125 1521.66210938 787.5 c 1
 1370.00390625 787.5 l 1
791.66796875 709.162109375 m 1
 791.66796875 557.50390625 l 1
 811.909179688 591.725585938 843.119140625 618.62109375 880.521484375 633.330078125 c 1
 843.118164062 648.0390625 811.91015625 674.939453125 791.66796875 709.162109375 c 1
125 625.830078125 m 1
 125 474.169921875 l 1
 145.243164062 508.393554688 176.453125 535.291015625 213.857421875 550 c 1
 176.453125 564.708984375 145.243164062 591.606445312 125 625.830078125 c 1
1186.9921875 475.505859375 m 1
 1204.66992188 457.830078125 l 1
 1151.44381231 404.60267533 1133.95501216 353.012501135 1133.95501216 307.002045456 c 0
 1133.95501216 283.52433718 1138.50864856 261.499444941 1145.19140625 241.451171875 c 0
 1164.97070312 182.11328125 1204.66992188 142.169921875 1204.66992188 142.169921875 c 1
 1186.9921875 124.4921875 l 1
 1011.49023438 300 l 1
 1186.9921875 475.505859375 l 1
1121.328125 374.486328125 m 1
 1046.84570312 300 l 1
 1126.15039062 220.69140625 l 1
 1124.51074219 224.877929688 1122.93847656 229.154296875 1121.47460938 233.546875 c 0
 1114.2959106 255.083496598 1109.63048561 279.244986321 1109.63048561 305.034969436 c 0
 1109.63048561 327.193877107 1113.07466522 350.554995456 1121.328125 374.486328125 c 1
125 125.830078125 m 1
 125 -25.830078125 l 1
 145.243164062 8.3935546875 176.453125 35.291015625 213.857421875 50 c 1
 176.453125 64.708984375 145.243164062 91.6064453125 125 125.830078125 c 1
791.66796875 42.494140625 m 1
 791.66796875 -109.162109375 l 1
 811.91015625 -74.939453125 843.118164062 -48.041015625 880.521484375 -33.33203125 c 1
 843.119140625 -18.6240234375 811.909179688 8.2724609375 791.66796875 42.494140625 c 1
EndSplineSet
EndChar

StartChar: U12321
Encoding: 268 74529 12
Width: 1712
VWidth: 100
Flags: W
HStem: -45.832 25<885.762 1433.33> 37.5 25<219.097 766.668> 537.5 25<219.097 766.668> 620.832 25<885.762 1432.79> 787.5 25<1279.17 1339.78 1370 1521.66 1552.43 1612.5>
VStem: 100 25<-116.668 -56.5971 -25.8301 125.83 156.597 216.668 383.332 443.403 474.17 625.83 656.597 716.668> 766.668 25<-200 -139.929 -109.162 37.5 73.2617 133.332 466.668 526.738 562.5 709.162 739.929 800> 1109.63 24.3245<240.565 370.695> 1433.33 25<-200 -45.832 -20.832 620.832 645.832 691.723>
LayerCount: 2
Fore
SplineSet
1279.16796875 812.5 m 1
 1612.5 812.5 l 1
 1612.5 787.5 l 1
 1527.20898438 787.5 1458.33203125 718.623046875 1458.33203125 633.33203125 c 2
 1458.33203125 -200 l 1
 1433.33203125 -200 l 1
 1433.33203125 -45.83203125 l 1
 945.83203125 -45.83203125 l 2
 860.541015625 -45.83203125 791.66796875 -114.708984375 791.66796875 -200 c 1
 766.66796875 -200 l 1
 766.66796875 37.5 l 1
 279.16796875 37.5 l 2
 193.876953125 37.5 125 -31.376953125 125 -116.66796875 c 1
 100 -116.66796875 l 1
 100 216.66796875 l 1
 125 216.66796875 l 1
 125 131.376953125 193.876953125 62.5 279.16796875 62.5 c 2
 766.66796875 62.5 l 1
 766.66796875 133.33203125 l 1
 791.66796875 133.33203125 l 1
 791.66796875 48.041015625 860.541015625 -20.83203125 945.83203125 -20.83203125 c 2
 1433.33203125 -20.83203125 l 1
 1433.33203125 620.83203125 l 1
 945.83203125 620.83203125 l 2
 860.541015625 620.83203125 791.66796875 551.958984375 791.66796875 466.66796875 c 1
 766.66796875 466.66796875 l 1
 766.66796875 537.5 l 1
 279.16796875 537.5 l 2
 193.876953125 537.5 125 468.623046875 125 383.33203125 c 1
 100 383.33203125 l 1
 100 716.66796875 l 1
 125 716.66796875 l 1
 125 631.376953125 193.876953125 562.5 279.16796875 562.5 c 2
 766.66796875 562.5 l 1
 766.66796875 800 l 1
 791.66796875 800 l 1
 791.66796875 714.708984375 860.541015625 645.83203125 945.83203125 645.83203125 c 2
 1432.78515625 645.83203125 l 1
 1426.43847656 725.247070312 1360.24609375 787.5 1279.16796875 787.5 c 1
 1279.16796875 812.5 l 1
1370.00390625 787.5 m 1
 1404.22558594 767.2578125 1431.12304688 736.048828125 1445.83203125 698.646484375 c 1
 1460.54101562 736.048828125 1487.43945312 767.2578125 1521.66210938 787.5 c 1
 1370.00390625 787.5 l 1
791.66796875 709.162109375 m 1
 791.66796875 557.50390625 l 1
 811.909179688 591.725585938 843.119140625 618.62109375 880.521484375 633.330078125 c 1
 843.118164062 648.0390625 811.91015625 674.939453125 791.66796875 709.162109375 c 1
125 625.830078125 m 1
 125 474.169921875 l 1
 145.243164062 508.393554688 176.453125 535.291015625 213.857421875 550 c 1
 176.453125 564.708984375 145.243164062 591.606445312 125 625.830078125 c 1
1186.9921875 475.505859375 m 1
 1204.66992188 457.830078125 l 1
 1151.44381231 404.60267533 1133.95501216 353.012501135 1133.95501216 307.002045456 c 0
 1133.95501216 283.52433718 1138.50864856 261.499444941 1145.19140625 241.451171875 c 0
 1164.97070312 182.11328125 1204.66992188 142.169921875 1204.66992188 142.169921875 c 1
 1186.9921875 124.4921875 l 1
 1011.49023438 300 l 1
 1186.9921875 475.505859375 l 1
1121.328125 374.486328125 m 1
 1046.84570312 300 l 1
 1126.15039062 220.69140625 l 1
 1124.51074219 224.877929688 1122.93847656 229.154296875 1121.47460938 233.546875 c 0
 1114.2959106 255.083496598 1109.63048561 279.244986321 1109.63048561 305.034969436 c 0
 1109.63048561 327.193877107 1113.07466522 350.554995456 1121.328125 374.486328125 c 1
125 125.830078125 m 1
 125 -25.830078125 l 1
 145.243164062 8.3935546875 176.453125 35.291015625 213.857421875 50 c 1
 176.453125 64.708984375 145.243164062 91.6064453125 125 125.830078125 c 1
791.66796875 42.494140625 m 1
 791.66796875 -109.162109375 l 1
 811.91015625 -74.939453125 843.118164062 -48.041015625 880.521484375 -33.33203125 c 1
 843.119140625 -18.6240234375 811.909179688 8.2724609375 791.66796875 42.494140625 c 1
EndSplineSet
EndChar

StartChar: U12350
Encoding: 269 74576 13
Width: 1712
VWidth: 100
Flags: W
HStem: -45.832 25<885.762 1433.33> 37.5 25<219.097 766.668> 537.5 25<219.097 766.668> 620.832 25<885.762 1432.79> 787.5 25<1279.17 1339.78 1370 1521.66 1552.43 1612.5>
VStem: 100 25<-116.668 -56.5971 -25.8301 125.83 156.597 216.668 383.332 443.403 474.17 625.83 656.597 716.668> 766.668 25<-200 -139.929 -109.162 37.5 73.2617 133.332 466.668 526.738 562.5 709.162 739.929 800> 1109.63 24.3245<240.565 370.695> 1433.33 25<-200 -45.832 -20.832 620.832 645.832 691.723>
LayerCount: 2
Fore
SplineSet
1279.16796875 812.5 m 1
 1612.5 812.5 l 1
 1612.5 787.5 l 1
 1527.20898438 787.5 1458.33203125 718.623046875 1458.33203125 633.33203125 c 2
 1458.33203125 -200 l 1
 1433.33203125 -200 l 1
 1433.33203125 -45.83203125 l 1
 945.83203125 -45.83203125 l 2
 860.541015625 -45.83203125 791.66796875 -114.708984375 791.66796875 -200 c 1
 766.66796875 -200 l 1
 766.66796875 37.5 l 1
 279.16796875 37.5 l 2
 193.876953125 37.5 125 -31.376953125 125 -116.66796875 c 1
 100 -116.66796875 l 1
 100 216.66796875 l 1
 125 216.66796875 l 1
 125 131.376953125 193.876953125 62.5 279.16796875 62.5 c 2
 766.66796875 62.5 l 1
 766.66796875 133.33203125 l 1
 791.66796875 133.33203125 l 1
 791.66796875 48.041015625 860.541015625 -20.83203125 945.83203125 -20.83203125 c 2
 1433.33203125 -20.83203125 l 1
 1433.33203125 620.83203125 l 1
 945.83203125 620.83203125 l 2
 860.541015625 620.83203125 791.66796875 551.958984375 791.66796875 466.66796875 c 1
 766.66796875 466.66796875 l 1
 766.66796875 537.5 l 1
 279.16796875 537.5 l 2
 193.876953125 537.5 125 468.623046875 125 383.33203125 c 1
 100 383.33203125 l 1
 100 716.66796875 l 1
 125 716.66796875 l 1
 125 631.376953125 193.876953125 562.5 279.16796875 562.5 c 2
 766.66796875 562.5 l 1
 766.66796875 800 l 1
 791.66796875 800 l 1
 791.66796875 714.708984375 860.541015625 645.83203125 945.83203125 645.83203125 c 2
 1432.78515625 645.83203125 l 1
 1426.43847656 725.247070312 1360.24609375 787.5 1279.16796875 787.5 c 1
 1279.16796875 812.5 l 1
1370.00390625 787.5 m 1
 1404.22558594 767.2578125 1431.12304688 736.048828125 1445.83203125 698.646484375 c 1
 1460.54101562 736.048828125 1487.43945312 767.2578125 1521.66210938 787.5 c 1
 1370.00390625 787.5 l 1
791.66796875 709.162109375 m 1
 791.66796875 557.50390625 l 1
 811.909179688 591.725585938 843.119140625 618.62109375 880.521484375 633.330078125 c 1
 843.118164062 648.0390625 811.91015625 674.939453125 791.66796875 709.162109375 c 1
125 625.830078125 m 1
 125 474.169921875 l 1
 145.243164062 508.393554688 176.453125 535.291015625 213.857421875 550 c 1
 176.453125 564.708984375 145.243164062 591.606445312 125 625.830078125 c 1
1186.9921875 475.505859375 m 1
 1204.66992188 457.830078125 l 1
 1151.44381231 404.60267533 1133.95501216 353.012501135 1133.95501216 307.002045456 c 0
 1133.95501216 283.52433718 1138.50864856 261.499444941 1145.19140625 241.451171875 c 0
 1164.97070312 182.11328125 1204.66992188 142.169921875 1204.66992188 142.169921875 c 1
 1186.9921875 124.4921875 l 1
 1011.49023438 300 l 1
 1186.9921875 475.505859375 l 1
1121.328125 374.486328125 m 1
 1046.84570312 300 l 1
 1126.15039062 220.69140625 l 1
 1124.51074219 224.877929688 1122.93847656 229.154296875 1121.47460938 233.546875 c 0
 1114.2959106 255.083496598 1109.63048561 279.244986321 1109.63048561 305.034969436 c 0
 1109.63048561 327.193877107 1113.07466522 350.554995456 1121.328125 374.486328125 c 1
125 125.830078125 m 1
 125 -25.830078125 l 1
 145.243164062 8.3935546875 176.453125 35.291015625 213.857421875 50 c 1
 176.453125 64.708984375 145.243164062 91.6064453125 125 125.830078125 c 1
791.66796875 42.494140625 m 1
 791.66796875 -109.162109375 l 1
 811.91015625 -74.939453125 843.118164062 -48.041015625 880.521484375 -33.33203125 c 1
 843.119140625 -18.6240234375 811.909179688 8.2724609375 791.66796875 42.494140625 c 1
EndSplineSet
EndChar

StartChar: U12261
Encoding: 270 74337 14
Width: 1212
VWidth: 100
Flags: W
HStem: 287.5 25<219.097 357.322 392.676 628.318 653.393 1112.5>
VStem: 100 25<133.332 193.403 224.17 375.83 406.597 466.668> 628.297 24.2637<201.534 287.5 312.5 431.076>
LayerCount: 2
Fore
SplineSet
853.662109375 808.837890625 m 1
 871.337890625 791.162109375 l 1
 707.001072419 626.825291169 652.560421512 464.167988883 652.560421512 319.39814152 c 0
 652.560421512 317.094208886 652.574209682 314.794806603 652.6015625 312.5 c 1
 1112.5 312.5 l 1
 1112.5 287.5 l 1
 653.392578125 287.5 l 1
 656.729492188 226.5390625 669.315429688 169.083984375 686.859375 116.453125 c 0
 748.3046875 -67.8837890625 871.337890625 -191.162109375 871.337890625 -191.162109375 c 1
 853.662109375 -208.837890625 l 1
 357.322265625 287.5 l 1
 279.16796875 287.5 l 2
 193.876953125 287.5 125 218.623046875 125 133.33203125 c 1
 100 133.33203125 l 1
 100 466.66796875 l 1
 125 466.66796875 l 1
 125 381.376953125 193.876953125 312.5 279.16796875 312.5 c 2
 357.322265625 312.5 l 1
 853.662109375 808.837890625 l 1
719.990234375 639.814453125 m 1
 392.67578125 312.5 l 1
 628.318359375 312.5 l 1
 628.303967209 314.214728508 628.2967295 315.931933317 628.2967295 317.651584652 c 0
 628.2967295 418.614553639 653.245232397 528.01074155 719.990234375 639.814453125 c 1
125 375.830078125 m 1
 125 224.169921875 l 1
 145.243164062 258.393554688 176.453125 285.291015625 213.857421875 300 c 1
 176.453125 314.708984375 145.243164062 341.606445312 125 375.830078125 c 1
392.67578125 287.5 m 1
 744.41015625 -64.234375 l 1
 714.987304688 -16.0439453125 685.235351562 42.263671875 663.140625 108.546875 c 0
 644.891601562 163.294921875 632.049804688 223.514648438 628.91015625 287.5 c 1
 392.67578125 287.5 l 1
EndSplineSet
EndChar

StartChar: U12318
Encoding: 271 74520 15
Width: 1712
VWidth: 100
Flags: W
HStem: -45.832 25<885.762 1433.33> 120.875 25<219.071 766.668> 454.125 25<219.071 766.668> 620.832 25<885.762 1339.24 1370 1432.79 1458.88 1521.66 1552.43 1612.5> 787.5 25<1279.17 1339.78 1370 1521.66 1551.88 1612.5>
VStem: 100 25<-33.25 26.8043 57.5762 209.174 239.946 360.054 390.826 542.424 573.196 633.25> 766.668 25<-200 -139.929 -109.162 42.4941 73.2617 120.875 479.125 526.738 557.504 709.162 739.929 800> 887.408 24.325<240.565 370.693> 1109.63 24.3245<240.565 370.695> 1331.85 24.325<240.565 370.693> 1433.33 25<-200 -45.832 -20.832 526.738 645.832 691.723>
LayerCount: 2
Fore
SplineSet
1279.16796875 812.5 m 1
 1612.5 812.5 l 1
 1612.5 787.5 l 1
 1531.421875 787.5 1465.22363281 725.247070312 1458.87695312 645.83203125 c 1
 1612.5 645.83203125 l 1
 1612.5 620.83203125 l 1
 1527.20898438 620.83203125 1458.33203125 551.958984375 1458.33203125 466.66796875 c 2
 1458.33203125 -200 l 1
 1433.33203125 -200 l 1
 1433.33203125 -45.83203125 l 1
 945.83203125 -45.83203125 l 2
 860.541015625 -45.83203125 791.66796875 -114.708984375 791.66796875 -200 c 1
 766.66796875 -200 l 1
 766.66796875 120.875 l 1
 279.125 120.875 l 2
 193.857421875 120.875 125 52.017578125 125 -33.25 c 1
 100 -33.25 l 1
 100 300 l 1
 100 633.25 l 1
 125 633.25 l 1
 125 547.982421875 193.857421875 479.125 279.125 479.125 c 2
 766.66796875 479.125 l 1
 766.66796875 800 l 1
 791.66796875 800 l 1
 791.66796875 714.708984375 860.541015625 645.83203125 945.83203125 645.83203125 c 2
 1432.78515625 645.83203125 l 1
 1426.43847656 725.247070312 1360.24609375 787.5 1279.16796875 787.5 c 1
 1279.16796875 812.5 l 1
1370.00390625 787.5 m 1
 1404.22558594 767.2578125 1431.12304688 736.048828125 1445.83203125 698.646484375 c 1
 1460.54101562 736.048828125 1487.43945312 767.2578125 1521.66210938 787.5 c 1
 1370.00390625 787.5 l 1
791.66796875 709.162109375 m 1
 791.66796875 557.50390625 l 1
 811.909179688 591.725585938 843.119140625 618.62109375 880.521484375 633.330078125 c 1
 843.118164062 648.0390625 811.91015625 674.939453125 791.66796875 709.162109375 c 1
945.83203125 620.83203125 m 2
 860.541015625 620.83203125 791.66796875 551.958984375 791.66796875 466.66796875 c 1
 779.16796875 466.66796875 l 1
 779.16796875 454.125 l 1
 279.125 454.125 l 2
 193.857421875 454.125 125 385.267578125 125 300 c 0
 125 214.732421875 193.857421875 145.875 279.125 145.875 c 2
 779.16796875 145.875 l 1
 779.16796875 133.33203125 l 1
 791.66796875 133.33203125 l 1
 791.66796875 48.041015625 860.541015625 -20.83203125 945.83203125 -20.83203125 c 2
 1433.33203125 -20.83203125 l 1
 1433.33203125 466.66796875 l 2
 1433.33203125 551.959960938 1364.45898438 620.83203125 1279.16796875 620.83203125 c 2
 945.83203125 620.83203125 l 2
1370.00390625 620.83203125 m 1
 1404.2265625 600.58984375 1431.12402344 569.379882812 1445.83203125 531.9765625 c 1
 1460.54101562 569.380859375 1487.43847656 600.58984375 1521.66210938 620.83203125 c 1
 1445.83203125 620.83203125 l 1
 1370.00390625 620.83203125 l 1
125 542.423828125 m 1
 125 390.826171875 l 1
 145.236328125 425.034179688 176.434570312 451.919921875 213.822265625 466.625 c 1
 176.434570312 481.330078125 145.236328125 508.215820312 125 542.423828125 c 1
964.76953125 475.505859375 m 1
 982.44921875 457.830078125 l 1
 929.222228688 404.601794812 911.732874108 353.010794267 911.732874108 306.999762066 c 0
 911.732874108 283.522909117 916.286208962 261.498794989 922.96875 241.451171875 c 0
 942.748046875 182.11328125 982.44921875 142.169921875 982.44921875 142.169921875 c 1
 964.76953125 124.4921875 l 1
 789.267578125 300 l 1
 964.76953125 475.505859375 l 1
1186.9921875 475.505859375 m 1
 1204.66992188 457.830078125 l 1
 1151.44381231 404.60267533 1133.95501216 353.012501135 1133.95501216 307.002045456 c 0
 1133.95501216 283.52433718 1138.50864856 261.499444941 1145.19140625 241.451171875 c 0
 1164.97070312 182.11328125 1204.66992188 142.169921875 1204.66992188 142.169921875 c 1
 1186.9921875 124.4921875 l 1
 1011.49023438 300 l 1
 1186.9921875 475.505859375 l 1
1409.21679688 475.505859375 m 1
 1426.89453125 457.830078125 l 1
 1373.66754119 404.601794812 1356.17818661 353.010794267 1356.17818661 306.999762066 c 0
 1356.17818661 283.522909117 1360.73152146 261.498794989 1367.4140625 241.451171875 c 0
 1387.19335938 182.11328125 1426.89453125 142.169921875 1426.89453125 142.169921875 c 1
 1409.21679688 124.4921875 l 1
 1233.71289062 300 l 1
 1409.21679688 475.505859375 l 1
1121.328125 374.486328125 m 1
 1046.84570312 300 l 1
 1126.15039062 220.69140625 l 1
 1124.51074219 224.877929688 1122.93847656 229.154296875 1121.47460938 233.546875 c 0
 1114.2959106 255.083496598 1109.63048561 279.244986321 1109.63048561 305.034969436 c 0
 1109.63048561 327.193877107 1113.07466522 350.554995456 1121.328125 374.486328125 c 1
899.10546875 374.484375 m 1
 824.623046875 300 l 1
 903.927734375 220.693359375 l 1
 902.2890625 224.879882812 900.715820312 229.155273438 899.251953125 233.546875 c 0
 892.073254345 255.083496598 887.407829361 279.244703803 887.407829361 305.03427384 c 0
 887.407829361 327.192826592 890.852008968 350.553493636 899.10546875 374.484375 c 1
1343.55078125 374.484375 m 1
 1269.06835938 300 l 1
 1348.37304688 220.693359375 l 1
 1346.734375 224.879882812 1345.16113281 229.155273438 1343.69726562 233.546875 c 0
 1336.51856685 255.083496598 1331.85314186 279.244703803 1331.85314186 305.03427384 c 0
 1331.85314186 327.192826592 1335.29732147 350.553493636 1343.55078125 374.484375 c 1
125 209.173828125 m 1
 125 57.576171875 l 1
 145.236328125 91.7841796875 176.434570312 118.669921875 213.822265625 133.375 c 1
 176.435546875 148.080078125 145.236328125 174.966796875 125 209.173828125 c 1
791.66796875 42.494140625 m 1
 791.66796875 -109.162109375 l 1
 811.91015625 -74.939453125 843.118164062 -48.041015625 880.521484375 -33.33203125 c 1
 843.119140625 -18.6240234375 811.909179688 8.2724609375 791.66796875 42.494140625 c 1
EndSplineSet
EndChar

StartChar: U12015
Encoding: 272 73749 16
Width: 1712
VWidth: 100
Flags: W
HStem: -45.832 25<885.762 1433.33> 37.5 25<219.097 766.668> 537.5 25<219.097 766.668> 620.832 25<885.762 1339.24 1370 1432.79 1458.88 1521.66 1552.43 1612.5> 787.5 25<1279.17 1339.78 1370 1521.66 1551.88 1612.5>
VStem: 100 25<-116.668 -56.5971 -25.8301 125.83 156.597 216.668 383.332 443.403 474.17 625.83 656.597 716.668> 766.668 25<-200 -139.929 -109.162 37.5 73.2617 133.332 466.668 526.738 562.5 709.162 739.929 800> 887.408 24.325<240.565 370.693> 1109.63 24.3245<240.565 370.695> 1331.85 24.325<240.565 370.693> 1433.33 25<-200 -45.832 -20.832 526.738 645.832 691.723>
LayerCount: 2
Fore
SplineSet
1279.16796875 812.5 m 1
 1612.5 812.5 l 1
 1612.5 787.5 l 1
 1531.421875 787.5 1465.22363281 725.247070312 1458.87695312 645.83203125 c 1
 1612.5 645.83203125 l 1
 1612.5 620.83203125 l 1
 1527.20898438 620.83203125 1458.33203125 551.958984375 1458.33203125 466.66796875 c 2
 1458.33203125 -200 l 1
 1433.33203125 -200 l 1
 1433.33203125 -45.83203125 l 1
 945.83203125 -45.83203125 l 2
 860.541015625 -45.83203125 791.66796875 -114.708984375 791.66796875 -200 c 1
 766.66796875 -200 l 1
 766.66796875 37.5 l 1
 279.16796875 37.5 l 2
 193.876953125 37.5 125 -31.376953125 125 -116.66796875 c 1
 100 -116.66796875 l 1
 100 216.66796875 l 1
 125 216.66796875 l 1
 125 131.376953125 193.876953125 62.5 279.16796875 62.5 c 2
 766.66796875 62.5 l 1
 766.66796875 133.33203125 l 1
 791.66796875 133.33203125 l 1
 791.66796875 48.041015625 860.541015625 -20.83203125 945.83203125 -20.83203125 c 2
 1433.33203125 -20.83203125 l 1
 1433.33203125 466.66796875 l 2
 1433.33203125 551.959960938 1364.45898438 620.83203125 1279.16796875 620.83203125 c 2
 945.83203125 620.83203125 l 2
 860.541015625 620.83203125 791.66796875 551.958984375 791.66796875 466.66796875 c 1
 766.66796875 466.66796875 l 1
 766.66796875 537.5 l 1
 279.16796875 537.5 l 2
 193.876953125 537.5 125 468.623046875 125 383.33203125 c 1
 100 383.33203125 l 1
 100 716.66796875 l 1
 125 716.66796875 l 1
 125 631.376953125 193.876953125 562.5 279.16796875 562.5 c 2
 766.66796875 562.5 l 1
 766.66796875 800 l 1
 791.66796875 800 l 1
 791.66796875 714.708984375 860.541015625 645.83203125 945.83203125 645.83203125 c 2
 1432.78515625 645.83203125 l 1
 1426.43847656 725.247070312 1360.24609375 787.5 1279.16796875 787.5 c 1
 1279.16796875 812.5 l 1
1370.00390625 787.5 m 1
 1404.22558594 767.2578125 1431.12304688 736.048828125 1445.83203125 698.646484375 c 1
 1460.54101562 736.048828125 1487.43945312 767.2578125 1521.66210938 787.5 c 1
 1370.00390625 787.5 l 1
791.66796875 709.162109375 m 1
 791.66796875 557.50390625 l 1
 811.909179688 591.725585938 843.119140625 618.62109375 880.521484375 633.330078125 c 1
 843.118164062 648.0390625 811.91015625 674.939453125 791.66796875 709.162109375 c 1
125 625.830078125 m 1
 125 474.169921875 l 1
 145.243164062 508.393554688 176.453125 535.291015625 213.857421875 550 c 1
 176.453125 564.708984375 145.243164062 591.606445312 125 625.830078125 c 1
1370.00390625 620.83203125 m 1
 1404.2265625 600.58984375 1431.12402344 569.379882812 1445.83203125 531.9765625 c 1
 1460.54101562 569.380859375 1487.43847656 600.58984375 1521.66210938 620.83203125 c 1
 1445.83203125 620.83203125 l 1
 1370.00390625 620.83203125 l 1
964.76953125 475.505859375 m 1
 982.44921875 457.830078125 l 1
 929.222228688 404.601794812 911.732874108 353.010794267 911.732874108 306.999762066 c 0
 911.732874108 283.522909117 916.286208962 261.498794989 922.96875 241.451171875 c 0
 942.748046875 182.11328125 982.44921875 142.169921875 982.44921875 142.169921875 c 1
 964.76953125 124.4921875 l 1
 789.267578125 300 l 1
 964.76953125 475.505859375 l 1
1186.9921875 475.505859375 m 1
 1204.66992188 457.830078125 l 1
 1151.44381231 404.60267533 1133.95501216 353.012501135 1133.95501216 307.002045456 c 0
 1133.95501216 283.52433718 1138.50864856 261.499444941 1145.19140625 241.451171875 c 0
 1164.97070312 182.11328125 1204.66992188 142.169921875 1204.66992188 142.169921875 c 1
 1186.9921875 124.4921875 l 1
 1011.49023438 300 l 1
 1186.9921875 475.505859375 l 1
1409.21679688 475.505859375 m 1
 1426.89453125 457.830078125 l 1
 1373.66754119 404.601794812 1356.17818661 353.010794267 1356.17818661 306.999762066 c 0
 1356.17818661 283.522909117 1360.73152146 261.498794989 1367.4140625 241.451171875 c 0
 1387.19335938 182.11328125 1426.89453125 142.169921875 1426.89453125 142.169921875 c 1
 1409.21679688 124.4921875 l 1
 1233.71289062 300 l 1
 1409.21679688 475.505859375 l 1
1121.328125 374.486328125 m 1
 1046.84570312 300 l 1
 1126.15039062 220.69140625 l 1
 1124.51074219 224.877929688 1122.93847656 229.154296875 1121.47460938 233.546875 c 0
 1114.2959106 255.083496598 1109.63048561 279.244986321 1109.63048561 305.034969436 c 0
 1109.63048561 327.193877107 1113.07466522 350.554995456 1121.328125 374.486328125 c 1
899.10546875 374.484375 m 1
 824.623046875 300 l 1
 903.927734375 220.693359375 l 1
 902.2890625 224.879882812 900.715820312 229.155273438 899.251953125 233.546875 c 0
 892.073254345 255.083496598 887.407829361 279.244703803 887.407829361 305.03427384 c 0
 887.407829361 327.192826592 890.852008968 350.553493636 899.10546875 374.484375 c 1
1343.55078125 374.484375 m 1
 1269.06835938 300 l 1
 1348.37304688 220.693359375 l 1
 1346.734375 224.879882812 1345.16113281 229.155273438 1343.69726562 233.546875 c 0
 1336.51856685 255.083496598 1331.85314186 279.244703803 1331.85314186 305.03427384 c 0
 1331.85314186 327.192826592 1335.29732147 350.553493636 1343.55078125 374.484375 c 1
125 125.830078125 m 1
 125 -25.830078125 l 1
 145.243164062 8.3935546875 176.453125 35.291015625 213.857421875 50 c 1
 176.453125 64.708984375 145.243164062 91.6064453125 125 125.830078125 c 1
791.66796875 42.494140625 m 1
 791.66796875 -109.162109375 l 1
 811.91015625 -74.939453125 843.118164062 -48.041015625 880.521484375 -33.33203125 c 1
 843.119140625 -18.6240234375 811.909179688 8.2724609375 791.66796875 42.494140625 c 1
EndSplineSet
EndChar

StartChar: U12229
Encoding: 273 74281 17
Width: 1712
VWidth: 100
Flags: W
HStem: -45.832 25<885.762 1433.33> 37.5 25<219.097 766.668> 404.168 25<1112.5 1159.99 1188.53 1215.9 1242.44 1269.8 1298.34 1345.83> 520.832 25<879.168 926.655 955.197 1036.47 1065.01 1161.01 1188.53 1269.8 1297.33 1345.83> 537.5 25<219.097 766.668> 620.832 25<885.762 1432.79> 787.5 25<1279.17 1339.78 1370 1521.66 1552.43 1612.5>
VStem: 100 25<-116.668 -56.5971 -25.8301 125.83 156.597 216.668 383.332 443.403 474.17 625.83 656.597 716.668> 766.668 25<-200 -139.929 -109.162 37.5 73.2617 133.332 466.668 526.738 562.5 709.162 739.929 800> 983.332 25<66.668 464.155> 1216.67 25<66.668 347.487> 1433.33 25<-200 -45.832 -20.832 620.832 645.832 691.723>
LayerCount: 2
Fore
SplineSet
1279.16796875 812.5 m 1xeff0
 1612.5 812.5 l 1
 1612.5 787.5 l 1
 1527.20898438 787.5 1458.33203125 718.623046875 1458.33203125 633.33203125 c 2
 1458.33203125 -200 l 1
 1433.33203125 -200 l 1
 1433.33203125 -45.83203125 l 1
 945.83203125 -45.83203125 l 2
 860.541015625 -45.83203125 791.66796875 -114.708984375 791.66796875 -200 c 1
 766.66796875 -200 l 1
 766.66796875 37.5 l 1
 279.16796875 37.5 l 2
 193.876953125 37.5 125 -31.376953125 125 -116.66796875 c 1
 100 -116.66796875 l 1
 100 216.66796875 l 1
 125 216.66796875 l 1
 125 131.376953125 193.876953125 62.5 279.16796875 62.5 c 2
 766.66796875 62.5 l 1
 766.66796875 133.33203125 l 1
 791.66796875 133.33203125 l 1
 791.66796875 48.041015625 860.541015625 -20.83203125 945.83203125 -20.83203125 c 2
 1433.33203125 -20.83203125 l 1
 1433.33203125 620.83203125 l 1
 945.83203125 620.83203125 l 2
 860.541015625 620.83203125 791.66796875 551.958984375 791.66796875 466.66796875 c 1
 766.66796875 466.66796875 l 1
 766.66796875 537.5 l 1
 279.16796875 537.5 l 2
 193.876953125 537.5 125 468.623046875 125 383.33203125 c 1
 100 383.33203125 l 1
 100 716.66796875 l 1
 125 716.66796875 l 1
 125 631.376953125 193.876953125 562.5 279.16796875 562.5 c 2
 766.66796875 562.5 l 1
 766.66796875 800 l 1
 791.66796875 800 l 1
 791.66796875 714.708984375 860.541015625 645.83203125 945.83203125 645.83203125 c 2
 1432.78515625 645.83203125 l 1
 1426.43847656 725.247070312 1360.24609375 787.5 1279.16796875 787.5 c 1
 1279.16796875 812.5 l 1xeff0
1370.00390625 787.5 m 1
 1404.22558594 767.2578125 1431.12304688 736.048828125 1445.83203125 698.646484375 c 1
 1460.54101562 736.048828125 1487.43945312 767.2578125 1521.66210938 787.5 c 1
 1370.00390625 787.5 l 1
791.66796875 709.162109375 m 1
 791.66796875 557.50390625 l 1
 811.909179688 591.725585938 843.119140625 618.62109375 880.521484375 633.330078125 c 1
 843.118164062 648.0390625 811.91015625 674.939453125 791.66796875 709.162109375 c 1
125 625.830078125 m 1
 125 474.169921875 l 1
 145.243164062 508.393554688 176.453125 535.291015625 213.857421875 550 c 1
 176.453125 564.708984375 145.243164062 591.606445312 125 625.830078125 c 1
879.16796875 545.83203125 m 1xf7f0
 1112.5 545.83203125 l 1
 1345.83203125 545.83203125 l 1
 1345.83203125 520.83203125 l 1
 1292.38769531 520.83203125 1248.58398438 480.912109375 1242.43554688 429.16796875 c 1
 1345.83203125 429.16796875 l 1
 1345.83203125 404.16796875 l 1
 1288.15332031 404.16796875 1241.66796875 357.677734375 1241.66796875 300 c 2
 1241.66796875 66.66796875 l 1
 1216.66796875 66.66796875 l 1
 1216.66796875 300 l 2
 1216.66796875 357.676757812 1170.17773438 404.16796875 1112.5 404.16796875 c 1
 1112.5 429.16796875 l 1
 1215.90039062 429.16796875 l 1
 1209.75097656 480.911132812 1165.94335938 520.83203125 1112.5 520.83203125 c 0
 1054.82226562 520.83203125 1008.33203125 474.345703125 1008.33203125 416.66796875 c 2
 1008.33203125 66.66796875 l 1
 983.33203125 66.66796875 l 1
 983.33203125 416.66796875 l 2
 983.33203125 474.345703125 936.846679688 520.83203125 879.16796875 520.83203125 c 1
 879.16796875 545.83203125 l 1xf7f0
955.197265625 520.83203125 m 1
 972.526367188 508.14453125 986.548828125 491.288085938 995.83203125 471.70703125 c 1
 1005.11523438 491.287109375 1019.13867188 508.14453125 1036.46679688 520.83203125 c 1
 955.197265625 520.83203125 l 1
1188.53320312 520.83203125 m 1
 1205.86132812 508.14453125 1219.88476562 491.287109375 1229.16796875 471.70703125 c 1
 1238.45117188 491.288085938 1252.47460938 508.14453125 1269.80273438 520.83203125 c 1
 1188.53320312 520.83203125 l 1
1188.53125 404.16796875 m 1
 1205.86035156 391.48046875 1219.88476562 374.622070312 1229.16796875 355.041015625 c 1
 1238.45117188 374.622070312 1252.47460938 391.48046875 1269.80273438 404.16796875 c 1
 1188.53125 404.16796875 l 1
125 125.830078125 m 1
 125 -25.830078125 l 1
 145.243164062 8.3935546875 176.453125 35.291015625 213.857421875 50 c 1
 176.453125 64.708984375 145.243164062 91.6064453125 125 125.830078125 c 1
791.66796875 42.494140625 m 1
 791.66796875 -109.162109375 l 1
 811.91015625 -74.939453125 843.118164062 -48.041015625 880.521484375 -33.33203125 c 1
 843.119140625 -18.6240234375 811.909179688 8.2724609375 791.66796875 42.494140625 c 1
EndSplineSet
EndChar

StartChar: U120f6
Encoding: 274 73974 18
Width: 1712
VWidth: 100
Flags: W
HStem: -45.832 25<969.097 1612.5> 37.5 25<219.097 850> 287.5 25<969.097 1612.5> 537.5 25<219.097 850> 620.832 25<969.097 1612.5>
VStem: 100 25<-116.668 -56.5971 -25.8301 125.83 156.597 216.668 383.332 443.403 474.17 625.83 656.597 716.668> 850 25<-200 -139.929 -109.162 37.5 73.2617 193.403 224.17 375.83 406.597 526.738 562.5 709.162 739.929 800>
LayerCount: 2
Fore
SplineSet
850 800 m 1
 875 800 l 1
 875 714.708984375 943.876953125 645.83203125 1029.16796875 645.83203125 c 2
 1612.5 645.83203125 l 1
 1612.5 620.83203125 l 1
 1029.16796875 620.83203125 l 2
 943.876953125 620.83203125 875 551.958984375 875 466.66796875 c 0
 875 381.376953125 943.876953125 312.5 1029.16796875 312.5 c 2
 1612.5 312.5 l 1
 1612.5 287.5 l 1
 1029.16796875 287.5 l 2
 943.876953125 287.5 875 218.623046875 875 133.33203125 c 0
 875 48.041015625 943.876953125 -20.83203125 1029.16796875 -20.83203125 c 2
 1612.5 -20.83203125 l 1
 1612.5 -45.83203125 l 1
 1029.16796875 -45.83203125 l 2
 943.876953125 -45.83203125 875 -114.708984375 875 -200 c 1
 850 -200 l 1
 850 37.5 l 1
 279.16796875 37.5 l 2
 193.876953125 37.5 125 -31.376953125 125 -116.66796875 c 1
 100 -116.66796875 l 1
 100 216.66796875 l 1
 125 216.66796875 l 1
 125 131.376953125 193.876953125 62.5 279.16796875 62.5 c 2
 850 62.5 l 1
 850 133.33203125 l 1
 850 466.66796875 l 1
 850 537.5 l 1
 279.16796875 537.5 l 2
 193.876953125 537.5 125 468.623046875 125 383.33203125 c 1
 100 383.33203125 l 1
 100 716.66796875 l 1
 125 716.66796875 l 1
 125 631.376953125 193.876953125 562.5 279.16796875 562.5 c 2
 850 562.5 l 1
 850 800 l 1
875 709.162109375 m 1
 875 557.50390625 l 1
 895.2421875 591.725585938 926.451171875 618.623046875 963.853515625 633.33203125 c 1
 926.451171875 648.041015625 895.2421875 674.940429688 875 709.162109375 c 1
125 625.830078125 m 1
 125 474.169921875 l 1
 145.243164062 508.393554688 176.453125 535.291015625 213.857421875 550 c 1
 176.453125 564.708984375 145.243164062 591.606445312 125 625.830078125 c 1
875 375.830078125 m 1
 875 224.169921875 l 1
 895.243164062 258.393554688 926.453125 285.291015625 963.857421875 300 c 1
 926.453125 314.708984375 895.243164062 341.606445312 875 375.830078125 c 1
125 125.830078125 m 1
 125 -25.830078125 l 1
 145.243164062 8.3935546875 176.453125 35.291015625 213.857421875 50 c 1
 176.453125 64.708984375 145.243164062 91.6064453125 125 125.830078125 c 1
875 42.49609375 m 1
 875 -109.162109375 l 1
 895.2421875 -74.939453125 926.452148438 -48.041015625 963.85546875 -33.33203125 c 1
 926.452148438 -18.623046875 895.2421875 8.2734375 875 42.49609375 c 1
EndSplineSet
EndChar

StartChar: U120a6
Encoding: 275 73894 19
Width: 1712
VWidth: 100
Flags: W
HStem: -45.832 25<663.539 988.891 1107.98 1433.33> 37.5 25<219.097 544.445> 204.168 25<600.609 860.098> 287.5 25<1107.98 1433.33> 370.832 25<600.609 860.098> 537.5 25<219.097 544.445> 620.832 25<663.539 988.346> 787.5 25<834.723 895.339 925.561 1077.22 1107.98 1168.05 1279.17 1339.24 1370 1521.66 1552.43 1612.5>
VStem: 100 25<-116.668 -56.5971 -25.8301 125.83 156.597 216.668 383.332 443.403 474.17 625.83 656.597 716.668> 544.445 25<-200 -139.929 -109.162 37.5 73.2617 173.001 197.607 235.727 260.332 339.668 364.273 402.395 426.999 526.738 562.5 709.162 739.929 800> 887.408 24.325<240.565 370.693> 988.891 25<-200 -139.929 -109.162 -45.832 -20.832 42.4941 73.2617 193.403 224.17 375.83 406.597 620.832 645.832 691.723> 1433.33 25<-200 -45.832 -20.832 287.5 312.5 693.403>
LayerCount: 2
Fore
SplineSet
834.72265625 812.5 m 1
 1168.0546875 812.5 l 1
 1168.0546875 787.5 l 1
 1082.76464844 787.5 1013.890625 718.623046875 1013.890625 633.33203125 c 2
 1013.890625 466.66796875 l 2
 1013.890625 381.376953125 1082.76367188 312.5 1168.0546875 312.5 c 2
 1433.33203125 312.5 l 1
 1433.33203125 633.33203125 l 2
 1433.33203125 718.623046875 1364.45898438 787.5 1279.16796875 787.5 c 1
 1279.16796875 812.5 l 1
 1612.5 812.5 l 1
 1612.5 787.5 l 1
 1527.20898438 787.5 1458.33203125 718.623046875 1458.33203125 633.33203125 c 2
 1458.33203125 -200 l 1
 1433.33203125 -200 l 1
 1433.33203125 -45.83203125 l 1
 1168.0546875 -45.83203125 l 2
 1082.76367188 -45.83203125 1013.890625 -114.708984375 1013.890625 -200 c 1
 988.890625 -200 l 1
 988.890625 -45.83203125 l 1
 723.609375 -45.83203125 l 2
 638.318359375 -45.83203125 569.4453125 -114.708984375 569.4453125 -200 c 1
 544.4453125 -200 l 1
 544.4453125 37.5 l 1
 279.16796875 37.5 l 2
 193.876953125 37.5 125 -31.376953125 125 -116.66796875 c 1
 100 -116.66796875 l 1
 100 216.66796875 l 1
 125 216.66796875 l 1
 125 131.376953125 193.876953125 62.5 279.16796875 62.5 c 2
 544.4453125 62.5 l 1
 544.4453125 133.33203125 l 1
 544.4453125 300 l 1
 544.4453125 466.66796875 l 1
 544.4453125 537.5 l 1
 279.16796875 537.5 l 2
 193.876953125 537.5 125 468.623046875 125 383.33203125 c 1
 100 383.33203125 l 1
 100 716.66796875 l 1
 125 716.66796875 l 1
 125 631.376953125 193.876953125 562.5 279.16796875 562.5 c 2
 544.4453125 562.5 l 1
 544.4453125 800 l 1
 569.4453125 800 l 1
 569.4453125 714.708984375 638.318359375 645.83203125 723.609375 645.83203125 c 2
 988.345703125 645.83203125 l 1
 981.999023438 725.247070312 915.80078125 787.5 834.72265625 787.5 c 1
 834.72265625 812.5 l 1
925.560546875 787.5 m 1
 959.783203125 767.2578125 986.681640625 736.047851562 1001.390625 698.64453125 c 1
 1016.09960938 736.047851562 1042.99707031 767.2578125 1077.21875 787.5 c 1
 925.560546875 787.5 l 1
1370.00390625 787.5 m 1
 1404.22558594 767.2578125 1431.12304688 736.048828125 1445.83203125 698.646484375 c 1
 1460.54101562 736.048828125 1487.43945312 767.2578125 1521.66210938 787.5 c 1
 1370.00390625 787.5 l 1
569.4453125 709.162109375 m 1
 569.4453125 557.50390625 l 1
 589.6875 591.725585938 620.896484375 618.624023438 658.298828125 633.33203125 c 1
 620.896484375 648.041015625 589.686523438 674.939453125 569.4453125 709.162109375 c 1
125 625.830078125 m 1
 125 474.169921875 l 1
 145.243164062 508.393554688 176.453125 535.291015625 213.857421875 550 c 1
 176.453125 564.708984375 145.243164062 591.606445312 125 625.830078125 c 1
723.609375 620.83203125 m 2
 638.318359375 620.83203125 569.4453125 551.958984375 569.4453125 466.66796875 c 0
 569.4453125 427.400390625 601.009765625 395.83203125 640.27734375 395.83203125 c 2
 885.09765625 395.83203125 l 1
 964.76953125 475.505859375 l 1
 982.44921875 457.830078125 l 1
 929.222228688 404.601794812 911.732874108 353.010794267 911.732874108 306.999762066 c 0
 911.732874108 283.522909117 916.286208962 261.498794989 922.96875 241.451171875 c 0
 942.748046875 182.11328125 982.44921875 142.169921875 982.44921875 142.169921875 c 1
 964.76953125 124.4921875 l 1
 885.095703125 204.16796875 l 1
 640.27734375 204.16796875 l 2
 601.009765625 204.16796875 569.4453125 172.599609375 569.4453125 133.33203125 c 0
 569.4453125 48.041015625 638.318359375 -20.83203125 723.609375 -20.83203125 c 2
 988.890625 -20.83203125 l 1
 988.890625 133.33203125 l 1
 988.890625 466.66796875 l 1
 988.890625 620.83203125 l 1
 723.609375 620.83203125 l 2
569.4453125 402.39453125 m 1
 569.4453125 364.2734375 l 1
 576.291015625 371.80859375 584.2734375 378.271484375 593.1796875 383.33203125 c 1
 584.272460938 388.393554688 576.291015625 394.858398438 569.4453125 402.39453125 c 1
1013.890625 375.830078125 m 1
 1013.890625 224.169921875 l 1
 1034.1328125 258.393554688 1065.34277344 285.291015625 1102.74609375 300 c 1
 1065.34277344 314.708984375 1034.1328125 341.606445312 1013.890625 375.830078125 c 1
899.10546875 374.484375 m 1
 824.623046875 300 l 1
 903.927734375 220.693359375 l 1
 902.2890625 224.879882812 900.715820312 229.155273438 899.251953125 233.546875 c 0
 892.073254345 255.083496598 887.407829361 279.244703803 887.407829361 305.03427384 c 0
 887.407829361 327.192826592 890.852008968 350.553493636 899.10546875 374.484375 c 1
640.27734375 370.83203125 m 2
 601.009765625 370.83203125 569.4453125 339.267578125 569.4453125 300 c 0
 569.4453125 260.731445312 601.009765625 229.16796875 640.27734375 229.16796875 c 2
 860.09765625 229.16796875 l 1
 789.267578125 300 l 1
 860.09765625 370.83203125 l 1
 640.27734375 370.83203125 l 2
1168.0546875 287.5 m 2
 1082.76367188 287.5 1013.890625 218.623046875 1013.890625 133.33203125 c 0
 1013.890625 48.041015625 1082.76269531 -20.83203125 1168.0546875 -20.83203125 c 2
 1433.33203125 -20.83203125 l 1
 1433.33203125 287.5 l 1
 1168.0546875 287.5 l 2
569.4453125 235.7265625 m 1
 569.4453125 197.607421875 l 1
 576.291015625 205.142578125 584.2734375 211.606445312 593.1796875 216.66796875 c 1
 584.2734375 221.728515625 576.291015625 228.19140625 569.4453125 235.7265625 c 1
125 125.830078125 m 1
 125 -25.830078125 l 1
 145.243164062 8.3935546875 176.453125 35.291015625 213.857421875 50 c 1
 176.453125 64.708984375 145.243164062 91.6064453125 125 125.830078125 c 1
569.4453125 42.494140625 m 1
 569.4453125 -109.162109375 l 1
 589.6875 -74.939453125 620.896484375 -48.041015625 658.298828125 -33.33203125 c 1
 620.896484375 -18.6240234375 589.6875 8.2724609375 569.4453125 42.494140625 c 1
1013.890625 42.494140625 m 1
 1013.890625 -109.162109375 l 1
 1034.1328125 -74.939453125 1065.34179688 -48.041015625 1102.74414062 -33.33203125 c 1
 1065.34179688 -18.6240234375 1034.1328125 8.2724609375 1013.890625 42.494140625 c 1
EndSplineSet
EndChar

StartChar: U12217
Encoding: 276 74263 20
Width: 2218
VWidth: 100
Flags: W
HStem: 37.5 25<219.097 779.168> 397.315 24.7293<794.352 869.257 1461.02 1535.92> 537.5 25<219.097 779.168> 730.646 24.7308<794.351 869.256>
VStem: 100 25<-116.668 -56.5971 -25.8301 125.83 156.597 216.668 383.332 443.403 474.17 625.83 656.597 716.668> 807.463 24.2539<-360.41 -336.723>
LayerCount: 2
Fore
SplineSet
842.5234375 954.66015625 m 1
 864.8828125 943.48046875 l 1
 853.781925808 921.27841115 848.520535428 897.710942399 848.520535428 874.513102504 c 0
 848.520535428 818.003307769 879.741972746 763.68691503 933.828125 736.64453125 c 2
 1440.2421875 483.4375 l 1
 1509.1875 621.328125 l 1
 1531.546875 610.1484375 l 1
 1520.44617203 587.946178952 1515.18496935 564.379203331 1515.18496935 541.182114611 c 0
 1515.18496935 484.670789849 1546.40900559 430.35465936 1600.49609375 403.3125 c 2
 2118.09179688 144.51171875 l 1
 2112.5 133.330078125 l 1
 2115.53125 121.205078125 l 1
 943.88671875 -171.705078125 l 2
 873.749041113 -189.239290587 827.057269867 -251.923748234 827.057269867 -321.013162107 c 0
 827.057269867 -333.430249443 828.565462462 -346.054223502 831.716796875 -358.66015625 c 1
 807.462890625 -364.72265625 l 1
 726.615234375 -41.33984375 l 1
 750.869140625 -35.27734375 l 1
 768.406678672 -105.418390261 831.091027814 -152.110685071 900.178587787 -152.110685071 c 0
 912.595274859 -152.110685071 925.218790042 -150.602491859 937.82421875 -147.451171875 c 2
 2076.6875 137.263671875 l 1
 1589.31640625 380.953125 l 2
 1567.11448587 392.053516785 1543.54735879 397.314602088 1520.34988112 397.314602088 c 0
 1463.83741507 397.314602088 1409.51874884 366.091048369 1382.4765625 312.00390625 c 1
 1360.1171875 323.18359375 l 1
 1429.0625 461.078125 l 1
 922.6484375 714.28515625 l 1
 922.6484375 714.283203125 l 1
 900.445284178 725.384353464 876.877303782 730.64578098 853.679310013 730.64578098 c 0
 797.168992753 730.64578098 742.854212001 699.4239601 715.8125 645.33984375 c 1
 693.453125 656.51953125 l 1
 842.5234375 954.66015625 l 1
824.259765625 862.232421875 m 1
 756.435546875 726.5859375 l 1
 785.434062465 745.296680628 819.356100087 755.37654555 853.986251491 755.37654555 c 0
 859.25348543 755.37654555 864.537101087 755.143354893 869.822265625 754.671875 c 1
 842.9453125 784.5546875 827.059570312 822.5703125 824.259765625 862.232421875 c 1
100 716.66796875 m 1
 125 716.66796875 l 1
 125 631.376953125 193.876953125 562.5 279.16796875 562.5 c 2
 779.16796875 562.5 l 1
 779.16796875 537.5 l 1
 279.16796875 537.5 l 2
 193.876953125 537.5 125 468.623046875 125 383.33203125 c 1
 100 383.33203125 l 1
 100 716.66796875 l 1
125 625.830078125 m 1
 125 474.169921875 l 1
 145.243164062 508.393554688 176.453125 535.291015625 213.857421875 550 c 1
 176.453125 564.708984375 145.243164062 591.606445312 125 625.830078125 c 1
842.5234375 621.328125 m 1
 864.8828125 610.1484375 l 1
 853.781614619 587.94518909 848.520106863 564.377184634 848.520106863 541.179187899 c 0
 848.520106863 484.669204774 879.742026694 430.354856807 933.828125 403.3125 c 2
 1451.421875 144.51171875 l 1
 1440.2421875 122.15234375 l 1
 922.6484375 380.953125 l 2
 900.446266488 392.0539263 876.879188803 397.315206569 853.681926728 397.315206569 c 0
 797.170885712 397.315206569 742.854561031 366.091490095 715.8125 312.00390625 c 1
 693.453125 323.18359375 l 1
 842.5234375 621.328125 l 1
824.259765625 528.90234375 m 1
 756.4375 393.25390625 l 1
 785.43601559 411.964649378 819.35731748 422.0445143 853.98663602 422.0445143 c 0
 859.25374328 422.0445143 864.537230013 421.811323643 869.822265625 421.33984375 c 1
 842.9453125 451.223632812 827.059570312 489.239257812 824.259765625 528.90234375 c 1
1490.92382812 528.90234375 m 1
 1423.09960938 393.251953125 l 1
 1452.0990151 411.964418952 1486.0219573 422.044509806 1520.65237057 422.044509806 c 0
 1525.91958586 422.044509806 1531.20316764 421.811319099 1536.48828125 421.33984375 c 1
 1509.61035156 451.223632812 1493.72363281 489.239257812 1490.92382812 528.90234375 c 1
100 216.66796875 m 1
 125 216.66796875 l 1
 125 131.376953125 193.876953125 62.5 279.16796875 62.5 c 2
 779.16796875 62.5 l 1
 779.16796875 37.5 l 1
 279.16796875 37.5 l 2
 193.876953125 37.5 125 -31.376953125 125 -116.66796875 c 1
 100 -116.66796875 l 1
 100 216.66796875 l 1
125 125.830078125 m 1
 125 -25.830078125 l 1
 145.243164062 8.3935546875 176.453125 35.291015625 213.857421875 50 c 1
 176.453125 64.708984375 145.243164062 91.6064453125 125 125.830078125 c 1
772.900390625 -123.40234375 m 1
 809.685546875 -270.533203125 l 1
 821.0234375 -232.423828125 844.776367188 -198.758789062 877.494140625 -175.41796875 c 1
 837.640625 -170.219726562 800.838867188 -151.694335938 772.900390625 -123.40234375 c 1
EndSplineSet
EndChar

StartChar: LIG_DI3M_RAB_GAM
Encoding: 277 -1 21
Width: 2222
VWidth: 100
Flags: W
HStem: -45.832 25<694.097 1387.5> 37.5 25<219.097 575> 72.1731 24.6607<1731.23 1830.41> 279.482 24.6729<677.917 792.837> 287.5 25<1745.78 1791.67 1910.77 2112.5> 386.152 24.7018<549.866 664.494 949.88 1064.8> 537.5 25<219.097 587.5> 719.512 24.674<549.884 664.8>
VStem: 100 25<-116.668 -56.5971 -25.8301 125.83 156.597 216.668 383.332 443.403 474.17 625.83 656.597 716.668> 575 25<-200 -139.929 -109.162 37.5 73.2617 133.332> 643.327 24.6789<429.038 531.915 760.89 865.247> 771.365 24.6597<321.823 425.218> 1043.33 24.6611<428.52 531.906> 1514.23 24.3598<-23.42 138.82 476.581 639.427> 1625 25<133.332 193.949 224.17 268.465 333.613 375.83 406.051 466.668> 1791.67 25<133.332 150.53 224.17 286.955 313.045 375.83 406.597 466.668> 1833.34 24.6651<87.5763 196.202>
LayerCount: 2
Fore
SplineSet
684.595703125 936.037109375 m 1xe7ff80
 703.80078125 920.033203125 l 1
 679.732882721 891.153877076 667.986724461 856.157886317 667.986724461 821.371950017 c 0
 667.986724461 777.2366467 686.895381486 733.439483533 723.537109375 702.90234375 c 2
 985.900390625 484.2734375 l 1
 1084.59570312 602.705078125 l 1
 1103.80273438 586.701171875 l 1
 1103.78320312 586.677734375 l 2
 1079.72799204 557.802270949 1067.98781127 522.815003343 1067.98781127 488.037855526 c 0
 1067.98781127 443.903148263 1086.89588827 400.106848154 1123.53710938 369.5703125 c 2
 1395.50195312 142.935546875 l 1
 1379.49804688 123.73046875 l 1
 1107.53320312 350.365234375 l 2
 1078.65333612 374.433225006 1043.65751649 386.179760512 1008.87195067 386.179760512 c 0
 964.737419403 386.179760512 920.941344555 367.270754992 890.404296875 330.626953125 c 1
 871.197265625 346.630859375 l 1
 969.896484375 465.068359375 l 1
 707.533203125 683.697265625 l 2
 678.653376116 707.765510091 643.657103526 719.511861723 608.871072225 719.511861723 c 0
 564.745251328 719.511861723 520.957724075 700.611120918 490.421875 663.984375 c 2
 490.404296875 663.962890625 l 1
 490.40234375 663.962890625 l 1
 471.19921875 679.966796875 l 1
 471.197265625 679.966796875 l 1
 684.595703125 936.037109375 l 1xe7ff80
645.646484375 850.25 m 1
 548.556640625 733.744140625 l 1
 568.026227768 740.673382881 588.505123232 744.185855308 609.041099866 744.185855308 c 0
 628.016843581 744.185855308 647.041324404 741.186832193 665.36328125 735.11328125 c 1
 650.752514767 761.771042392 643.326705863 791.516530813 643.326705863 821.411360354 c 0
 643.326705863 831.041484347 644.097281659 840.687105461 645.646484375 850.25 c 1
1628.66210938 808.837890625 m 1
 1646.33789062 791.162109375 l 1
 1565.33220131 710.156420064 1538.5863502 630.796519454 1538.5863502 560.096655668 c 0
 1538.5863502 524.270906115 1545.45402686 490.668840994 1555.609375 460.203125 c 0
 1574.30761719 404.109375 1604.61328125 359.494140625 1625 333.61328125 c 1
 1625 466.66796875 l 1
 1650 466.66796875 l 1
 1650 385.58984375 1712.25292969 319.391601562 1791.66796875 313.044921875 c 1
 1791.66796875 466.66796875 l 1
 1816.66796875 466.66796875 l 1
 1816.66796875 381.376953125 1885.54101562 312.5 1970.83203125 312.5 c 2
 2112.5 312.5 l 1
 2112.5 287.5 l 1
 1970.83203125 287.5 l 2xefff80
 1944.07910156 287.5 1918.94433594 280.717773438 1897.04101562 268.783203125 c 1
 1906.06640625 259.28125 l 1
 1874.11215187 228.926222282 1858.00423942 188.254447537 1858.00423942 147.501270475 c 0
 1858.00423942 109.391367839 1872.09037928 71.210280037 1900.4765625 41.328125 c 2
 2121.5625 -191.390625 l 1
 2103.4375 -208.609375 l 1
 1882.3515625 24.109375 l 2
 1851.99609278 56.0640946704 1811.32461873 72.173054078 1770.57185406 72.173054078 c 0
 1732.46348538 72.173054078 1694.28403349 58.0868475962 1664.40234375 29.69921875 c 1
 1647.18359375 47.82421875 l 1
 1791.66796875 185.0859375 l 1
 1791.66796875 286.955078125 l 1
 1712.25292969 280.608398438 1650 214.41015625 1650 133.33203125 c 1
 1625 133.33203125 l 1
 1625 268.46484375 l 1
 1560.56233625 195.374104403 1538.58773294 124.174603327 1538.58773294 60.0906419455 c 0
 1538.58773294 24.2670445986 1545.45463311 -9.33299949382 1555.609375 -39.796875 c 0
 1585.80566406 -130.384765625 1646.33789062 -191.162109375 1646.33789062 -191.162109375 c 1
 1628.66210938 -208.837890625 l 1
 1369.82226562 50 l 1
 1619.82421875 300 l 1
 1369.82226562 550 l 1
 1628.66210938 808.837890625 l 1
100 716.66796875 m 1
 125 716.66796875 l 1
 125 631.376953125 193.876953125 562.5 279.16796875 562.5 c 2
 587.5 562.5 l 1
 587.5 537.5 l 1
 279.16796875 537.5 l 2
 193.876953125 537.5 125 468.623046875 125 383.33203125 c 1
 100 383.33203125 l 1
 100 716.66796875 l 1
1542.2265625 687.05078125 m 1
 1405.17578125 550 l 1
 1552.01953125 403.15625 l 1
 1544.64550781 418.357421875 1537.73242188 434.771484375 1531.890625 452.296875 c 0
 1521.2284544 484.283386809 1514.22796557 520.059735831 1514.22796557 558.239531025 c 0
 1514.22796557 598.999628428 1522.2066558 642.499013469 1542.2265625 687.05078125 c 1
125 625.830078125 m 1
 125 474.169921875 l 1
 145.243164062 508.393554688 176.453125 535.291015625 213.857421875 550 c 1
 176.453125 564.708984375 145.243164062 591.606445312 125 625.830078125 c 1
684.595703125 602.705078125 m 1
 703.80078125 586.701171875 l 1
 703.802734375 586.701171875 l 1
 703.783203125 586.677734375 l 2
 679.737368835 557.813862897 668.005604036 522.849060323 668.005604036 488.092064883 c 0
 668.005604036 447.849522972 683.73274226 407.885559057 714.283203125 377.9921875 c 1
 812.6328125 496.009765625 l 1
 831.837890625 480.005859375 l 1
 807.771084584 451.12457298 796.02489432 416.127659166 796.02489432 381.341659403 c 0
 796.02489432 337.20692756 814.933044208 293.411709584 851.576171875 262.876953125 c 1
 851.576171875 262.875 l 1
 995.501953125 142.935546875 l 1
 979.498046875 123.73046875 l 1
 835.572265625 243.669921875 l 2
 806.691611516 267.736201031 771.695408041 279.481644994 736.910032028 279.481644994 c 0xf7ff80
 692.77436378 279.481644994 648.978096588 260.573216054 618.443359375 223.931640625 c 1
 599.236328125 239.935546875 l 1
 697.58203125 357.94921875 l 1
 670.779250464 376.883167778 639.712791789 386.151642526 608.815031794 386.151642526 c 0
 564.700914684 386.151642526 520.930682293 367.25827104 490.404296875 330.626953125 c 1
 471.197265625 346.630859375 l 1
 684.595703125 602.705078125 l 1
645.646484375 516.916015625 m 1
 548.55859375 400.412109375 l 1
 568.027351068 407.341236934 588.505647088 410.853443983 609.041027737 410.853443983 c 0
 628.016874758 410.853443983 647.041465202 407.854440734 665.36328125 401.78125 c 1
 650.752514767 428.438272516 643.326705863 458.183580973 643.326705863 488.07794412 c 0
 643.326705863 497.707917872 644.097281659 507.353359022 645.646484375 516.916015625 c 1
1045.64648438 516.916015625 m 1
 948.55859375 400.412109375 l 1
 968.027351068 407.341236934 988.505647088 410.853443983 1009.04102774 410.853443983 c 0
 1028.01687476 410.853443983 1047.0414652 407.854440734 1065.36328125 401.78125 c 1
 1050.75251477 428.438272516 1043.32670586 458.183580973 1043.32670586 488.07794412 c 0
 1043.32670586 497.707917872 1044.09728166 507.353359022 1045.64648438 516.916015625 c 1
773.685546875 410.22265625 m 1
 676.595703125 293.712890625 l 1
 696.065413013 300.642030278 716.544813038 304.154528362 737.081371945 304.154528362 c 0
 756.055344445 304.154528362 775.078108526 301.156213213 793.3984375 295.083984375 c 1
 778.788742454 321.739052077 771.365185573 351.483628539 771.365185573 381.377016812 c 0
 771.365185573 391.009575044 772.135991491 400.657584766 773.685546875 410.22265625 c 1
1650 375.830078125 m 1
 1650 224.169921875 l 1
 1670.24316406 258.393554688 1701.453125 285.291015625 1738.85742188 300 c 1
 1701.453125 314.708984375 1670.24316406 341.606445312 1650 375.830078125 c 1
1816.66796875 375.830078125 m 1
 1816.66796875 224.169921875 l 1
 1836.91015625 258.392578125 1868.11816406 285.291015625 1905.52148438 300 c 1
 1868.11816406 314.708984375 1836.91015625 341.607421875 1816.66796875 375.830078125 c 1
100 216.66796875 m 1
 125 216.66796875 l 1
 125 131.376953125 193.876953125 62.5 279.16796875 62.5 c 2
 575 62.5 l 1
 575 133.33203125 l 1
 600 133.33203125 l 1
 600 48.041015625 668.876953125 -20.83203125 754.16796875 -20.83203125 c 2
 1387.5 -20.83203125 l 1
 1387.5 -45.83203125 l 1
 754.16796875 -45.83203125 l 2
 668.876953125 -45.83203125 600 -114.708984375 600 -200 c 1
 575 -200 l 1
 575 37.5 l 1
 279.16796875 37.5 l 2
 193.876953125 37.5 125 -31.376953125 125 -116.66796875 c 1
 100 -116.66796875 l 1
 100 216.66796875 l 1
1840.20898438 196.716796875 m 1
 1824.42773438 181.724609375 l 1
 1819.41699219 166.506835938 1816.66796875 150.251953125 1816.66796875 133.33203125 c 1
 1791.66796875 133.33203125 l 1
 1791.66796875 150.6015625 l 1
 1730.25976562 92.263671875 l 1
 1743.54018457 95.3118563356 1757.08416772 96.8337081459 1770.61736189 96.8337081459 c 0
 1796.57371307 96.8337081459 1822.49037552 91.2353713554 1846.43164062 80.0703125 c 1
 1837.68797044 101.643575209 1833.3391876 124.526524828 1833.3391876 147.395981238 c 0
 1833.3391876 164.012558807 1835.63501479 180.622012986 1840.20898438 196.716796875 c 1
1542.2265625 187.05078125 m 1
 1405.17578125 50 l 1
 1552.01953125 -96.84375 l 1
 1544.64550781 -81.642578125 1537.73242188 -65.228515625 1531.890625 -47.703125 c 0
 1521.2284544 -15.7166131908 1514.22796557 20.059735831 1514.22796557 58.2395310251 c 0
 1514.22796557 98.9996284282 1522.2066558 142.499013469 1542.2265625 187.05078125 c 1
125 125.830078125 m 1
 125 -25.830078125 l 1
 145.243164062 8.3935546875 176.453125 35.291015625 213.857421875 50 c 1
 176.453125 64.708984375 145.243164062 91.6064453125 125 125.830078125 c 1
600 42.49609375 m 1
 600 -109.162109375 l 1
 620.2421875 -74.939453125 651.452148438 -48.041015625 688.85546875 -33.33203125 c 1
 651.452148438 -18.623046875 620.2421875 8.2734375 600 42.49609375 c 1
EndSplineSet
Ligature2: "ligsubtable" U12290 U120f5
EndChar

StartChar: U1214b
Encoding: 278 74059 22
Width: 2212
VWidth: 100
Flags: W
HStem: -159.005 24.7503<887.641 955.117> -45.832 25<219.097 799.01 807.754 862.5> 287.5 25<219.097 799.002 807.756 862.5> 333.239 24.7445<1040.6 1107.42> 400.88 24.7906<887.641 955.018> 620.832 25<1779.17 1839.24 1870 1932.79 1958.88 2021.66 2052.43 2112.5> 787.5 25<1445.83 1505.9 1536.67 1688.33 1719.1 1839.78 1870 2021.66 2051.88 2112.5>
VStem: 100 25<-200 -139.929 -109.162 42.4961 73.2617 193.403 224.17 375.83 406.597 466.668> 484.63 24.3245<573.9 704.027> 1600 25<-200 114.098 152.566 693.403> 1933.33 25<-200 526.738 645.832 691.723>
LayerCount: 2
Fore
SplineSet
1445.83203125 812.5 m 1
 1779.16796875 812.5 l 1
 2112.5 812.5 l 1
 2112.5 787.5 l 1
 2031.421875 787.5 1965.22363281 725.247070312 1958.87695312 645.83203125 c 1
 2112.5 645.83203125 l 1
 2112.5 620.83203125 l 1
 2027.20898438 620.83203125 1958.33203125 551.958984375 1958.33203125 466.66796875 c 2
 1958.33203125 -200 l 1
 1933.33203125 -200 l 1
 1933.33203125 466.66796875 l 2
 1933.33203125 551.959960938 1864.45898438 620.83203125 1779.16796875 620.83203125 c 1
 1779.16796875 645.83203125 l 1
 1932.78515625 645.83203125 l 1
 1926.43847656 725.247070312 1860.24609375 787.5 1779.16796875 787.5 c 0
 1693.87695312 787.5 1625 718.623046875 1625 633.33203125 c 2
 1625 -200 l 1
 1600 -200 l 1
 1600 114.09765625 l 1
 1019.87695312 -143.732421875 l 1
 1009.72460938 -120.88671875 l 1
 1581.72265625 133.33203125 l 1
 1162.02929688 319.8671875 l 2
 1141.61177421 328.941045127 1120.30456511 333.238592617 1099.35215405 333.238592617 c 0
 1040.31828111 333.238592617 984.100947061 299.122818887 958.53515625 241.599609375 c 1
 935.689453125 251.751953125 l 1
 998.08203125 392.1328125 l 1
 981.273823226 398.049603217 964.036250763 400.880274125 947.033748321 400.880274125 c 0
 889.137382592 400.880274125 833.966692426 368.058179302 807.755859375 312.5 c 1
 862.5 312.5 l 1
 862.5 287.5 l 1
 279.16796875 287.5 l 2
 193.876953125 287.5 125 218.623046875 125 133.33203125 c 0
 125 48.041015625 193.876953125 -20.83203125 279.16796875 -20.83203125 c 2
 862.5 -20.83203125 l 1
 862.5 -45.83203125 l 1
 807.75390625 -45.83203125 l 1
 833.969350308 -101.400711218 889.163642236 -134.254474879 947.074579384 -134.254474879 c 0
 968.015978062 -134.254474879 989.31261776 -129.958365674 1009.72265625 -120.88671875 c 1
 1019.87695312 -143.732421875 l 1
 962.354444029 -169.299743268 928.23980991 -225.515497611 928.23980991 -284.545958392 c 0
 928.23980991 -305.499134455 932.538024518 -326.806944612 941.61328125 -347.224609375 c 1
 918.76953125 -357.376953125 l 1
 783.38671875 -52.775390625 l 1
 799.009765625 -45.83203125 l 1
 279.16796875 -45.83203125 l 2
 193.876953125 -45.83203125 125 -114.708984375 125 -200 c 1
 100 -200 l 1
 100 133.33203125 l 1
 100 466.66796875 l 1
 125 466.66796875 l 1
 125 381.376953125 193.876953125 312.5 279.16796875 312.5 c 2
 799.001953125 312.5 l 1
 783.38671875 319.439453125 l 1
 918.76953125 624.044921875 l 1
 941.61328125 613.892578125 l 1
 941.61328125 613.890625 l 1
 932.541727257 593.481377081 928.245750971 572.185336729 928.245750971 551.244364404 c 0
 928.245750971 496.165222039 957.965321434 443.542440831 1008.67773438 415.97265625 c 1
 1071.0703125 556.353515625 l 1
 1093.91601562 546.201171875 l 1
 1084.84190407 525.783525489 1080.54410318 504.475824636 1080.54410318 483.522833763 c 0
 1080.54410318 424.491820554 1114.65669511 368.276218558 1172.18164062 342.7109375 c 2
 1600 152.56640625 l 1
 1600 633.33203125 l 2
 1600 718.623046875 1531.12304688 787.5 1445.83203125 787.5 c 1
 1445.83203125 812.5 l 1
561.9921875 808.837890625 m 1
 579.669921875 791.162109375 l 1
 526.44381231 737.93470658 508.955012162 686.345816822 508.955012162 640.336512568 c 0
 508.955012162 616.859391828 513.508648561 594.835052493 520.19140625 574.787109375 c 0
 539.970703125 515.450195312 579.669921875 475.505859375 579.669921875 475.505859375 c 1
 561.9921875 457.830078125 l 1
 386.490234375 633.33203125 l 1
 561.9921875 808.837890625 l 1
1536.66992188 787.5 m 1
 1570.89355469 767.256835938 1597.79101562 736.046875 1612.5 698.642578125 c 1
 1627.20898438 736.046875 1654.10644531 767.256835938 1688.33007812 787.5 c 1
 1536.66992188 787.5 l 1
1870.00390625 787.5 m 1
 1904.22558594 767.2578125 1931.12304688 736.048828125 1945.83203125 698.646484375 c 1
 1960.54101562 736.048828125 1987.43945312 767.2578125 2021.66210938 787.5 c 1
 1870.00390625 787.5 l 1
496.328125 707.818359375 m 1
 421.845703125 633.33203125 l 1
 501.15234375 554.025390625 l 1
 499.512695312 558.212890625 497.939453125 562.487304688 496.474609375 566.880859375 c 0
 489.295910595 588.417480973 484.630485611 612.578405661 484.630485611 638.367866531 c 0
 484.630485611 660.526325485 488.074665218 683.887026706 496.328125 707.818359375 c 1
1870.00390625 620.83203125 m 1
 1904.2265625 600.58984375 1931.12402344 569.379882812 1945.83203125 531.9765625 c 1
 1960.54101562 569.380859375 1987.43847656 600.58984375 2021.66210938 620.83203125 c 1
 1870.00390625 620.83203125 l 1
904.71875 530.8828125 m 1
 843.123046875 392.294921875 l 1
 873.432047279 413.861591462 909.909525764 425.670834725 947.364369478 425.670834725 c 0
 949.945218791 425.670834725 952.53070862 425.614764618 955.119140625 425.501953125 c 1
 926.913085938 454.133789062 909.31640625 491.388671875 904.71875 530.8828125 c 1
1057.02148438 463.1953125 m 1
 995.427734375 324.60546875 l 1
 1025.73712513 346.172152565 1062.21381519 357.983134804 1099.67002024 357.983134804 c 0
 1102.24924089 357.983134804 1104.83310605 357.927131266 1107.41992188 357.814453125 c 1
 1079.21484375 386.446289062 1061.61914062 423.702148438 1057.02148438 463.1953125 c 1
125 375.830078125 m 1
 125 224.169921875 l 1
 145.243164062 258.393554688 176.453125 285.291015625 213.857421875 300 c 1
 176.453125 314.708984375 145.243164062 341.606445312 125 375.830078125 c 1
125 42.49609375 m 1
 125 -109.162109375 l 1
 145.2421875 -74.939453125 176.452148438 -48.041015625 213.85546875 -33.33203125 c 1
 176.452148438 -18.623046875 145.2421875 8.2734375 125 42.49609375 c 1
843.123046875 -125.626953125 m 1
 904.71875 -264.216796875 l 1
 909.31640625 -224.723632812 926.912109375 -187.467773438 955.1171875 -158.8359375 c 1
 952.529105982 -158.948733718 949.943973957 -159.004795801 947.363488029 -159.004795801 c 0
 909.908496984 -159.004795801 873.432330067 -147.193823932 843.123046875 -125.626953125 c 1
EndSplineSet
EndChar

StartChar: U1227c
Encoding: 279 74364 23
Width: 1712
VWidth: 100
Flags: W
HStem: 100.693 24.6617<686.37 790.104> 218.519 24.6839<568.502 672.534> 287.5 25<219.097 582.324 642.678 671.021 694.504 818.023 843.779 1612.5> 620.832 25<219.097 1612.5>
VStem: 100 25<133.332 193.403 224.17 375.83 406.597 526.738 557.504 709.162 739.929 800> 669.75 24.7539<239.081 287.5 312.5 343.439> 787.146 24.6831<122.385 226.114>
LayerCount: 2
Fore
SplineSet
100 800 m 1
 125 800 l 1
 125 714.708984375 193.876953125 645.83203125 279.16796875 645.83203125 c 2
 1612.5 645.83203125 l 1
 1612.5 620.83203125 l 1
 279.16796875 620.83203125 l 2
 193.876953125 620.83203125 125 551.958984375 125 466.66796875 c 0
 125 381.376953125 193.876953125 312.5 279.16796875 312.5 c 2
 607.322265625 312.5 l 1
 721.513671875 426.69140625 l 1
 739.19140625 409.013671875 l 1
 712.2265625 382.048828125 697.356445312 347.666015625 694.50390625 312.5 c 1
 1612.5 312.5 l 1
 1612.5 287.5 l 1
 853.55859375 287.5 l 1
 825.74183433 257.83938189 811.82857063 219.967240266 811.82857063 182.097641 c 0
 811.82857063 142.688127472 826.896367106 103.281367269 857.04296875 73.134765625 c 2
 1121.33984375 -191.16015625 l 1
 1103.66210938 -208.837890625 l 1
 839.365234375 55.45703125 l 2
 809.20812988 85.6141357452 769.778095096 100.69274903 730.348661218 100.69274903 c 0
 690.920184966 100.69274903 651.492309591 85.614868167 621.337890625 55.458984375 c 1
 603.662109375 73.134765625 l 1
 603.66015625 73.13671875 l 1
 712.2890625 181.765625 l 1
 683.532432355 206.265049468 647.986831228 218.51929163 612.44423512 218.51929163 c 0
 573.035074335 218.51929163 533.629607947 203.453826697 503.486328125 173.310546875 c 1
 485.810546875 190.986328125 l 1
 582.32421875 287.5 l 1
 279.16796875 287.5 l 2
 193.876953125 287.5 125 218.623046875 125 133.33203125 c 1
 100 133.33203125 l 1
 100 466.66796875 l 1
 100 800 l 1
125 709.162109375 m 1
 125 557.50390625 l 1
 145.2421875 591.725585938 176.451171875 618.623046875 213.853515625 633.33203125 c 1
 176.451171875 648.041015625 145.2421875 674.940429688 125 709.162109375 c 1
125 375.830078125 m 1
 125 224.169921875 l 1
 145.243164062 258.393554688 176.453125 285.291015625 213.857421875 300 c 1
 176.453125 314.708984375 145.243164062 341.606445312 125 375.830078125 c 1
674.9609375 344.783203125 m 1
 642.677734375 312.5 l 1
 669.7734375 312.5 l 1
 670.532226562 323.361328125 672.236328125 334.170898438 674.9609375 344.783203125 c 1
617.67578125 287.5 m 1
 567.71484375 237.5390625 l 1
 582.41987348 241.31394259 597.500603382 243.203203584 612.57756942 243.203203584 c 0
 636.988406776 243.203203584 661.389377442 238.250647535 684.169921875 228.330078125 c 1
 675.93359375 247.243164062 671.146484375 267.274414062 669.75 287.5 c 1
 617.67578125 287.5 l 1
694.50390625 287.5 m 1
 697.041015625 256.220703125 709.122070312 225.583007812 730.736328125 200.212890625 c 1
 818.0234375 287.5 l 1
 694.50390625 287.5 l 1
792.80859375 226.9296875 m 1
 685.5703125 119.69140625 l 1
 700.273356978 123.465595297 715.352038291 125.354483137 730.426988356 125.354483137 c 0
 754.837890214 125.354483137 779.239008217 120.401554669 802.01953125 110.48046875 c 1
 792.098445331 133.260991783 787.145516863 157.662109786 787.145516863 182.073011644 c 0
 787.145516863 197.147961709 789.034404703 212.226643022 792.80859375 226.9296875 c 1
EndSplineSet
EndChar

StartChar: U12252
Encoding: 280 74322 24
Width: 1712
VWidth: 100
Flags: W
HStem: 37.5 25<219.097 695.832 1135.76 1612.5> 537.5 25<219.097 695.832 1135.76 1612.5>
VStem: 100 25<-116.668 -56.5971 -25.8301 125.83 156.597 216.668 383.332 443.403 474.17 625.83 656.597 716.668> 868.848 24.4011<216.449 404.161> 1016.67 25<-116.668 -56.5971 -0.167969 125.83 156.597 216.668 383.332 443.403 474.17 602.045 656.597 716.668>
LayerCount: 2
Fore
SplineSet
100 716.66796875 m 1
 125 716.66796875 l 1
 125 631.376953125 193.876953125 562.5 279.16796875 562.5 c 2
 695.83203125 562.5 l 1
 695.83203125 537.5 l 1
 279.16796875 537.5 l 2
 193.876953125 537.5 125 468.623046875 125 383.33203125 c 1
 100 383.33203125 l 1
 100 716.66796875 l 1
1016.66796875 716.66796875 m 1
 1041.66796875 716.66796875 l 1
 1041.66796875 631.376953125 1110.54101562 562.5 1195.83203125 562.5 c 2
 1612.5 562.5 l 1
 1612.5 537.5 l 1
 1195.83203125 537.5 l 2
 1110.54101562 537.5 1041.66796875 468.623046875 1041.66796875 383.33203125 c 1
 1016.66796875 383.33203125 l 1
 1016.66796875 602.044921875 l 1
 924.497630876 500.954036007 893.249492554 401.896246384 893.249492554 313.036705468 c 0
 893.249492554 264.919743892 902.411959241 219.793076107 916.025390625 178.953125 c 0
 943.694335938 95.947265625 989.783203125 32.408203125 1016.66796875 -0.16796875 c 1
 1016.66796875 216.66796875 l 1
 1041.66796875 216.66796875 l 1
 1041.66796875 131.376953125 1110.54101562 62.5 1195.83203125 62.5 c 2
 1612.5 62.5 l 1
 1612.5 37.5 l 1
 1195.83203125 37.5 l 2
 1110.54101562 37.5 1041.66796875 -31.376953125 1041.66796875 -116.66796875 c 1
 1016.66796875 -116.66796875 l 1
 1016.66796875 -38.5078125 l 1
 678.154296875 300 l 1
 1016.66796875 638.509765625 l 1
 1016.66796875 716.66796875 l 1
125 625.830078125 m 1
 125 474.169921875 l 1
 145.243164062 508.393554688 176.453125 535.291015625 213.857421875 550 c 1
 176.453125 564.708984375 145.243164062 591.606445312 125 625.830078125 c 1
1041.66796875 625.830078125 m 1
 1041.66796875 474.169921875 l 1
 1061.91015625 508.392578125 1093.11816406 535.291015625 1130.52148438 550 c 1
 1093.11816406 564.708984375 1061.91015625 591.607421875 1041.66796875 625.830078125 c 1
916.28125 502.76953125 m 1
 713.509765625 300 l 1
 930.955078125 82.55859375 l 1
 916.7265625 108.836914062 903.145507812 138.5390625 892.30859375 171.048828125 c 0
 878.170074071 213.463496463 868.848394246 260.828439062 868.848394246 311.369339145 c 0
 868.848394246 371.65446662 882.110992219 436.458248253 916.28125 502.76953125 c 1
100 216.66796875 m 1
 125 216.66796875 l 1
 125 131.376953125 193.876953125 62.5 279.16796875 62.5 c 2
 695.83203125 62.5 l 1
 695.83203125 37.5 l 1
 279.16796875 37.5 l 2
 193.876953125 37.5 125 -31.376953125 125 -116.66796875 c 1
 100 -116.66796875 l 1
 100 216.66796875 l 1
125 125.830078125 m 1
 125 -25.830078125 l 1
 145.243164062 8.3935546875 176.453125 35.291015625 213.857421875 50 c 1
 176.453125 64.708984375 145.243164062 91.6064453125 125 125.830078125 c 1
1041.66796875 125.830078125 m 1
 1041.66796875 -25.830078125 l 1
 1061.91015625 8.392578125 1093.11816406 35.291015625 1130.52148438 50 c 1
 1093.11816406 64.708984375 1061.91015625 91.607421875 1041.66796875 125.830078125 c 1
EndSplineSet
EndChar

StartChar: U120f4
Encoding: 281 73972 25
Width: 2221
VWidth: 100
Flags: W
HStem: -146.444 24.6896<991.915 1094.48> 37.5 25<219.097 812.5> 537.5 25<219.097 812.5> 721.755 24.6896<991.915 1094.48>
VStem: 100 25<-116.668 -56.5971 -25.8301 125.83 156.597 216.668 383.332 443.403 474.17 625.83 656.597 716.668> 822.523 24.397<209.836 416.547> 1066.08 24.6678<-276.601 -179.245 779.245 876.601> 1922.52 24.397<209.836 416.547>
LayerCount: 2
Fore
SplineSet
1099.19921875 942.88671875 m 1
 1119.54296875 928.35546875 l 1
 1100.09883845 901.132613819 1090.74460351 869.806583849 1090.74460351 838.792873601 c 0
 1090.74460351 790.736440559 1113.20430024 743.429893133 1155.38671875 713.30078125 c 2
 1711.1484375 316.326171875 l 1
 2103.66210938 708.837890625 l 1
 2121.33789062 691.162109375 l 1
 1990.33118891 560.15540766 1946.92030044 430.800145943 1946.92030044 315.656431596 c 0
 1946.92030044 257.606745099 1957.95391889 203.169165998 1974.359375 153.953125 c 0
 2023.3046875 7.115234375 2121.33789062 -91.162109375 2121.33789062 -91.162109375 c 1
 2103.66210938 -108.837890625 l 1
 1711.1484375 283.673828125 l 1
 1155.38671875 -113.30078125 l 2
 1113.20430024 -143.429893133 1090.74460351 -190.736440559 1090.74460351 -238.792873601 c 0
 1090.74460351 -269.806583849 1100.09883845 -301.132613819 1119.54296875 -328.35546875 c 1
 1099.19921875 -342.88671875 l 1
 905.45703125 -71.64453125 l 1
 925.80078125 -57.11328125 l 1
 955.929978941 -99.2952263653 1003.23634929 -121.754698092 1051.29285973 -121.754698092 c 0
 1082.30639474 -121.754698092 1113.63235092 -112.400692711 1140.85546875 -92.95703125 c 2
 1690.99414062 300 l 1
 1140.85742188 692.95703125 l 2
 1113.63430404 712.400692711 1082.30804739 721.754698092 1051.29414714 721.754698092 c 0
 1003.23707075 721.754698092 955.929978941 699.295226365 925.80078125 657.11328125 c 1
 905.45703125 671.64453125 l 1
 1099.19921875 942.88671875 l 1
1066.74414062 854.4375 m 1
 978.59765625 731.03125 l 1
 1001.60428722 741.206784573 1026.47869986 746.444307806 1051.52176397 746.444307806 c 0
 1066.06067885 746.444307806 1080.65643701 744.679022038 1094.9765625 741.08984375 c 1
 1075.94279339 770.40398833 1066.07682318 804.496644055 1066.07682318 838.940492685 c 0
 1066.07682318 844.103241325 1066.29847863 849.273880098 1066.74414062 854.4375 c 1
100 716.66796875 m 1
 125 716.66796875 l 1
 125 631.376953125 193.876953125 562.5 279.16796875 562.5 c 2
 812.5 562.5 l 1
 812.5 537.5 l 1
 279.16796875 537.5 l 2
 193.876953125 537.5 125 468.623046875 125 383.33203125 c 1
 100 383.33203125 l 1
 100 716.66796875 l 1
1003.66210938 708.837890625 m 1
 1021.33789062 691.162109375 l 1
 890.33118891 560.15540766 846.920300445 430.800145943 846.920300445 315.656431596 c 0
 846.920300445 257.606745099 857.953918895 203.169165998 874.359375 153.953125 c 0
 923.305664062 7.115234375 1021.33789062 -91.162109375 1021.33789062 -91.162109375 c 1
 1003.66210938 -108.837890625 l 1
 594.822265625 300 l 1
 1003.66210938 708.837890625 l 1
125 625.830078125 m 1
 125 474.169921875 l 1
 145.243164062 508.393554688 176.453125 535.291015625 213.857421875 550 c 1
 176.453125 564.708984375 145.243164062 591.606445312 125 625.830078125 c 1
886.90625 556.73046875 m 1
 630.17578125 300 l 1
 905.728515625 24.447265625 l 1
 885.547851562 59.5888671875 865.833007812 100.470703125 850.640625 146.046875 c 0
 833.713567951 196.828477948 822.523310748 253.493894947 822.523310748 313.955974288 c 0
 822.523310748 390.234913372 840.334101409 472.556748247 886.90625 556.73046875 c 1
1986.90625 556.73046875 m 1
 1730.17578125 300 l 1
 2005.72851562 24.447265625 l 1
 1985.54785156 59.5888671875 1965.83300781 100.470703125 1950.640625 146.046875 c 0
 1933.71356795 196.828477948 1922.52331075 253.493894947 1922.52331075 313.955974288 c 0
 1922.52331075 390.234913372 1940.33410141 472.556748247 1986.90625 556.73046875 c 1
100 216.66796875 m 1
 125 216.66796875 l 1
 125 131.376953125 193.876953125 62.5 279.16796875 62.5 c 2
 812.5 62.5 l 1
 812.5 37.5 l 1
 279.16796875 37.5 l 2
 193.876953125 37.5 125 -31.376953125 125 -116.66796875 c 1
 100 -116.66796875 l 1
 100 216.66796875 l 1
125 125.830078125 m 1
 125 -25.830078125 l 1
 145.243164062 8.3935546875 176.453125 35.291015625 213.857421875 50 c 1
 176.453125 64.708984375 145.243164062 91.6064453125 125 125.830078125 c 1
978.59765625 -131.03125 m 1
 1066.74414062 -254.4375 l 1
 1066.29847863 -249.273880098 1066.07682318 -244.103241325 1066.07682318 -238.940492685 c 0
 1066.07682318 -204.496644055 1075.94279339 -170.40398833 1094.9765625 -141.08984375 c 1
 1080.65643701 -144.679022038 1066.06067885 -146.444307806 1051.52176397 -146.444307806 c 0
 1026.47869986 -146.444307806 1001.60428722 -141.206784573 978.59765625 -131.03125 c 1
EndSplineSet
EndChar

StartChar: U121b0
Encoding: 282 74160 26
Width: 1221
VWidth: 100
Flags: W
HStem: 287.5 25<219.097 482.33 517.686 614.266 639.529 1082.35>
VStem: 100 25<133.332 193.403 224.17 375.83 406.597 466.668> 614.984 24.5449<222.735 287.5 312.5 391> 989.234 24.3573<-23.4282 139.407 476.597 639.434>
LayerCount: 2
Fore
SplineSet
1103.66015625 808.837890625 m 1
 1121.33789062 791.162109375 l 1
 1040.33589152 710.160110271 1013.59141571 630.803907939 1013.59141571 560.107802092 c 0
 1013.59141571 524.284217957 1020.4586391 490.684301152 1030.61328125 460.220703125 c 0
 1060.80761719 369.638671875 1121.33789062 308.865234375 1121.33789062 308.865234375 c 1
 1112.5 300.02734375 l 1
 1112.5 299.970703125 l 1
 1121.33789062 291.1328125 l 1
 1040.33589152 210.132109667 1013.59141571 130.777633766 1013.59141571 60.0822570424 c 0
 1013.59141571 24.2590423734 1020.4586391 -9.34076104536 1030.61328125 -39.8046875 c 0
 1060.80761719 -130.387695312 1121.33789062 -191.162109375 1121.33789062 -191.162109375 c 1
 1103.66015625 -208.83984375 l 1
 844.833984375 49.98828125 l 1
 1082.34765625 287.5 l 1
 639.529296875 287.5 l 1
 641.706054688 260.095703125 647.619140625 234.172851562 655.607421875 210.20703125 c 0
 685.801757812 119.624023438 746.33203125 58.849609375 746.33203125 58.849609375 c 1
 728.654296875 41.171875 l 1
 482.330078125 287.5 l 1
 279.16796875 287.5 l 2
 193.876953125 287.5 125 218.623046875 125 133.33203125 c 1
 100 133.33203125 l 1
 100 466.66796875 l 1
 125 466.66796875 l 1
 125 381.376953125 193.876953125 312.5 279.16796875 312.5 c 2
 482.330078125 312.5 l 1
 728.654296875 558.826171875 l 1
 746.33203125 541.150390625 l 1
 666.248046875 461.065429688 639.198242188 382.588867188 638.595703125 312.5 c 1
 1082.34765625 312.5 l 1
 844.833984375 550.01171875 l 1
 1103.66015625 808.837890625 l 1
1017.22851562 687.052734375 m 1
 880.189453125 550.013671875 l 1
 1027.01953125 403.18359375 l 1
 1019.64746094 418.381835938 1012.73730469 434.791992188 1006.89648438 452.314453125 c 0
 996.234365769 484.300336602 989.233760742 520.075899198 989.233760742 558.254806897 c 0
 989.233760742 599.010844919 997.211365116 642.505637139 1017.22851562 687.052734375 c 1
642.22265625 437.0390625 m 1
 517.685546875 312.5 l 1
 614.265625 312.5 l 1
 614.805664062 352.022460938 622.901367188 394.0390625 642.22265625 437.0390625 c 1
125 375.830078125 m 1
 125 224.169921875 l 1
 145.243164062 258.393554688 176.453125 285.291015625 213.857421875 300 c 1
 176.453125 314.708984375 145.243164062 341.606445312 125 375.830078125 c 1
517.685546875 287.5 m 1
 652.01171875 153.171875 l 1
 644.639648438 168.369140625 637.728515625 184.779296875 631.888671875 202.30078125 c 0
 623.18359375 228.416015625 616.990234375 257.086914062 614.984375 287.5 c 1
 517.685546875 287.5 l 1
1017.22851562 187.025390625 m 1
 880.189453125 49.98828125 l 1
 1027.01757812 -96.841796875 l 1
 1019.64550781 -81.6435546875 1012.73730469 -65.232421875 1006.89648438 -47.7109375 c 0
 996.234461279 -15.725340546 989.234114618 20.049639178 989.234114618 58.2278154077 c 0
 989.234114618 98.9837796622 997.211701372 142.478423805 1017.22851562 187.025390625 c 1
EndSplineSet
EndChar

StartChar: U12123
Encoding: 283 74019 27
Width: 1721
VWidth: 100
Flags: W
HStem: 37.5 25<969.097 1440.65> 120.875 25<219.071 487.5> 454.125 25<219.071 487.5> 537.5 25<969.097 1440.65>
VStem: 100 25<-33.25 26.8043 57.5762 209.174 239.946 360.054 390.826 542.424 573.196 633.25> 683.669 24.3929<211.85 413.812> 850 25<-116.668 -80.1758 -25.8301 125.83 156.597 216.668 383.332 443.403 474.17 625.83 680.176 716.668> 1526.3 24.3251<-9.43519 120.693 490.565 620.693>
LayerCount: 2
Fore
SplineSet
1603.66210938 725.505859375 m 1
 1621.33984375 707.830078125 l 1
 1568.1113358 654.601570177 1550.6216213 603.010358817 1550.6216213 556.999179537 c 0
 1550.6216213 533.522544796 1555.17493611 511.498629176 1561.85742188 491.451171875 c 0
 1581.63671875 432.11328125 1621.33984375 392.169921875 1621.33984375 392.169921875 c 1
 1603.66210938 374.4921875 l 1
 1440.65429688 537.5 l 1
 1029.16796875 537.5 l 2
 943.876953125 537.5 875 468.623046875 875 383.33203125 c 1
 850 383.33203125 l 1
 850 643.841796875 l 1
 743.941709624 528.79366274 708.062213402 415.825369181 708.062213402 314.594180487 c 0
 708.062213402 260.299091676 718.383616967 209.3803991 733.734375 163.328125 c 0
 765.90625 66.8115234375 820.189453125 -6.4453125 850 -42.037109375 c 1
 850 216.66796875 l 1
 875 216.66796875 l 1
 875 131.376953125 943.876953125 62.5 1029.16796875 62.5 c 2
 1440.65429688 62.5 l 1
 1603.66210938 225.505859375 l 1
 1621.33984375 207.830078125 l 1
 1568.1113358 154.601570177 1550.6216213 103.010358817 1550.6216213 56.9991795371 c 0
 1550.6216213 33.5225447958 1555.17493611 11.498629176 1561.85742188 -8.548828125 c 0
 1581.63671875 -67.88671875 1621.33984375 -107.830078125 1621.33984375 -107.830078125 c 1
 1603.66210938 -125.5078125 l 1
 1440.65429688 37.5 l 1
 1029.16796875 37.5 l 2
 943.876953125 37.5 875 -31.376953125 875 -116.66796875 c 1
 850 -116.66796875 l 1
 850 -80.17578125 l 1
 469.822265625 300 l 1
 850 680.17578125 l 1
 850 716.66796875 l 1
 875 716.66796875 l 1
 875 631.376953125 943.876953125 562.5 1029.16796875 562.5 c 2
 1440.65429688 562.5 l 1
 1603.66210938 725.505859375 l 1
100 633.25 m 1
 125 633.25 l 1
 125 547.982421875 193.857421875 479.125 279.125 479.125 c 2
 487.5 479.125 l 1
 487.5 454.125 l 1
 279.125 454.125 l 2
 193.857421875 454.125 125 385.267578125 125 300 c 0
 125 214.732421875 193.857421875 145.875 279.125 145.875 c 2
 487.5 145.875 l 1
 487.5 120.875 l 1
 279.125 120.875 l 2
 193.857421875 120.875 125 52.017578125 125 -33.25 c 1
 100 -33.25 l 1
 100 300 l 1
 100 633.25 l 1
875 625.830078125 m 1
 875 474.169921875 l 1
 895.243164062 508.393554688 926.453125 535.291015625 963.857421875 550 c 1
 926.453125 564.708984375 895.243164062 591.606445312 875 625.830078125 c 1
1537.99414062 624.484375 m 1
 1463.50976562 550 l 1
 1542.8203125 470.689453125 l 1
 1541.18066406 474.876953125 1539.60546875 479.153320312 1538.140625 483.546875 c 0
 1530.96192622 505.083496598 1526.29650124 529.244703803 1526.29650124 555.03427384 c 0
 1526.29650124 577.192826592 1529.74068084 600.553493636 1537.99414062 624.484375 c 1
125 542.423828125 m 1
 125 390.826171875 l 1
 145.236328125 425.034179688 176.434570312 451.919921875 213.822265625 466.625 c 1
 176.434570312 481.330078125 145.236328125 508.215820312 125 542.423828125 c 1
741.669921875 536.494140625 m 1
 505.17578125 300 l 1
 758.94140625 46.234375 l 1
 740.981445312 78.111328125 723.575195312 114.743164062 710.015625 155.421875 c 0
 694.143977486 203.036381578 683.669274031 256.178620041 683.669274031 312.881590713 c 0
 683.669274031 383.194145861 699.775577333 458.98181858 741.669921875 536.494140625 c 1
125 209.173828125 m 1
 125 57.576171875 l 1
 145.236328125 91.7841796875 176.434570312 118.669921875 213.822265625 133.375 c 1
 176.435546875 148.080078125 145.236328125 174.966796875 125 209.173828125 c 1
875 125.830078125 m 1
 875 -25.830078125 l 1
 895.243164062 8.3935546875 926.453125 35.291015625 963.857421875 50 c 1
 926.453125 64.708984375 895.243164062 91.6064453125 875 125.830078125 c 1
1537.99414062 124.484375 m 1
 1463.50976562 50 l 1
 1542.8203125 -29.310546875 l 1
 1541.18066406 -25.123046875 1539.60546875 -20.8466796875 1538.140625 -16.453125 c 0
 1530.96192622 5.08349659774 1526.29650124 29.2447038034 1526.29650124 55.0342738403 c 0
 1526.29650124 77.1928265916 1529.74068084 100.553493636 1537.99414062 124.484375 c 1
EndSplineSet
EndChar

StartChar: U12258
Encoding: 284 74328 28
Width: 2212
VWidth: 100
Flags: W
HStem: -45.832 25<969.097 1933.33> 120.875 25<219.071 612.5> 212.5 25<1000.04 1174.47 1565.35 1727.35> 243.646 24.725<1336.55 1388.38> 362.5 25<1000.04 1174.47 1565.35 1716.68> 437.5 25<1633.86 1680.23 1706.36 1773.34 1799.23 1845.83> 454.125 25<219.071 612.5> 620.832 25<969.097 1932.79> 787.5 25<1779.17 1839.78 1870 2021.66 2052.43 2112.5>
VStem: 100 25<-33.25 26.8043 57.5762 209.174 239.946 360.054 390.826 542.424 573.196 633.25> 739.228 24.3598<226.58 388.82> 850 25<-200 -139.929 -109.162 42.4961 83.8296 133.332 466.668 516.17 557.504 709.162 739.929 800> 950 25<150 187.459 211.064 238.936 262.541 337.459 361.064 388.936 412.541 450> 1382.77 24.7258<262.757 314.589> 1515.3 25<150 187.459 211.064 238.936 262.541 337.459 361.064 388.936 412.541 450> 1727.35 25<150 212.5 237.5 360.599> 1933.33 25<-200 -45.832 -20.832 620.832 645.832 691.723>
LayerCount: 2
Fore
SplineSet
1779.16796875 812.5 m 1xf9ff80
 2112.5 812.5 l 1
 2112.5 787.5 l 1
 2027.20898438 787.5 1958.33203125 718.623046875 1958.33203125 633.33203125 c 2
 1958.33203125 -200 l 1
 1933.33203125 -200 l 1
 1933.33203125 -45.83203125 l 1
 1029.16796875 -45.83203125 l 2
 943.876953125 -45.83203125 875 -114.708984375 875 -200 c 1
 850 -200 l 1
 850 44.82421875 l 1
 594.822265625 300 l 1
 850 555.17578125 l 1
 850 800 l 1
 875 800 l 1
 875 714.708984375 943.876953125 645.83203125 1029.16796875 645.83203125 c 2
 1932.78515625 645.83203125 l 1
 1926.43847656 725.247070312 1860.24609375 787.5 1779.16796875 787.5 c 1
 1779.16796875 812.5 l 1xf9ff80
1870.00390625 787.5 m 1
 1904.22558594 767.2578125 1931.12304688 736.048828125 1945.83203125 698.646484375 c 1
 1960.54101562 736.048828125 1987.43945312 767.2578125 2021.66210938 787.5 c 1
 1870.00390625 787.5 l 1
875 709.162109375 m 1
 875 557.50390625 l 1
 895.2421875 591.725585938 926.451171875 618.623046875 963.853515625 633.33203125 c 1
 926.451171875 648.041015625 895.2421875 674.940429688 875 709.162109375 c 1
100 633.25 m 1
 125 633.25 l 1
 125 547.982421875 193.857421875 479.125 279.125 479.125 c 2
 612.5 479.125 l 1
 612.5 454.125 l 1
 279.125 454.125 l 2xfbff80
 193.857421875 454.125 125 385.267578125 125 300 c 0
 125 214.732421875 193.857421875 145.875 279.125 145.875 c 2
 612.5 145.875 l 1
 612.5 120.875 l 1
 279.125 120.875 l 2
 193.857421875 120.875 125 52.017578125 125 -33.25 c 1
 100 -33.25 l 1
 100 300 l 1
 100 633.25 l 1
1029.16796875 620.83203125 m 2
 943.876953125 620.83203125 875 551.958984375 875 466.66796875 c 1
 850 466.66796875 l 1
 850 518.46484375 l 1
 785.562336253 445.374104403 763.587732945 374.174603327 763.587732945 310.090641945 c 0
 763.587732945 274.267044599 770.45463311 240.667000506 780.609375 210.203125 c 0
 799.307617188 154.109375 829.61328125 109.494140625 850 83.61328125 c 1
 850 133.33203125 l 1
 875 133.33203125 l 1
 875 48.041015625 943.876953125 -20.83203125 1029.16796875 -20.83203125 c 2
 1933.33203125 -20.83203125 l 1
 1933.33203125 620.83203125 l 1
 1029.16796875 620.83203125 l 2
125 542.423828125 m 1
 125 390.826171875 l 1
 145.236328125 425.034179688 176.434570312 451.919921875 213.822265625 466.625 c 1
 176.434570312 481.330078125 145.236328125 508.215820312 125 542.423828125 c 1
1633.859375 462.5 m 1xfdff80
 1845.83203125 462.5 l 1
 1845.83203125 437.5 l 1
 1794.05273438 437.5 1752.34765625 395.791015625 1752.34765625 344.01171875 c 2
 1752.34765625 150 l 1
 1727.34765625 150 l 1
 1727.34765625 212.5 l 1
 1602.8046875 212.5 l 2
 1568.13769531 212.5 1540.3046875 184.666992188 1540.3046875 150 c 1
 1515.3046875 150 l 1
 1515.3046875 300 l 1
 1515.3046875 450 l 1
 1540.3046875 450 l 1
 1540.3046875 415.333007812 1568.13769531 387.5 1602.8046875 387.5 c 2
 1716.67578125 387.5 l 1
 1701.06835938 417.264648438 1669.91503906 437.5 1633.859375 437.5 c 1
 1633.859375 462.5 l 1xfdff80
1342.30273438 458.837890625 m 1
 1359.9765625 441.16015625 l 1
 1355.45996094 436.643554688 1353.20166016 430.821289062 1353.20166016 424.999023438 c 0
 1353.20166016 419.176757812 1355.45996094 413.354492188 1359.9765625 408.837890625 c 1
 1359.97851562 408.837890625 l 1
 1401.140625 367.677734375 l 1
 1417.30273438 383.83984375 l 1
 1434.98046875 366.162109375 l 1
 1416.65808106 347.839721681 1407.4967041 323.919847295 1407.4967041 299.999888127 c 0
 1407.4967041 276.080247682 1416.65783692 252.160522459 1434.98046875 233.837890625 c 1
 1417.30273438 216.162109375 l 1
 1398.97998047 234.484863281 1375.06030273 243.646240234 1351.140625 243.646240234 c 0
 1327.22094727 243.646240234 1303.30126953 234.484863281 1284.97851562 216.162109375 c 1
 1267.30273438 233.837890625 l 1
 1283.46484375 250 l 1
 1242.30273438 291.162109375 l 1
 1242.30078125 291.162109375 l 1
 1237.78491214 295.677978489 1231.96156722 297.935546895 1226.13876188 297.935546895 c 0
 1220.31532687 297.935546895 1214.49243154 295.677490208 1209.97851562 291.162109375 c 1
 1192.30078125 308.837890625 l 2
 1192.30078125 308.840820312 1192.31054688 308.842773438 1192.31054688 308.845703125 c 2
 1242.30078125 358.837890625 l 2
 1242.30273438 358.840820312 1242.31054688 358.842773438 1242.31054688 358.845703125 c 2
 1292.30078125 408.837890625 l 2
 1292.30273438 408.840820312 1292.31054688 408.842773438 1292.31054688 408.845703125 c 2
 1342.30273438 458.837890625 l 1
950 450 m 1
 975 450 l 1
 975 415.333007812 1002.83300781 387.5 1037.5 387.5 c 2
 1174.47265625 387.5 l 1
 1174.47265625 362.5 l 1
 1037.5 362.5 l 2
 1002.83300781 362.5 975 334.666992188 975 300 c 0
 975 265.333007812 1002.83300781 237.5 1037.5 237.5 c 2
 1174.47265625 237.5 l 1
 1174.47265625 212.5 l 1
 1037.5 212.5 l 2
 1002.83300781 212.5 975 184.666992188 975 150 c 1
 950 150 l 1
 950 300 l 1
 950 450 l 1
1706.35546875 437.5 m 1
 1720.37402344 426.600585938 1731.85253906 412.653320312 1739.84765625 396.6328125 c 1
 1747.84179688 412.653320312 1759.31933594 426.600585938 1773.33789062 437.5 c 1
 1706.35546875 437.5 l 1
767.2265625 437.05078125 m 1
 630.17578125 300 l 1
 777.01953125 153.15625 l 1
 769.645507812 168.357421875 762.732421875 184.771484375 756.890625 202.296875 c 0
 746.228454397 234.283386809 739.227965571 270.059735831 739.227965571 308.239531025 c 0
 739.227965571 348.999628428 747.206655804 392.499013469 767.2265625 437.05078125 c 1
1298.19335938 402.9453125 m 1
 1309.9765625 391.16015625 l 1
 1305.45996094 386.643554688 1303.20166016 380.821289062 1303.20166016 374.999023438 c 0
 1303.20166016 369.176757812 1305.45996094 363.354492188 1309.9765625 358.837890625 c 1
 1309.97851562 358.837890625 l 1
 1351.140625 317.677734375 l 1
 1383.46289062 350 l 1
 1342.30273438 391.162109375 l 1
 1342.30078125 391.162109375 l 1
 1337.78491214 395.677978489 1331.96156722 397.935546895 1326.13876188 397.935546895 c 0
 1320.31532687 397.935546895 1314.49243154 395.677490208 1309.97851562 391.162109375 c 1
 1298.19335938 402.9453125 l 1
975 388.935546875 m 1
 975 361.064453125 l 1
 980.26171875 366.448242188 986.232421875 371.10546875 992.720703125 375 c 1
 986.232421875 378.89453125 980.26171875 383.551757812 975 388.935546875 c 1
1540.3046875 388.935546875 m 1
 1540.3046875 361.064453125 l 1
 1545.56640625 366.448242188 1551.53710938 371.10546875 1558.02539062 375 c 1
 1551.53710938 378.89453125 1545.56640625 383.551757812 1540.3046875 388.935546875 c 1
1602.8046875 362.5 m 2
 1568.13769531 362.5 1540.3046875 334.666992188 1540.3046875 300 c 0
 1540.3046875 265.333007812 1568.13769531 237.5 1602.8046875 237.5 c 2
 1727.34765625 237.5 l 1
 1727.34765625 344.01171875 l 2
 1727.34765625 350.345703125 1726.71582031 356.525390625 1725.52539062 362.5 c 1
 1602.8046875 362.5 l 2
1248.19335938 352.9453125 m 1
 1259.9765625 341.16015625 l 1
 1255.45996094 336.643554688 1253.20166016 330.821289062 1253.20166016 324.999023438 c 0
 1253.20166016 319.176757812 1255.45996094 313.354492188 1259.9765625 308.837890625 c 1
 1259.97851562 308.837890625 l 1
 1301.140625 267.677734375 l 1
 1333.46289062 300 l 1
 1292.30273438 341.162109375 l 1
 1292.30078125 341.162109375 l 1
 1287.78491214 345.677978489 1281.96156722 347.935546895 1276.13876188 347.935546895 c 0
 1270.31532687 347.935546895 1264.49243154 345.677490208 1259.97851562 341.162109375 c 1
 1248.19335938 352.9453125 l 1
1383.69921875 314.880859375 m 1
 1336.25976562 267.443359375 l 1
 1341.19363634 268.062107012 1346.15575644 268.371256674 1351.11634522 268.371256674 c 0
 1363.89681878 268.371256674 1376.66712762 266.319167557 1388.91796875 262.22265625 c 1
 1384.82202333 274.47180506 1382.77094863 287.240278072 1382.77094863 300.018983334 c 0
 1382.77094863 304.981336497 1383.0802509 309.945232683 1383.69921875 314.880859375 c 1
975 238.935546875 m 1
 975 211.064453125 l 1
 980.26171875 216.448242188 986.232421875 221.10546875 992.720703125 225 c 1
 986.232421875 228.89453125 980.26171875 233.551757812 975 238.935546875 c 1
1540.3046875 238.935546875 m 1
 1540.3046875 211.064453125 l 1
 1545.56640625 216.448242188 1551.53710938 221.10546875 1558.02539062 225 c 1
 1551.53710938 228.89453125 1545.56640625 233.551757812 1540.3046875 238.935546875 c 1
125 209.173828125 m 1
 125 57.576171875 l 1
 145.236328125 91.7841796875 176.434570312 118.669921875 213.822265625 133.375 c 1
 176.435546875 148.080078125 145.236328125 174.966796875 125 209.173828125 c 1
875 42.49609375 m 1
 875 -109.162109375 l 1
 895.2421875 -74.939453125 926.452148438 -48.041015625 963.85546875 -33.33203125 c 1
 926.452148438 -18.623046875 895.2421875 8.2734375 875 42.49609375 c 1
EndSplineSet
EndChar

StartChar: U12124
Encoding: 285 74020 29
Width: 2221
VWidth: 100
Flags: W
HStem: -45.832 25<1344.1 1940.65> 37.5 25<219.097 987.5> 537.5 25<219.097 987.5> 620.832 25<1344.1 1940.65>
VStem: 100 25<-116.668 -56.5971 -25.8301 125.83 156.597 216.668 383.332 443.403 474.17 625.83 656.597 716.668> 1114.23 24.3598<226.58 388.82> 1225 25<-200 -139.929 -109.162 42.4961 83.8296 133.332 466.668 516.17 557.504 709.162 739.929 800> 1448.75 24.322<198.592 233.884 365.258 400.551> 1886.25 24.322<198.592 233.884 365.258 400.551> 2026.3 24.3251<-92.7663 37.3586 573.9 704.025>
LayerCount: 2
Fore
SplineSet
2103.66210938 808.837890625 m 1
 2121.33984375 791.162109375 l 1
 2068.1113358 737.933601427 2050.6216213 686.343674557 2050.6216213 640.333646721 c 0
 2050.6216213 616.857599489 2055.17493611 594.834236742 2061.85742188 574.787109375 c 0
 2081.63671875 515.450195312 2121.33984375 475.5078125 2121.33984375 475.5078125 c 1
 2103.66210938 457.828125 l 1
 1940.65429688 620.83203125 l 1
 1404.16796875 620.83203125 l 2
 1318.87695312 620.83203125 1250 551.958984375 1250 466.66796875 c 1
 1225 466.66796875 l 1
 1225 518.46484375 l 1
 1160.56233625 445.374104403 1138.58773294 374.174603327 1138.58773294 310.090641945 c 0
 1138.58773294 274.267044599 1145.45463311 240.667000506 1155.609375 210.203125 c 0
 1174.30761719 154.109375 1204.61328125 109.494140625 1225 83.61328125 c 1
 1225 133.33203125 l 1
 1250 133.33203125 l 1
 1250 48.041015625 1318.87695312 -20.83203125 1404.16796875 -20.83203125 c 2
 1940.65429688 -20.83203125 l 1
 2103.66210938 142.171875 l 1
 2121.33984375 124.4921875 l 1
 2068.1113358 71.2649728088 2050.6216213 19.6767673584 2050.6216213 -26.3325284302 c 0
 2050.6216213 -49.8082021437 2055.17493611 -71.831448949 2061.85742188 -91.87890625 c 0
 2081.63671875 -151.216796875 2121.33984375 -191.16015625 2121.33984375 -191.16015625 c 1
 2103.66210938 -208.837890625 l 1
 1940.65429688 -45.83203125 l 1
 1404.16796875 -45.83203125 l 2
 1318.87695312 -45.83203125 1250 -114.708984375 1250 -200 c 1
 1225 -200 l 1
 1225 44.82421875 l 1
 969.822265625 300 l 1
 1225 555.17578125 l 1
 1225 800 l 1
 1250 800 l 1
 1250 714.708984375 1318.87695312 645.83203125 1404.16796875 645.83203125 c 2
 1940.65429688 645.83203125 l 1
 2103.66210938 808.837890625 l 1
100 716.66796875 m 1
 125 716.66796875 l 1
 125 631.376953125 193.876953125 562.5 279.16796875 562.5 c 2
 987.5 562.5 l 1
 987.5 537.5 l 1
 279.16796875 537.5 l 2
 193.876953125 537.5 125 468.623046875 125 383.33203125 c 1
 100 383.33203125 l 1
 100 716.66796875 l 1
1250 709.162109375 m 1
 1250 557.50390625 l 1
 1270.2421875 591.725585938 1301.45117188 618.623046875 1338.85351562 633.33203125 c 1
 1301.45117188 648.041015625 1270.2421875 674.940429688 1250 709.162109375 c 1
2037.99414062 707.81640625 m 1
 1963.50976562 633.33203125 l 1
 2042.8203125 554.025390625 l 1
 2041.18066406 558.212890625 2039.60546875 562.487304688 2038.140625 566.880859375 c 0
 2030.96192622 588.416955715 2026.29650124 612.577637663 2026.29650124 638.366834398 c 0
 2026.29650124 660.525066406 2029.74068084 683.885524886 2037.99414062 707.81640625 c 1
125 625.830078125 m 1
 125 474.169921875 l 1
 145.243164062 508.393554688 176.453125 535.291015625 213.857421875 550 c 1
 176.453125 564.708984375 145.243164062 591.606445312 125 625.830078125 c 1
1489.078125 475.505859375 m 1
 1506.75585938 457.830078125 l 1
 1481.31009595 432.384314699 1473.07339873 408.552046196 1473.07339873 387.230343237 c 0
 1473.07339873 376.106088944 1475.31547892 365.665226198 1478.52539062 356.03515625 c 0
 1487.88867188 327.947265625 1506.75585938 308.837890625 1506.75585938 308.837890625 c 1
 1497.91796875 300 l 1
 1506.75585938 291.16015625 l 1
 1481.31007734 265.715657705 1473.07296497 241.884656443 1473.07296497 220.56367079 c 0
 1473.07296497 209.439814465 1475.3151486 198.999197076 1478.52539062 189.369140625 c 0
 1487.88867188 161.28125 1506.75585938 142.169921875 1506.75585938 142.169921875 c 1
 1489.078125 124.494140625 l 1
 1396.90429688 216.66796875 l 1
 1480.24023438 300 l 1
 1396.90429688 383.33203125 l 1
 1489.078125 475.505859375 l 1
1926.578125 475.505859375 m 1
 1944.25585938 457.830078125 l 1
 1918.81009595 432.384314699 1910.57339873 408.552046196 1910.57339873 387.230343237 c 0
 1910.57339873 376.106088944 1912.81547892 365.665226198 1916.02539062 356.03515625 c 0
 1925.38867188 327.947265625 1944.25585938 308.837890625 1944.25585938 308.837890625 c 1
 1935.41796875 300 l 1
 1944.25585938 291.16015625 l 1
 1918.81007734 265.715657705 1910.57296497 241.884656443 1910.57296497 220.56367079 c 0
 1910.57296497 209.439814465 1912.8151486 198.999197076 1916.02539062 189.369140625 c 0
 1925.38867188 161.28125 1944.25585938 142.169921875 1944.25585938 142.169921875 c 1
 1926.578125 124.494140625 l 1
 1834.40429688 216.66796875 l 1
 1917.74023438 300 l 1
 1834.40429688 383.33203125 l 1
 1926.578125 475.505859375 l 1
1142.2265625 437.05078125 m 1
 1005.17578125 300 l 1
 1152.01953125 153.15625 l 1
 1144.64550781 168.357421875 1137.73242188 184.771484375 1131.890625 202.296875 c 0
 1121.2284544 234.283386809 1114.22796557 270.059735831 1114.22796557 308.239531025 c 0
 1114.22796557 348.999628428 1122.2066558 392.499013469 1142.2265625 437.05078125 c 1
1449.73632812 400.810546875 m 1
 1432.25976562 383.333984375 l 1
 1450.68945312 364.90234375 l 1
 1449.46991329 371.662348671 1448.75025769 378.743478366 1448.75025769 386.084050194 c 0
 1448.75025769 390.887548403 1449.05842048 395.802141989 1449.73632812 400.810546875 c 1
1887.23632812 400.810546875 m 1
 1869.75976562 383.333984375 l 1
 1888.18945312 364.90234375 l 1
 1886.96991329 371.662348671 1886.25025769 378.743478366 1886.25025769 386.084050194 c 0
 1886.25025769 390.887548403 1886.55842048 395.802141989 1887.23632812 400.810546875 c 1
1449.73632812 234.142578125 m 1
 1432.25976562 216.666015625 l 1
 1450.68945312 198.236328125 l 1
 1449.47039909 204.996322183 1448.75095813 212.077852937 1448.75095813 219.418790426 c 0
 1448.75095813 224.221486946 1449.0588955 229.135215547 1449.73632812 234.142578125 c 1
1887.23632812 234.142578125 m 1
 1869.75976562 216.666015625 l 1
 1888.18945312 198.236328125 l 1
 1886.97039909 204.996322183 1886.25095813 212.077852937 1886.25095813 219.418790426 c 0
 1886.25095813 224.221486946 1886.5588955 229.135215547 1887.23632812 234.142578125 c 1
100 216.66796875 m 1
 125 216.66796875 l 1
 125 131.376953125 193.876953125 62.5 279.16796875 62.5 c 2
 987.5 62.5 l 1
 987.5 37.5 l 1
 279.16796875 37.5 l 2
 193.876953125 37.5 125 -31.376953125 125 -116.66796875 c 1
 100 -116.66796875 l 1
 100 216.66796875 l 1
125 125.830078125 m 1
 125 -25.830078125 l 1
 145.243164062 8.3935546875 176.453125 35.291015625 213.857421875 50 c 1
 176.453125 64.708984375 145.243164062 91.6064453125 125 125.830078125 c 1
1250 42.49609375 m 1
 1250 -109.162109375 l 1
 1270.2421875 -74.939453125 1301.45214844 -48.041015625 1338.85546875 -33.33203125 c 1
 1301.45214844 -18.623046875 1270.2421875 8.2734375 1250 42.49609375 c 1
2037.99414062 41.150390625 m 1
 1963.50976562 -33.33203125 l 1
 2042.81835938 -112.640625 l 1
 2041.17871094 -108.454101562 2039.60449219 -104.177734375 2038.140625 -99.78515625 c 0
 2030.96192622 -78.2485346523 2026.29650124 -54.0878924812 2026.29650124 -28.2988446899 c 0
 2026.29650124 -6.14074065519 2029.74068084 17.2195092609 2037.99414062 41.150390625 c 1
EndSplineSet
EndChar

StartChar: LIG_NI2NDAxCE_A_AN_DMS
Encoding: 286 -1 30
Width: 3212
VWidth: 100
Flags: W
HStem: -45.832 25<941.318 1556.95> 120.875 25<219.071 822.223> 287.5 25<2331.89 2377.78 2496.87 2933.33> 454.125 25<219.071 822.223> 620.832 25<941.318 1556.95 1890.28 1950.35 1981.12 2043.9 2069.99 2132.77 2163.54 2223.61> 787.5 25<1556.95 1617.02 1647.78 1799.44 1830.21 1950.89 1981.12 2132.77 2162.99 2223.61 2779.17 2839.24 2870 3021.66 3052.43 3112.5>
VStem: 100 25<-33.25 26.8043 57.5762 209.174 239.946 360.054 390.826 542.424 573.196 633.25> 822.223 25<-200 -139.929 -109.162 42.4941 73.2617 120.875 479.125 526.738 557.504 709.162 739.929 800> 952.223 24.3248<240.565 370.694> 1188.33 24.3224<198.594 233.884 365.259 400.549> 1429.08 24.322<198.592 233.884 365.258 400.551> 1711.11 25<-200 693.403> 2044.45 25<-200 526.738 645.832 691.723> 2211.11 25<133.332 193.949 224.17 375.83 406.051 466.668> 2377.78 25<133.332 193.403 224.17 286.955 313.045 375.83 406.597 466.668> 2933.33 25<-200 287.5 312.5 693.403>
LayerCount: 2
Fore
SplineSet
1556.9453125 812.5 m 1
 1890.27734375 812.5 l 1
 2223.609375 812.5 l 1
 2223.609375 787.5 l 1
 2142.53125 787.5 2076.33691406 725.247070312 2069.99023438 645.83203125 c 1
 2223.609375 645.83203125 l 1
 2223.609375 620.83203125 l 1
 2138.31835938 620.83203125 2069.4453125 551.958984375 2069.4453125 466.66796875 c 2
 2069.4453125 -200 l 1
 2044.4453125 -200 l 1
 2044.4453125 466.66796875 l 2
 2044.4453125 551.958984375 1975.56835938 620.83203125 1890.27734375 620.83203125 c 1
 1890.27734375 645.83203125 l 1
 2043.8984375 645.83203125 l 1
 2037.55175781 725.247070312 1971.35546875 787.5 1890.27734375 787.5 c 0
 1804.98632812 787.5 1736.109375 718.623046875 1736.109375 633.33203125 c 2
 1736.109375 -200 l 1
 1711.109375 -200 l 1
 1711.109375 633.33203125 l 2
 1711.109375 718.623046875 1642.23632812 787.5 1556.9453125 787.5 c 1
 1556.9453125 812.5 l 1
2779.16796875 812.5 m 1
 3112.5 812.5 l 1
 3112.5 787.5 l 1
 3027.20898438 787.5 2958.33203125 718.623046875 2958.33203125 633.33203125 c 2
 2958.33203125 -200 l 1
 2933.33203125 -200 l 1
 2933.33203125 287.5 l 1
 2556.9453125 287.5 l 2
 2471.65429688 287.5 2402.77734375 218.623046875 2402.77734375 133.33203125 c 1
 2377.77734375 133.33203125 l 1
 2377.77734375 286.955078125 l 1
 2298.36328125 280.608398438 2236.109375 214.41015625 2236.109375 133.33203125 c 1
 2211.109375 133.33203125 l 1
 2211.109375 466.66796875 l 1
 2236.109375 466.66796875 l 1
 2236.109375 385.58984375 2298.36328125 319.391601562 2377.77734375 313.044921875 c 1
 2377.77734375 466.66796875 l 1
 2402.77734375 466.66796875 l 1
 2402.77734375 381.376953125 2471.65429688 312.5 2556.9453125 312.5 c 2
 2933.33203125 312.5 l 1
 2933.33203125 633.33203125 l 2
 2933.33203125 718.623046875 2864.45898438 787.5 2779.16796875 787.5 c 1
 2779.16796875 812.5 l 1
822.22265625 800 m 1
 847.22265625 800 l 1
 847.22265625 714.708984375 916.095703125 645.83203125 1001.390625 645.83203125 c 2
 1556.9453125 645.83203125 l 1
 1556.9453125 620.83203125 l 1
 1001.390625 620.83203125 l 2
 916.095703125 620.83203125 847.22265625 551.958984375 847.22265625 466.66796875 c 1
 834.72265625 466.66796875 l 1
 834.72265625 454.125 l 1
 279.125 454.125 l 2
 193.857421875 454.125 125 385.267578125 125 300 c 0
 125 214.732421875 193.857421875 145.875 279.125 145.875 c 2
 834.72265625 145.875 l 1
 834.72265625 133.33203125 l 1
 847.22265625 133.33203125 l 1
 847.22265625 48.041015625 916.095703125 -20.83203125 1001.390625 -20.83203125 c 2
 1556.9453125 -20.83203125 l 1
 1556.9453125 -45.83203125 l 1
 1001.390625 -45.83203125 l 2
 916.095703125 -45.83203125 847.22265625 -114.708984375 847.22265625 -200 c 1
 822.22265625 -200 l 1
 822.22265625 120.875 l 1
 279.125 120.875 l 2
 193.857421875 120.875 125 52.017578125 125 -33.25 c 1
 100 -33.25 l 1
 100 300 l 1
 100 633.25 l 1
 125 633.25 l 1
 125 547.982421875 193.857421875 479.125 279.125 479.125 c 2
 822.22265625 479.125 l 1
 822.22265625 800 l 1
1647.78125 787.5 m 1
 1682.00292969 767.2578125 1708.90039062 736.047851562 1723.609375 698.64453125 c 1
 1738.31835938 736.047851562 1765.21679688 767.2578125 1799.43945312 787.5 c 1
 1647.78125 787.5 l 1
1981.11523438 787.5 m 1
 2015.33789062 767.2578125 2042.23828125 736.047851562 2056.94726562 698.64453125 c 1
 2071.65625 736.046875 2098.55175781 767.2578125 2132.7734375 787.5 c 1
 1981.11523438 787.5 l 1
2870.00390625 787.5 m 1
 2904.22558594 767.2578125 2931.12304688 736.048828125 2945.83203125 698.646484375 c 1
 2960.54101562 736.048828125 2987.43945312 767.2578125 3021.66210938 787.5 c 1
 2870.00390625 787.5 l 1
847.22265625 709.162109375 m 1
 847.22265625 557.50390625 l 1
 867.46484375 591.725585938 898.672851562 618.624023438 936.076171875 633.33203125 c 1
 898.672851562 648.041015625 867.46484375 674.939453125 847.22265625 709.162109375 c 1
1981.11523438 620.83203125 m 1
 2015.33886719 600.58984375 2042.23828125 569.381835938 2056.94726562 531.978515625 c 1
 2071.65625 569.380859375 2098.55175781 600.590820312 2132.7734375 620.83203125 c 1
 1981.11523438 620.83203125 l 1
125 542.423828125 m 1
 125 390.826171875 l 1
 145.236328125 425.034179688 176.434570312 451.919921875 213.822265625 466.625 c 1
 176.434570312 481.330078125 145.236328125 508.215820312 125 542.423828125 c 1
1029.58789062 475.505859375 m 1
 1047.265625 457.830078125 l 1
 994.037117052 404.601570177 976.547402554 353.010358817 976.547402554 306.999179537 c 0
 976.547402554 283.522544796 981.100717358 261.498629176 987.783203125 241.451171875 c 0
 1007.5625 182.11328125 1047.265625 142.169921875 1047.265625 142.169921875 c 1
 1029.58789062 124.4921875 l 1
 854.080078125 300 l 1
 1029.58789062 475.505859375 l 1
1228.66015625 475.505859375 m 1
 1246.33984375 457.830078125 l 1
 1220.89470352 432.383654377 1212.65783571 408.550809295 1212.65783571 387.228683338 c 0
 1212.65783571 376.105050324 1214.89962295 365.664747215 1218.109375 356.03515625 c 0
 1227.47167969 327.947265625 1246.33789062 308.837890625 1246.33789062 308.837890625 c 1
 1237.5 300 l 1
 1246.33789062 291.162109375 l 1
 1220.89364373 265.717862478 1212.65730439 241.886237527 1212.65730439 220.564834741 c 0
 1212.65730439 209.440439891 1214.89940694 198.999379626 1218.109375 189.369140625 c 0
 1227.47167969 161.28125 1246.33984375 142.169921875 1246.33984375 142.169921875 c 1
 1228.66015625 124.494140625 l 1
 1136.49023438 216.66796875 l 1
 1219.82226562 300 l 1
 1136.49023438 383.33203125 l 1
 1228.66015625 475.505859375 l 1
1469.40429688 475.505859375 m 1
 1487.08007812 457.830078125 l 1
 1461.63429609 432.384296092 1453.39718372 408.552011342 1453.39718372 387.230296464 c 0
 1453.39718372 376.106059678 1455.63936735 365.665212701 1458.84960938 356.03515625 c 0
 1468.21191406 327.947265625 1487.08007812 308.837890625 1487.08007812 308.837890625 c 1
 1478.2421875 300 l 1
 1487.08007812 291.16015625 l 1
 1461.63429609 265.715657705 1453.39718372 241.884656443 1453.39718372 220.56367079 c 0
 1453.39718372 209.439814465 1455.63936735 198.999197076 1458.84960938 189.369140625 c 0
 1468.21289062 161.28125 1487.08007812 142.169921875 1487.08007812 142.169921875 c 1
 1469.40429688 124.494140625 l 1
 1377.22851562 216.66796875 l 1
 1460.56445312 300 l 1
 1377.22851562 383.33203125 l 1
 1469.40429688 475.505859375 l 1
1430.06054688 400.810546875 m 1
 1412.58398438 383.333984375 l 1
 1431.01367188 364.90234375 l 1
 1429.79413204 371.662348671 1429.07447644 378.743478366 1429.07447644 386.084050194 c 0
 1429.07447644 390.887548403 1429.38263923 395.802141989 1430.06054688 400.810546875 c 1
1189.3203125 400.806640625 m 1
 1171.84570312 383.33203125 l 1
 1190.2734375 364.904296875 l 1
 1189.05438347 371.663700592 1188.3349425 378.744284139 1188.3349425 386.084349012 c 0
 1188.3349425 390.886474636 1188.64287988 395.799664269 1189.3203125 400.806640625 c 1
2236.109375 375.830078125 m 1
 2236.109375 224.169921875 l 1
 2256.35253906 258.393554688 2287.5625 285.291015625 2324.96679688 300 c 1
 2287.5625 314.708984375 2256.35253906 341.606445312 2236.109375 375.830078125 c 1
2402.77734375 375.830078125 m 1
 2402.77734375 224.169921875 l 1
 2423.02050781 258.393554688 2454.23046875 285.291015625 2491.63476562 300 c 1
 2454.23046875 314.708984375 2423.02050781 341.606445312 2402.77734375 375.830078125 c 1
963.921875 374.486328125 m 1
 889.435546875 300 l 1
 968.74609375 220.689453125 l 1
 967.106445312 224.876953125 965.53125 229.153320312 964.06640625 233.546875 c 0
 956.88761462 255.082199437 952.222641494 279.242075815 952.222641494 305.030309427 c 0
 952.222641494 327.190601875 955.667385313 350.553317867 963.921875 374.486328125 c 1
1189.3203125 234.142578125 m 1
 1171.84570312 216.66796875 l 1
 1190.2734375 198.240234375 l 1
 1189.05438347 204.999638092 1188.3349425 212.080221639 1188.3349425 219.420286512 c 0
 1188.3349425 224.222412136 1188.64287988 229.135601769 1189.3203125 234.142578125 c 1
1430.06054688 234.142578125 m 1
 1412.58398438 216.666015625 l 1
 1431.01367188 198.236328125 l 1
 1429.79461784 204.996322183 1429.07517688 212.077852937 1429.07517688 219.418790426 c 0
 1429.07517688 224.221486946 1429.38311425 229.135215547 1430.06054688 234.142578125 c 1
125 209.173828125 m 1
 125 57.576171875 l 1
 145.236328125 91.7841796875 176.434570312 118.669921875 213.822265625 133.375 c 1
 176.435546875 148.080078125 145.236328125 174.966796875 125 209.173828125 c 1
847.22265625 42.494140625 m 1
 847.22265625 -109.162109375 l 1
 867.46484375 -74.939453125 898.672851562 -48.041015625 936.076171875 -33.33203125 c 1
 898.673828125 -18.6240234375 867.46484375 8.2724609375 847.22265625 42.494140625 c 1
EndSplineSet
Ligature2: "ligsubtable" U1225a U12000 U1202d
EndChar

StartChar: U1232b
Encoding: 287 74539 31
Width: 2212
VWidth: 100
Flags: W
HStem: -45.832 25<219.097 1016.67 1135.76 1474.46 1500.54 1933.33> 120.832 25<1320.83 1381.45 1411.67 1563.33 1593.55 1654.17> 287.5 25<219.097 1016.67 1135.76 1933.33> 787.5 25<1779.17 1839.24 1870 2021.66 2052.43 2112.5>
VStem: 100 25<-200 -139.929 -109.162 42.4961 73.2617 193.403 224.17 375.83 406.597 466.668> 567.964 24.3246<573.9 704.027> 1016.67 25<-200 -139.929 -109.162 -45.832 -20.832 42.4941 73.2617 193.403 224.17 287.5 312.5 375.83 406.597 466.668> 1475 25<-200 -45.832 -20.832 25.0585> 1933.33 25<-200 -45.832 -20.832 287.5 312.5 693.403>
LayerCount: 2
Fore
SplineSet
1779.16796875 812.5 m 1
 2112.5 812.5 l 1
 2112.5 787.5 l 1
 2027.20898438 787.5 1958.33203125 718.623046875 1958.33203125 633.33203125 c 2
 1958.33203125 -200 l 1
 1933.33203125 -200 l 1
 1933.33203125 -45.83203125 l 1
 1500 -45.83203125 l 1
 1500 -200 l 1
 1475 -200 l 1
 1475 -45.83203125 l 1
 1195.83203125 -45.83203125 l 2
 1110.54101562 -45.83203125 1041.66796875 -114.708984375 1041.66796875 -200 c 1
 1016.66796875 -200 l 1
 1016.66796875 -45.83203125 l 1
 279.16796875 -45.83203125 l 2
 193.876953125 -45.83203125 125 -114.708984375 125 -200 c 1
 100 -200 l 1
 100 133.33203125 l 1
 100 466.66796875 l 1
 125 466.66796875 l 1
 125 381.376953125 193.876953125 312.5 279.16796875 312.5 c 2
 1016.66796875 312.5 l 1
 1016.66796875 466.66796875 l 1
 1041.66796875 466.66796875 l 1
 1041.66796875 381.376953125 1110.54101562 312.5 1195.83203125 312.5 c 2
 1933.33203125 312.5 l 1
 1933.33203125 633.33203125 l 2
 1933.33203125 718.623046875 1864.45898438 787.5 1779.16796875 787.5 c 1
 1779.16796875 812.5 l 1
645.330078125 808.837890625 m 1
 663.005859375 791.162109375 l 1
 609.778231931 737.934481931 592.289071866 686.345381355 592.289071866 640.335930014 c 0
 592.289071866 616.859027492 596.842688211 594.834886672 603.525390625 574.787109375 c 0
 623.3046875 515.450195312 663.005859375 475.5078125 663.005859375 475.5078125 c 1
 645.330078125 457.828125 l 1
 469.822265625 633.33203125 l 1
 645.330078125 808.837890625 l 1
1870.00390625 787.5 m 1
 1904.22558594 767.2578125 1931.12304688 736.048828125 1945.83203125 698.646484375 c 1
 1960.54101562 736.048828125 1987.43945312 767.2578125 2021.66210938 787.5 c 1
 1870.00390625 787.5 l 1
579.662109375 707.818359375 m 1
 505.177734375 633.333984375 l 1
 584.48828125 554.0234375 l 1
 582.848632812 558.211914062 581.2734375 562.487304688 579.80859375 566.880859375 c 0
 572.62989497 588.416955715 567.964469986 612.578202697 567.964469986 638.367921678 c 0
 567.964469986 660.526602402 571.408649593 683.887478011 579.662109375 707.818359375 c 1
125 375.830078125 m 1
 125 224.169921875 l 1
 145.243164062 258.393554688 176.453125 285.291015625 213.857421875 300 c 1
 176.453125 314.708984375 145.243164062 341.606445312 125 375.830078125 c 1
1041.66796875 375.830078125 m 1
 1041.66796875 224.169921875 l 1
 1061.91015625 258.392578125 1093.11816406 285.291015625 1130.52148438 300 c 1
 1093.11816406 314.708984375 1061.91015625 341.607421875 1041.66796875 375.830078125 c 1
279.16796875 287.5 m 2
 193.876953125 287.5 125 218.623046875 125 133.33203125 c 0
 125 48.041015625 193.876953125 -20.83203125 279.16796875 -20.83203125 c 2
 1016.66796875 -20.83203125 l 1
 1016.66796875 133.33203125 l 1
 1016.66796875 287.5 l 1
 279.16796875 287.5 l 2
1195.83203125 287.5 m 2
 1110.54101562 287.5 1041.66796875 218.623046875 1041.66796875 133.33203125 c 0
 1041.66796875 48.041015625 1110.54101562 -20.83203125 1195.83203125 -20.83203125 c 2
 1474.45507812 -20.83203125 l 1
 1468.10839844 58.58203125 1401.91015625 120.83203125 1320.83203125 120.83203125 c 1
 1320.83203125 145.83203125 l 1
 1654.16796875 145.83203125 l 1
 1654.16796875 120.83203125 l 1
 1573.08984375 120.83203125 1506.89160156 58.58203125 1500.54492188 -20.83203125 c 1
 1933.33203125 -20.83203125 l 1
 1933.33203125 287.5 l 1
 1195.83203125 287.5 l 2
1411.66992188 120.83203125 m 1
 1445.89355469 100.58984375 1472.79101562 69.3818359375 1487.5 31.978515625 c 1
 1502.20898438 69.3818359375 1529.10742188 100.58984375 1563.33007812 120.83203125 c 1
 1411.66992188 120.83203125 l 1
125 42.49609375 m 1
 125 -109.162109375 l 1
 145.2421875 -74.939453125 176.452148438 -48.041015625 213.85546875 -33.33203125 c 1
 176.452148438 -18.623046875 145.2421875 8.2734375 125 42.49609375 c 1
1041.66796875 42.494140625 m 1
 1041.66796875 -109.162109375 l 1
 1061.91015625 -74.939453125 1093.11816406 -48.041015625 1130.52148438 -33.33203125 c 1
 1093.11914062 -18.6240234375 1061.90917969 8.2724609375 1041.66796875 42.494140625 c 1
EndSplineSet
EndChar

StartChar: U12308
Encoding: 288 74504 32
Width: 2212
VWidth: 100
Flags: W
HStem: -87.5 25<1186.22 2112.5> -45.832 25<219.097 1100> 162.5 25<1519.55 2112.5> 287.5 25<219.097 1112.5> 412.5 25<1519.55 2112.5> 662.5 25<1519.55 2112.5>
VStem: 100 25<-200 -139.929 -109.162 42.4961 73.2617 193.403 224.17 375.83 406.597 466.668> 609.63 24.3245<573.9 704.027> 1100 25<-200 -148.719 -121.211 -45.832 -1.28064 50> 1433.33 25<50 101.281 128.789 221.211 248.719 351.281 378.789 471.211 498.719 601.281 628.789 721.211 748.719 800>
LayerCount: 2
Fore
SplineSet
686.9921875 808.837890625 m 1
 704.669921875 791.162109375 l 1
 651.44381231 737.93470658 633.955012162 686.345816822 633.955012162 640.336512568 c 0
 633.955012162 616.859391828 638.508648561 594.835052493 645.19140625 574.787109375 c 0
 664.970703125 515.450195312 704.669921875 475.505859375 704.669921875 475.505859375 c 1
 686.9921875 457.830078125 l 1
 511.490234375 633.33203125 l 1
 686.9921875 808.837890625 l 1
1433.33203125 800 m 1
 1458.33203125 800 l 1
 1458.33203125 737.720703125 1508.55273438 687.5 1570.83203125 687.5 c 2
 2112.5 687.5 l 1
 2112.5 662.5 l 1
 1570.83203125 662.5 l 2
 1508.55273438 662.5 1458.33203125 612.279296875 1458.33203125 550 c 0
 1458.33203125 487.720703125 1508.55273438 437.5 1570.83203125 437.5 c 2
 2112.5 437.5 l 1
 2112.5 412.5 l 1
 1570.83203125 412.5 l 2
 1508.55273438 412.5 1458.33203125 362.279296875 1458.33203125 300 c 0
 1458.33203125 237.720703125 1508.55273438 187.5 1570.83203125 187.5 c 2
 2112.5 187.5 l 1
 2112.5 162.5 l 1
 1570.83203125 162.5 l 2
 1508.55273438 162.5 1458.33203125 112.279296875 1458.33203125 50 c 1
 1433.33203125 50 l 1
 1433.33203125 300 l 1
 1433.33203125 550 l 1
 1433.33203125 800 l 1
1458.33203125 721.2109375 m 1
 1458.33203125 628.7890625 l 1
 1472.3515625 648.740234375 1491.52246094 664.758789062 1513.90429688 675 c 1
 1491.52246094 685.241210938 1472.3515625 701.259765625 1458.33203125 721.2109375 c 1
621.328125 707.818359375 m 1
 546.845703125 633.33203125 l 1
 626.15234375 554.025390625 l 1
 624.512695312 558.212890625 622.939453125 562.487304688 621.474609375 566.880859375 c 0
 614.295910595 588.417480973 609.630485611 612.578405661 609.630485611 638.367866531 c 0
 609.630485611 660.526325485 613.074665218 683.887026706 621.328125 707.818359375 c 1
1458.33203125 471.2109375 m 1
 1458.33203125 378.7890625 l 1
 1472.3515625 398.740234375 1491.52246094 414.758789062 1513.90429688 425 c 1
 1491.52246094 435.241210938 1472.3515625 451.259765625 1458.33203125 471.2109375 c 1
100 466.66796875 m 1
 125 466.66796875 l 1
 125 381.376953125 193.876953125 312.5 279.16796875 312.5 c 2
 1112.5 312.5 l 1
 1112.5 287.5 l 1
 279.16796875 287.5 l 2
 193.876953125 287.5 125 218.623046875 125 133.33203125 c 0
 125 48.041015625 193.876953125 -20.83203125 279.16796875 -20.83203125 c 2
 1100 -20.83203125 l 1
 1100 50 l 1
 1125 50 l 1
 1125 -12.279296875 1175.22070312 -62.5 1237.5 -62.5 c 2
 2112.5 -62.5 l 1
 2112.5 -87.5 l 1
 1237.5 -87.5 l 2
 1175.22070312 -87.5 1125 -137.720703125 1125 -200 c 1
 1100 -200 l 1
 1100 -45.83203125 l 1
 279.16796875 -45.83203125 l 2
 193.876953125 -45.83203125 125 -114.708984375 125 -200 c 1
 100 -200 l 1
 100 133.33203125 l 1
 100 466.66796875 l 1
125 375.830078125 m 1
 125 224.169921875 l 1
 145.243164062 258.393554688 176.453125 285.291015625 213.857421875 300 c 1
 176.453125 314.708984375 145.243164062 341.606445312 125 375.830078125 c 1
1458.33203125 221.2109375 m 1
 1458.33203125 128.7890625 l 1
 1472.3515625 148.740234375 1491.52246094 164.758789062 1513.90429688 175 c 1
 1491.52246094 185.241210938 1472.3515625 201.259765625 1458.33203125 221.2109375 c 1
125 42.49609375 m 1
 125 -109.162109375 l 1
 145.2421875 -74.939453125 176.452148438 -48.041015625 213.85546875 -33.33203125 c 1
 176.452148438 -18.623046875 145.2421875 8.2734375 125 42.49609375 c 1
1125 -28.7890625 m 1
 1125 -121.2109375 l 1
 1139.01953125 -101.259765625 1158.19042969 -85.2412109375 1180.57226562 -75 c 1
 1158.19042969 -64.7587890625 1139.01953125 -48.740234375 1125 -28.7890625 c 1
EndSplineSet
EndChar

StartChar: U12095
Encoding: 289 73877 33
Width: 1712
VWidth: 100
Flags: W
HStem: -87.5 25<852.887 1433.33> -45.832 25<219.097 766.668> 162.5 25<852.887 1315.65> 287.5 25<219.097 741.668> 412.5 25<852.887 1315.65> 574.469 24.6824<281.46 387.831> 620.832 25<1279.17 1339.47 1370 1432.79 1458.88 1521.66 1552.43 1612.5> 662.5 25<852.887 1423.56> 787.5 25<1279.17 1337.59 1370 1521.66 1551.88 1612.5>
VStem: 100 25<-200 -139.929 -109.162 42.4961 73.2617 193.403 224.17 375.83 406.597 466.668> 362.183 24.6641<627.486 726.407> 766.668 25<-200 -148.719 -121.211 -45.832 -1.28064 101.281 128.789 221.211 248.719 287.5 325 351.281 378.789 471.211 498.719 601.281 628.789 721.211 748.719 800> 1378.15 24.3382<127.999 219.34 377.999 469.39> 1433.33 25<-200 -87.5 -62.5 44.8242 86.25 266.658 336.25 505.246 645.832 660.51>
LayerCount: 2
Fore
SplineSet
1279.16796875 812.5 m 1
 1612.5 812.5 l 1
 1612.5 787.5 l 1
 1531.421875 787.5 1465.22363281 725.247070312 1458.87695312 645.83203125 c 1
 1612.5 645.83203125 l 1
 1612.5 620.83203125 l 1
 1527.20898438 620.83203125 1458.33203125 551.958984375 1458.33203125 466.66796875 c 2
 1458.33203125 -200 l 1
 1433.33203125 -200 l 1
 1433.33203125 -87.5 l 1
 904.16796875 -87.5 l 2
 841.888671875 -87.5 791.66796875 -137.720703125 791.66796875 -200 c 1
 766.66796875 -200 l 1
 766.66796875 -45.83203125 l 1
 279.16796875 -45.83203125 l 2
 193.876953125 -45.83203125 125 -114.708984375 125 -200 c 1
 100 -200 l 1
 100 133.33203125 l 1
 100 466.66796875 l 1
 125 466.66796875 l 1
 125 381.376953125 193.876953125 312.5 279.16796875 312.5 c 2
 741.66796875 312.5 l 1
 433.59375 543.5546875 l 2
 405.798707683 564.400770332 373.325885756 574.469453775 341.139200421 574.469453775 c 0
 294.312676583 574.469453775 248.09177905 553.158444565 217.76171875 512.71875 c 1
 197.76171875 527.71875 l 1
 397.76171875 794.38671875 l 1
 417.76171875 779.38671875 l 1
 396.915706178 751.591637504 386.847107578 719.117495244 386.847107578 686.929630465 c 0
 386.847107578 640.102632291 408.156807188 593.881526491 448.59375 563.5546875 c 2
 766.66796875 325 l 1
 766.66796875 550 l 1
 766.66796875 800 l 1
 791.66796875 800 l 1
 791.66796875 737.720703125 841.888671875 687.5 904.16796875 687.5 c 2
 1423.56054688 687.5 l 1
 1401.6796875 745.9765625 1345.3828125 787.5 1279.16796875 787.5 c 1
 1279.16796875 812.5 l 1
1370.00390625 787.5 m 1
 1404.22558594 767.2578125 1431.12304688 736.048828125 1445.83203125 698.646484375 c 1
 1460.54101562 736.048828125 1487.43945312 767.2578125 1521.66210938 787.5 c 1
 1370.00390625 787.5 l 1
791.66796875 721.2109375 m 1
 791.66796875 628.7890625 l 1
 805.6875 648.740234375 824.858398438 664.758789062 847.240234375 675 c 1
 824.858398438 685.241210938 805.6875 701.259765625 791.66796875 721.2109375 c 1
363.259765625 706.716796875 m 1
 272.265625 585.390625 l 1
 294.20930845 594.491815557 317.71657507 599.151872111 341.349951465 599.151872111 c 0
 357.271131953 599.151872111 373.249545604 597.036970466 388.845703125 592.740234375 c 1
 371.245070297 621.28025974 362.183047527 654.020938676 362.183047527 687.039227686 c 0
 362.183047527 693.597712642 362.54058624 700.167150599 363.259765625 706.716796875 c 1
904.16796875 662.5 m 2
 841.888671875 662.5 791.66796875 612.279296875 791.66796875 550 c 0
 791.66796875 487.720703125 841.888671875 437.5 904.16796875 437.5 c 2
 1315.65429688 437.5 l 1
 1415.98046875 537.82421875 l 1
 1390.31152344 587.18359375 1338.765625 620.83203125 1279.16796875 620.83203125 c 1
 1279.16796875 645.83203125 l 1
 1432.78515625 645.83203125 l 1
 1432.33398438 651.479492188 1431.59179688 657.041992188 1430.55078125 662.5 c 1
 904.16796875 662.5 l 2
1370.00390625 620.83203125 m 1
 1396.58691406 605.108398438 1418.71777344 582.74609375 1434.18164062 556.025390625 c 1
 1436.99414062 558.837890625 l 1
 1451.34179688 544.490234375 l 1
 1466.77929688 576.33203125 1491.33398438 602.893554688 1521.66210938 620.83203125 c 1
 1370.00390625 620.83203125 l 1
1427.5546875 508.5390625 m 1
 1409.14372455 481.010951484 1402.47690111 454.676776436 1402.47690111 430.438231118 c 0
 1402.47690111 413.141865841 1405.87171168 396.912615365 1410.81640625 382.078125 c 0
 1416.84472656 363.993164062 1425.3828125 348.392578125 1433.33203125 336.25 c 1
 1433.33203125 466.66796875 l 2
 1433.33203125 481.193359375 1431.29101562 495.224609375 1427.5546875 508.5390625 c 1
791.66796875 471.2109375 m 1
 791.66796875 378.7890625 l 1
 805.6875 398.740234375 824.858398438 414.758789062 847.240234375 425 c 1
 824.858398438 435.241210938 805.6875 451.259765625 791.66796875 471.2109375 c 1
1383.47070312 469.962890625 m 1
 1338.5078125 425 l 1
 1386.12695312 377.380859375 l 1
 1381.24915153 392.958830882 1378.14817349 410.279310319 1378.14817349 428.696331247 c 0
 1378.14817349 441.963317674 1379.75735301 455.799328482 1383.47070312 469.962890625 c 1
904.16796875 412.5 m 2
 841.888671875 412.5 791.66796875 362.279296875 791.66796875 300 c 0
 791.66796875 237.720703125 841.888671875 187.5 904.16796875 187.5 c 2
 1315.65429688 187.5 l 1
 1428.15625 300 l 1
 1315.65429688 412.5 l 1
 904.16796875 412.5 l 2
125 375.830078125 m 1
 125 224.169921875 l 1
 145.243164062 258.393554688 176.453125 285.291015625 213.857421875 300 c 1
 176.453125 314.708984375 145.243164062 341.606445312 125 375.830078125 c 1
279.16796875 287.5 m 2
 193.876953125 287.5 125 218.623046875 125 133.33203125 c 0
 125 48.041015625 193.876953125 -20.83203125 279.16796875 -20.83203125 c 2
 766.66796875 -20.83203125 l 1
 766.66796875 50 l 1
 766.66796875 287.5 l 1
 279.16796875 287.5 l 2
1433.33203125 266.658203125 m 1
 1410.52937462 236.172152052 1402.48635133 207.020443075 1402.48635133 180.398030513 c 0
 1402.48635133 163.116685657 1405.87541385 146.901102192 1410.81640625 132.078125 c 0
 1416.84472656 113.993164062 1425.3828125 98.392578125 1433.33203125 86.25 c 1
 1433.33203125 266.658203125 l 1
791.66796875 221.2109375 m 1
 791.66796875 128.7890625 l 1
 805.6875 148.740234375 824.858398438 164.758789062 847.240234375 175 c 1
 824.858398438 185.241210938 805.6875 201.259765625 791.66796875 221.2109375 c 1
1383.47070312 219.962890625 m 1
 1338.5078125 175 l 1
 1386.12695312 127.380859375 l 1
 1381.24915153 142.958830882 1378.14817349 160.279310319 1378.14817349 178.696331247 c 0
 1378.14817349 191.963317674 1379.75735301 205.799328482 1383.47070312 219.962890625 c 1
904.16796875 162.5 m 2
 841.888671875 162.5 791.66796875 112.279296875 791.66796875 50 c 0
 791.66796875 -12.279296875 841.888671875 -62.5 904.16796875 -62.5 c 2
 1433.33203125 -62.5 l 1
 1433.33203125 44.82421875 l 1
 1315.65429688 162.5 l 1
 904.16796875 162.5 l 2
125 42.49609375 m 1
 125 -109.162109375 l 1
 145.2421875 -74.939453125 176.452148438 -48.041015625 213.85546875 -33.33203125 c 1
 176.452148438 -18.623046875 145.2421875 8.2734375 125 42.49609375 c 1
791.66796875 -28.7890625 m 1
 791.66796875 -121.2109375 l 1
 805.6875 -101.259765625 824.858398438 -85.2412109375 847.240234375 -75 c 1
 824.858398438 -64.7587890625 805.6875 -48.740234375 791.66796875 -28.7890625 c 1
EndSplineSet
EndChar

StartChar: U121f8
Encoding: 290 74232 34
Width: 2221
VWidth: 100
Flags: W
HStem: -45.832 25<1094.1 1862.5> 120.875 25<219.071 975> 322.097 24.7039<1321.54 1385.02> 454.125 25<219.071 987.5> 477.256 24.7559<1144.85 1169.8> 488.764 24.704<1488.22 1551.69> 588.369 24.7549<1255.96 1280.92> 699.479 24.7563<1367.07 1392.03>
VStem: 100 25<-33.25 26.8043 57.5762 209.174 239.946 360.054 390.826 542.424 573.196 633.25> 975 25<-200 -139.929 -109.162 42.4961 73.2617 120.875> 1167.43 24.7565<499.639 524.595> 1278.54 24.7555<610.75 635.707> 1378.2 24.7039<339.976 403.455> 1389.65 24.755<721.862 746.818> 1544.87 24.701<506.645 570.12> 1989.23 24.3584<226.581 389.427>
LayerCount: 2
Fore
SplineSet
1416.16210938 808.83984375 m 1xebfb
 1433.83789062 791.162109375 l 1
 1420.88513184 778.208862302 1414.40856933 761.326341952 1414.40856933 744.444346926 c 0
 1414.40856933 727.562670096 1420.8848877 710.681518571 1433.83789062 697.73046875 c 1
 1425 688.890625 l 1
 1433.83984375 697.728515625 l 1
 1536.11132812 595.453125 l 1
 1582.828125 642.169921875 l 1
 1600.50390625 624.4921875 l 1
 1579.88037109 603.868652344 1569.56860352 576.934082031 1569.56860352 549.999633789 c 0
 1569.56860352 523.065185547 1579.88037109 496.130859375 1600.50390625 475.5078125 c 1
 1582.828125 457.830078125 l 1
 1582.82617188 457.830078125 l 1
 1562.20324664 478.453003362 1535.26805567 488.7642828 1508.33274734 488.7642828 c 0xe7f7
 1481.40477412 488.7642828 1454.47668361 478.458618596 1433.85546875 457.84765625 c 0
 1433.84863281 457.841796875 1433.84570312 457.8359375 1433.8359375 457.830078125 c 1
 1433.83789062 457.828125 l 1
 1413.21484375 437.205078125 1402.90332031 410.269042969 1402.90332031 383.333007812 c 0
 1402.90332031 356.396972656 1413.21484375 329.4609375 1433.83789062 308.837890625 c 2
 1517.16992188 225.5078125 l 1
 1499.4921875 207.830078125 l 1
 1416.16015625 291.162109375 l 2
 1395.53710938 311.78515625 1368.60107422 322.096679688 1341.66503906 322.096679688 c 0
 1314.72900391 322.096679688 1287.79296875 311.78515625 1267.16992188 291.162109375 c 1
 1249.49414062 308.837890625 l 1
 1296.21289062 355.556640625 l 1
 1193.93945312 457.828125 l 2
 1180.98596187 470.780151374 1164.10304918 477.256225601 1147.22073593 477.256225601 c 0
 1130.33937737 477.256225601 1113.45861817 470.780883796 1100.5078125 457.830078125 c 1
 1082.83007812 475.505859375 l 1
 1193.9375 586.615234375 l 1
 1193.93945312 586.615234375 l 1
 1211.61523438 568.9375 l 1
 1198.66210938 555.984375 1192.18554688 539.102539062 1192.18554688 522.221191406 c 0
 1192.18554688 505.33984375 1198.66210938 488.458984375 1211.61523438 475.5078125 c 1
 1199.83203125 463.720703125 l 1
 1211.6171875 475.505859375 l 1
 1313.88867188 373.234375 l 1
 1407.32226562 466.66796875 l 1
 1305.05273438 568.9375 l 2
 1292.09863281 581.891601562 1275.21576828 588.368896512 1258.33305185 588.368896512 c 0
 1241.45160814 588.368896512 1224.5703125 581.892578125 1211.6171875 568.939453125 c 1
 1193.93945312 586.615234375 l 1
 1305.05078125 697.728515625 l 1
 1305.05273438 697.728515625 l 1
 1416.16210938 808.83984375 l 1xebfb
1582.828125 457.830078125 m 1
 1600.5078125 475.505859375 l 1
 1683.83789062 392.169921875 l 1
 1666.16015625 374.494140625 l 1
 1582.828125 457.830078125 l 1
1389.68945312 747.01171875 m 1
 1366.87695312 724.19921875 l 1
 1367.72943517 724.222962893 1368.58198345 724.234831239 1369.43436602 724.234831239 c 0
 1377.24112928 724.234831239 1385.03399302 723.239281232 1392.63476562 721.25390625 c 1
 1390.64994763 728.852546476 1389.65360599 736.643170069 1389.65360599 744.447735349 c 0
 1389.65360599 745.302307241 1389.66555159 746.157046286 1389.68945312 747.01171875 c 1
1369.44335938 699.478515625 m 0
 1352.56152344 699.478515625 1335.6796875 693.00390625 1322.72851562 680.052734375 c 1
 1322.73046875 680.05078125 l 1
 1309.77648926 667.097778313 1303.29968262 650.215894347 1303.29968262 633.33385129 c 0
 1303.29968262 616.451490056 1309.7767334 599.568969724 1322.73046875 586.615234375 c 2
 1425 484.345703125 l 1
 1518.43359375 577.775390625 l 1
 1416.16210938 680.05078125 l 2
 1403.20898438 693.000976562 1386.32519531 699.478515625 1369.44335938 699.478515625 c 0
1278.58007812 635.90234375 m 1
 1255.765625 613.087890625 l 1
 1256.62097401 613.111808378 1257.47638969 613.123763493 1258.33163689 613.123763493 c 0
 1266.1364916 613.123763493 1273.92731513 612.128128724 1281.52539062 610.142578125 c 1
 1279.53984003 617.740653621 1278.54420526 625.53147715 1278.54420526 633.336331859 c 0
 1278.54420526 634.19157906 1278.55616037 635.04699474 1278.58007812 635.90234375 c 1
100 633.25 m 1
 125 633.25 l 1
 125 547.982421875 193.857421875 479.125 279.125 479.125 c 2
 987.5 479.125 l 1
 987.5 454.125 l 1
 279.125 454.125 l 2xf3f3
 193.857421875 454.125 125 385.267578125 125 300 c 0
 125 214.732421875 193.857421875 145.875 279.125 145.875 c 2
 987.5 145.875 l 1
 987.5 133.33203125 l 1
 1000 133.33203125 l 1
 1000 48.041015625 1068.87695312 -20.83203125 1154.16796875 -20.83203125 c 2
 1862.5 -20.83203125 l 1
 1862.5 -45.83203125 l 1
 1154.16796875 -45.83203125 l 2
 1068.87695312 -45.83203125 1000 -114.708984375 1000 -200 c 1
 975 -200 l 1
 975 120.875 l 1
 279.125 120.875 l 2
 193.857421875 120.875 125 52.017578125 125 -33.25 c 1
 100 -33.25 l 1
 100 300 l 1
 100 633.25 l 1
1546.46875 570.455078125 m 1
 1487.87890625 511.8671875 l 1
 1494.65192019 512.934743215 1501.48817154 513.468325994 1508.32241418 513.468325994 c 0xe7f3
 1523.30669285 513.468325994 1538.28131522 510.903294511 1552.55859375 505.77734375 c 1
 1547.43264299 520.053951606 1544.86761151 535.028363904 1544.86761151 550.012260445 c 0
 1544.86761151 556.846328796 1545.40119428 563.682370077 1546.46875 570.455078125 c 1
2103.66210938 558.837890625 m 1
 2121.33789062 541.162109375 l 1
 2040.33220131 460.156420064 2013.5863502 380.796519454 2013.5863502 310.096655668 c 0
 2013.5863502 274.270906115 2020.45402686 240.668840994 2030.609375 210.203125 c 0
 2060.80566406 119.615234375 2121.33789062 58.837890625 2121.33789062 58.837890625 c 1
 2103.66210938 41.162109375 l 1
 1844.82226562 300 l 1
 2103.66210938 558.837890625 l 1
125 542.423828125 m 1
 125 390.826171875 l 1
 145.236328125 425.034179688 176.434570312 451.919921875 213.822265625 466.625 c 1
 176.434570312 481.330078125 145.236328125 508.215820312 125 542.423828125 c 1
1167.46484375 524.7890625 m 1
 1144.65429688 501.9765625 l 1
 1145.50677892 502.000306643 1146.3593272 502.012174989 1147.21170977 502.012174989 c 0xebf3
 1155.01847303 502.012174989 1162.81133677 501.016624982 1170.41210938 499.03125 c 1
 1168.42697985 506.630202584 1167.42904986 514.422785946 1167.42904986 522.228728464 c 0
 1167.42904986 523.082091994 1167.44097648 523.935615184 1167.46484375 524.7890625 c 1
2017.2265625 437.05078125 m 1
 1880.17578125 300 l 1
 2027.01953125 153.15625 l 1
 2019.64550781 168.357421875 2012.73242188 184.771484375 2006.890625 202.296875 c 0
 1996.2284544 234.283386809 1989.22796557 270.059735831 1989.22796557 308.239531025 c 0
 1989.22796557 348.999628428 1997.2066558 392.499013469 2017.2265625 437.05078125 c 1
1379.80078125 403.791015625 m 1
 1321.20898438 345.19921875 l 1
 1327.98294902 346.266876096 1334.82016312 346.800554666 1341.65533189 346.800554666 c 0
 1356.63956393 346.800554666 1371.61396639 344.235773836 1385.890625 339.109375 c 1
 1380.76422616 353.38603361 1378.19944533 368.360436067 1378.19944533 383.344668109 c 0xe3fb
 1378.19944533 390.179836877 1378.7331239 397.017050981 1379.80078125 403.791015625 c 1
125 209.173828125 m 1
 125 57.576171875 l 1
 145.236328125 91.7841796875 176.434570312 118.669921875 213.822265625 133.375 c 1
 176.435546875 148.080078125 145.236328125 174.966796875 125 209.173828125 c 1
1000 42.49609375 m 1
 1000 -109.162109375 l 1
 1020.2421875 -74.939453125 1051.45214844 -48.041015625 1088.85546875 -33.33203125 c 1
 1051.45214844 -18.623046875 1020.2421875 8.2734375 1000 42.49609375 c 1
EndSplineSet
EndChar

StartChar: U1207a
Encoding: 291 73850 35
Width: 1212
VWidth: 100
Flags: W
HStem: -45.832 25<220.777 266.668 385.762 933.332> 287.5 25<219.097 623.99 648.933 933.332> 787.5 25<779.168 839.238 870.004 1021.66 1052.43 1112.5>
VStem: 100 25<-200 -139.383 -109.162 42.4961 72.716 193.403 224.17 375.83 406.597 466.668> 266.668 25<-200 -139.929 -109.162 -46.377 -20.2871 42.4941 73.2617 133.332> 530.896 24.3566<476.58 639.425> 933.332 25<-200 -45.832 -20.832 287.5 312.5 693.403>
LayerCount: 2
Fore
SplineSet
779.16796875 812.5 m 1
 1112.5 812.5 l 1
 1112.5 787.5 l 1
 1027.20898438 787.5 958.33203125 718.623046875 958.33203125 633.33203125 c 2
 958.33203125 -200 l 1
 933.33203125 -200 l 1
 933.33203125 -45.83203125 l 1
 445.83203125 -45.83203125 l 2
 360.541015625 -45.83203125 291.66796875 -114.708984375 291.66796875 -200 c 1
 266.66796875 -200 l 1
 266.66796875 -46.376953125 l 1
 187.252929688 -52.7236328125 125 -118.921875 125 -200 c 1
 100 -200 l 1
 100 133.33203125 l 1
 100 466.66796875 l 1
 125 466.66796875 l 1
 125 381.376953125 193.876953125 312.5 279.16796875 312.5 c 2
 623.990234375 312.5 l 1
 386.490234375 550 l 1
 645.328125 808.837890625 l 1
 663.005859375 791.162109375 l 1
 581.999293755 710.155543755 555.252879954 630.794802444 555.252879954 560.094361205 c 0
 555.252879954 524.269471416 562.120259284 490.6681906 572.275390625 460.203125 c 0
 598.291015625 382.15625 646.625 326.486328125 659.564453125 312.5 c 1
 933.33203125 312.5 l 1
 933.33203125 633.33203125 l 2
 933.33203125 718.623046875 864.458984375 787.5 779.16796875 787.5 c 1
 779.16796875 812.5 l 1
870.00390625 787.5 m 1
 904.225585938 767.2578125 931.123046875 736.048828125 945.83203125 698.646484375 c 1
 960.541015625 736.048828125 987.440429688 767.2578125 1021.66210938 787.5 c 1
 870.00390625 787.5 l 1
558.89453125 687.048828125 m 1
 421.845703125 550 l 1
 568.6875 403.158203125 l 1
 561.313476562 418.358398438 554.400390625 434.772460938 548.55859375 452.296875 c 0
 537.896518661 484.283100268 530.896288181 520.058866413 530.896288181 558.237930135 c 0
 530.896288181 598.997953781 538.874960811 642.497190753 558.89453125 687.048828125 c 1
125 375.830078125 m 1
 125 224.169921875 l 1
 145.243164062 258.393554688 176.453125 285.291015625 213.857421875 300 c 1
 176.453125 314.708984375 145.243164062 341.606445312 125 375.830078125 c 1
279.16796875 287.5 m 2
 193.876953125 287.5 125 218.623046875 125 133.33203125 c 0
 125 52.25390625 187.252929688 -13.9404296875 266.66796875 -20.287109375 c 1
 266.66796875 133.33203125 l 1
 291.66796875 133.33203125 l 1
 291.66796875 48.041015625 360.541015625 -20.83203125 445.83203125 -20.83203125 c 2
 933.33203125 -20.83203125 l 1
 933.33203125 287.5 l 1
 279.16796875 287.5 l 2
125 42.49609375 m 1
 125 -109.162109375 l 1
 145.2421875 -74.939453125 176.452148438 -48.041015625 213.85546875 -33.33203125 c 1
 176.452148438 -18.623046875 145.2421875 8.2734375 125 42.49609375 c 1
291.66796875 42.494140625 m 1
 291.66796875 -109.162109375 l 1
 311.91015625 -74.939453125 343.118164062 -48.041015625 380.521484375 -33.33203125 c 1
 343.119140625 -18.6240234375 311.909179688 8.2724609375 291.66796875 42.494140625 c 1
EndSplineSet
EndChar

StartChar: U1207d
Encoding: 292 73853 36
Width: 1712
VWidth: 100
Flags: W
HStem: 148.609 25<220.777 266.668 385.762 1433.33> 426.391 25<219.117 1273.99> 620.832 25<1279.17 1338.91 1370 1432.79 1458.88 1521.66 1552.43 1612.5> 787.5 25<1279.17 1339.78 1370 1521.66 1551.88 1612.5>
VStem: 100 25<-5.55469 55.0613 85.2812 236.939 363.061 514.719 545.485 605.555> 266.668 25<-5.55469 54.5156 85.2812 148.064 174.154 236.939 267.706 327.777> 773.984 24.3231<-121.932 -30.3984 628.068 719.602> 1359.63 24.3315<378.739 510.303> 1433.33 25<-200 148.609 173.609 267.045 307.137 526.738 645.832 691.723>
LayerCount: 2
Fore
SplineSet
1279.16796875 812.5 m 1
 1612.5 812.5 l 1
 1612.5 787.5 l 1
 1531.421875 787.5 1465.22363281 725.247070312 1458.87695312 645.83203125 c 1
 1612.5 645.83203125 l 1
 1612.5 620.83203125 l 1
 1527.20898438 620.83203125 1458.33203125 551.958984375 1458.33203125 466.66796875 c 2
 1458.33203125 -200 l 1
 1433.33203125 -200 l 1
 1433.33203125 148.609375 l 1
 445.83203125 148.609375 l 2
 360.541015625 148.609375 291.66796875 79.736328125 291.66796875 -5.5546875 c 1
 266.66796875 -5.5546875 l 1
 266.66796875 148.064453125 l 1
 187.252929688 141.717773438 125 75.5234375 125 -5.5546875 c 1
 100 -5.5546875 l 1
 100 272.22265625 l 1
 100 605.5546875 l 1
 125 605.5546875 l 1
 125 520.264648438 193.876953125 451.390625 279.16796875 451.390625 c 2
 1273.99023438 451.390625 l 1
 1393.1640625 570.564453125 l 1
 1364.9921875 601.467773438 1324.38867188 620.83203125 1279.16796875 620.83203125 c 1
 1279.16796875 645.83203125 l 1
 1432.78515625 645.83203125 l 1
 1426.43847656 725.247070312 1360.24609375 787.5 1279.16796875 787.5 c 1
 1279.16796875 812.5 l 1
832.828125 808.837890625 m 1
 850.505859375 791.162109375 l 1
 811.168728301 751.824978301 798.306723089 714.118016556 798.306723089 680.452860087 c 0
 798.306723089 663.151285066 801.703904094 646.917253083 806.650390625 632.078125 c 0
 821.221679688 588.365234375 850.505859375 558.837890625 850.505859375 558.837890625 c 1
 832.828125 541.162109375 l 1
 698.990234375 675 l 1
 832.828125 808.837890625 l 1
1370.00390625 787.5 m 1
 1404.22558594 767.2578125 1431.12304688 736.048828125 1445.83203125 698.646484375 c 1
 1460.54101562 736.048828125 1487.43945312 767.2578125 1521.66210938 787.5 c 1
 1370.00390625 787.5 l 1
779.306640625 719.962890625 m 1
 734.345703125 675 l 1
 781.9609375 627.3828125 l 1
 777.083999148 642.959839875 773.983668983 660.278504134 773.983668983 678.693723324 c 0
 773.983668983 691.961332037 775.592978096 705.798136852 779.306640625 719.962890625 c 1
1370.00390625 620.83203125 m 1
 1385.11035156 611.896484375 1398.78320312 600.817382812 1410.6171875 588.017578125 c 1
 1436.9921875 614.392578125 l 1
 1454.66992188 596.716796875 l 1
 1444.43945312 586.486328125 1435.54394531 576.317382812 1427.82421875 566.236328125 c 1
 1434.9921875 555.572265625 1441.0625 544.106445312 1445.83203125 531.9765625 c 1
 1460.54101562 569.380859375 1487.43847656 600.58984375 1521.66210938 620.83203125 c 1
 1370.00390625 620.83203125 l 1
1412.58398438 543.998046875 m 1
 1391.71039879 509.59005339 1383.96200442 476.491479991 1383.96200442 445.865485676 c 0
 1383.96200442 422.39803359 1388.51149952 400.3823644 1395.19140625 380.341796875 c 0
 1405.36035156 349.834960938 1420.734375 324.598632812 1433.33203125 307.13671875 c 1
 1433.33203125 466.66796875 l 2
 1433.33203125 494.881835938 1425.7578125 521.276367188 1412.58398438 543.998046875 c 1
125 514.71875 m 1
 125 363.060546875 l 1
 145.2421875 397.283203125 176.452148438 424.181640625 213.85546875 438.890625 c 1
 176.452148438 453.599609375 145.2421875 480.497070312 125 514.71875 c 1
1371.328125 513.375 m 1
 1296.84570312 438.890625 l 1
 1376.15039062 359.58203125 l 1
 1374.51074219 363.768554688 1372.93847656 368.044921875 1371.47460938 372.4375 c 0
 1364.2959106 393.974121598 1359.63048561 418.135328803 1359.63048561 443.92489884 c 0
 1359.63048561 466.083451592 1363.07466522 489.444118636 1371.328125 513.375 c 1
279.16796875 426.390625 m 2
 203.369140625 426.390625 140.580078125 371.974609375 127.533203125 300 c 1
 139.854492188 232.025390625 196.55078125 179.7578125 266.66796875 174.154296875 c 1
 266.66796875 327.77734375 l 1
 291.66796875 327.77734375 l 1
 291.66796875 242.486328125 360.541015625 173.609375 445.83203125 173.609375 c 2
 1433.33203125 173.609375 l 1
 1433.33203125 267.044921875 l 1
 1273.99023438 426.390625 l 1
 279.16796875 426.390625 l 2
125 236.939453125 m 1
 125 85.28125 l 1
 145.2421875 119.50390625 176.452148438 146.400390625 213.85546875 161.109375 c 1
 176.452148438 175.818359375 145.2421875 202.716796875 125 236.939453125 c 1
291.66796875 236.939453125 m 1
 291.66796875 85.28125 l 1
 311.909179688 119.502929688 343.119140625 146.400390625 380.521484375 161.109375 c 1
 343.118164062 175.818359375 311.91015625 202.716796875 291.66796875 236.939453125 c 1
832.828125 58.837890625 m 1
 850.505859375 41.162109375 l 1
 811.168728301 1.82497830145 798.306723089 -35.8819834439 798.306723089 -69.5471399126 c 0
 798.306723089 -86.8487149336 801.703904094 -103.082746917 806.650390625 -117.921875 c 0
 821.221679688 -161.634765625 850.505859375 -191.162109375 850.505859375 -191.162109375 c 1
 832.828125 -208.837890625 l 1
 698.990234375 -75 l 1
 832.828125 58.837890625 l 1
779.306640625 -30.037109375 m 1
 734.345703125 -75 l 1
 781.9609375 -122.6171875 l 1
 777.083999148 -107.040160125 773.983668983 -89.7214958659 773.983668983 -71.3062766762 c 0
 773.983668983 -58.0386679626 775.592978096 -44.2018631476 779.306640625 -30.037109375 c 1
EndSplineSet
EndChar

StartChar: U12041
Encoding: 293 73793 37
Width: 1221
VWidth: 100
Flags: W
HStem: 287.5 25<219.097 940.654>
VStem: 100 25<133.332 193.403 224.17 375.83 406.597 466.668> 1026.3 24.3251<240.565 370.693>
LayerCount: 2
Fore
SplineSet
1103.66210938 475.505859375 m 1
 1121.33984375 457.830078125 l 1
 1068.1113358 404.601570177 1050.6216213 353.010358817 1050.6216213 306.999179537 c 0
 1050.6216213 283.522544796 1055.17493611 261.498629176 1061.85742188 241.451171875 c 0
 1081.63671875 182.11328125 1121.33984375 142.169921875 1121.33984375 142.169921875 c 1
 1103.66210938 124.4921875 l 1
 940.654296875 287.5 l 1
 279.16796875 287.5 l 2
 193.876953125 287.5 125 218.623046875 125 133.33203125 c 1
 100 133.33203125 l 1
 100 466.66796875 l 1
 125 466.66796875 l 1
 125 381.376953125 193.876953125 312.5 279.16796875 312.5 c 2
 940.654296875 312.5 l 1
 1103.66210938 475.505859375 l 1
125 375.830078125 m 1
 125 224.169921875 l 1
 145.243164062 258.393554688 176.453125 285.291015625 213.857421875 300 c 1
 176.453125 314.708984375 145.243164062 341.606445312 125 375.830078125 c 1
1037.99414062 374.484375 m 1
 963.509765625 300 l 1
 1042.8203125 220.689453125 l 1
 1041.18066406 224.876953125 1039.60546875 229.153320312 1038.140625 233.546875 c 0
 1030.96192622 255.083496598 1026.29650124 279.244703803 1026.29650124 305.03427384 c 0
 1026.29650124 327.192826592 1029.74068084 350.553493636 1037.99414062 374.484375 c 1
EndSplineSet
EndChar

StartChar: U12458
Encoding: 294 74840 38
Width: 1221
VWidth: 100
Flags: W
HStem: 287.5 25<219.097 940.654>
VStem: 100 25<133.332 193.403 224.17 375.83 406.597 466.668> 1026.3 24.3251<240.565 370.693>
LayerCount: 2
Fore
SplineSet
1103.66210938 475.505859375 m 1
 1121.33984375 457.830078125 l 1
 1068.1113358 404.601570177 1050.6216213 353.010358817 1050.6216213 306.999179537 c 0
 1050.6216213 283.522544796 1055.17493611 261.498629176 1061.85742188 241.451171875 c 0
 1081.63671875 182.11328125 1121.33984375 142.169921875 1121.33984375 142.169921875 c 1
 1103.66210938 124.4921875 l 1
 940.654296875 287.5 l 1
 279.16796875 287.5 l 2
 193.876953125 287.5 125 218.623046875 125 133.33203125 c 1
 100 133.33203125 l 1
 100 466.66796875 l 1
 125 466.66796875 l 1
 125 381.376953125 193.876953125 312.5 279.16796875 312.5 c 2
 940.654296875 312.5 l 1
 1103.66210938 475.505859375 l 1
125 375.830078125 m 1
 125 224.169921875 l 1
 145.243164062 258.393554688 176.453125 285.291015625 213.857421875 300 c 1
 176.453125 314.708984375 145.243164062 341.606445312 125 375.830078125 c 1
1037.99414062 374.484375 m 1
 963.509765625 300 l 1
 1042.8203125 220.689453125 l 1
 1041.18066406 224.876953125 1039.60546875 229.153320312 1038.140625 233.546875 c 0
 1030.96192622 255.083496598 1026.29650124 279.244703803 1026.29650124 305.03427384 c 0
 1026.29650124 327.192826592 1029.74068084 350.553493636 1037.99414062 374.484375 c 1
EndSplineSet
EndChar

